<?xml version="1.0" encoding="UTF-8" standalone="no"?>
<svg
   xmlns:dc="http://purl.org/dc/elements/1.1/"
   xmlns:cc="http://creativecommons.org/ns#"
   xmlns:rdf="http://www.w3.org/1999/02/22-rdf-syntax-ns#"
   xmlns:svg="http://www.w3.org/2000/svg"
   xmlns="http://www.w3.org/2000/svg"
   xmlns:sodipodi="http://sodipodi.sourceforge.net/DTD/sodipodi-0.dtd"
   xmlns:inkscape="http://www.inkscape.org/namespaces/inkscape"
   width="37.014984mm"
   height="6.7450099mm"
   viewBox="0 0 37.014984 6.7450099"
   version="1.1"
   id="svg902"
   inkscape:version="1.0.1 (3bc2e813f5, 2020-09-07)"
   sodipodi:docname="Logo.svg">
  <defs
     id="defs896" />
  <sodipodi:namedview
     id="base"
     pagecolor="#ffffff"
     bordercolor="#666666"
     borderopacity="1.0"
     inkscape:pageopacity="0.0"
     inkscape:pageshadow="2"
     inkscape:zoom="3.959798"
     inkscape:cx="38.851991"
     inkscape:cy="5.7121762"
     inkscape:document-units="mm"
     inkscape:current-layer="layer1"
     inkscape:document-rotation="0"
     showgrid="false"
     fit-margin-top="0"
     fit-margin-left="0"
     fit-margin-right="0"
     fit-margin-bottom="0"
     inkscape:window-width="2560"
     inkscape:window-height="1377"
     inkscape:window-x="-8"
     inkscape:window-y="-8"
     inkscape:window-maximized="1" />
  <metadata
     id="metadata899">
    <rdf:RDF>
      <cc:Work
         rdf:about="">
        <dc:format>image/svg+xml</dc:format>
        <dc:type
           rdf:resource="http://purl.org/dc/dcmitype/StillImage" />
        <dc:title></dc:title>
      </cc:Work>
    </rdf:RDF>
  </metadata>
  <g
     inkscape:label="Layer 1"
     inkscape:groupmode="layer"
     id="layer1"
     transform="translate(-34.706876,-106.75465)">
    <g
       aria-label="DIOM MP"
       id="text1467"
       style="font-size:7.05556px;line-height:1.25;font-family:sans-serif;stroke-width:0.264583">
      <path
         d="m 39.040809,110.83315 q 0,0.69936 -0.306614,1.2678 -0.303168,0.56844 -0.809598,0.88194 -0.3514,0.21704 -0.785482,0.31351 -0.430637,0.0965 -1.136882,0.0965 h -1.295357 v -5.12975 h 1.281576 q 0.751032,0 1.192004,0.11024 0.444418,0.1068 0.751032,0.29628 0.523654,0.32729 0.816488,0.87161 0.292833,0.54433 0.292833,1.29191 z m -0.713135,-0.0103 q 0,-0.60289 -0.210151,-1.01631 -0.210151,-0.41341 -0.627008,-0.65112 -0.303169,-0.17225 -0.644233,-0.23771 -0.341065,-0.0689 -0.816488,-0.0689 h -0.640789 v 3.95841 h 0.640789 q 0.492649,0 0.857829,-0.0723 0.368625,-0.0724 0.675239,-0.26872 0.382406,-0.2446 0.571886,-0.64423 0.192926,-0.39964 0.192926,-0.99908 z"
         style="stroke-width:0.264583"
         id="path1473" />
      <path
         d="m 41.951917,113.39286 h -2.025718 v -0.52365 h 0.671794 v -4.08245 h -0.671794 v -0.52365 h 2.025718 v 0.52365 h -0.671794 v 4.08245 h 0.671794 z"
         style="stroke-width:0.264583"
         id="path1475" />
      <path
         d="m 46.936973,108.85222 q 0.313504,0.34451 0.478868,0.84405 0.16881,0.49954 0.16881,1.13344 0,0.6339 -0.172255,1.13688 -0.168809,0.49954 -0.475423,0.83371 -0.316949,0.34796 -0.751031,0.52366 -0.430638,0.1757 -0.985298,0.1757 -0.540881,0 -0.985298,-0.17915 -0.440973,-0.17914 -0.751032,-0.52021 -0.310058,-0.34106 -0.478868,-0.83716 -0.165365,-0.49609 -0.165365,-1.13343 0,-0.62701 0.165365,-1.1231 0.165364,-0.49954 0.482313,-0.85439 0.303169,-0.33762 0.751032,-0.51676 0.451308,-0.17915 0.981853,-0.17915 0.551215,0 0.988743,0.18259 0.440972,0.17915 0.747586,0.51332 z m -0.06201,1.97749 q 0,-0.99908 -0.447863,-1.53996 -0.447862,-0.54433 -1.223009,-0.54433 -0.782037,0 -1.2299,0.54433 -0.444418,0.54088 -0.444418,1.53996 0,1.00941 0.454753,1.54685 0.454753,0.53399 1.219565,0.53399 0.764811,0 1.216119,-0.53399 0.454753,-0.53744 0.454753,-1.54685 z"
         style="stroke-width:0.264583"
         id="path1477" />
      <path
         d="m 53.234611,113.39286 h -0.682129 v -4.42006 l -1.42627,3.00757 H 50.71969 l -1.415935,-3.00757 v 4.42006 h -0.637343 v -5.12975 h 0.930176 l 1.367704,2.85599 1.322917,-2.85599 h 0.947402 z"
         style="stroke-width:0.264583"
         id="path1479" />
      <path
         d="m 61.66132,113.39286 h -0.68213 v -4.42006 l -1.42627,3.00757 h -0.406522 l -1.415935,-3.00757 v 4.42006 H 57.09312 v -5.12975 h 0.930176 l 1.367704,2.85599 1.322918,-2.85599 h 0.947402 z"
         style="stroke-width:0.264583"
         id="path1481" />
      <path
         d="m 66.394885,109.8134 q 0,0.34107 -0.120579,0.6339 -0.117133,0.28939 -0.330729,0.50299 -0.265273,0.26527 -0.627008,0.39963 -0.361735,0.13091 -0.912951,0.13091 h -0.682129 v 1.91203 h -0.68213 v -5.12975 h 1.39182 q 0.461643,0 0.782037,0.0792 0.320394,0.0758 0.568441,0.24115 0.292834,0.19637 0.451308,0.48921 0.16192,0.29283 0.16192,0.74069 z m -0.709691,0.0172 q 0,-0.26527 -0.09302,-0.46164 -0.09302,-0.19637 -0.282498,-0.3204 -0.165365,-0.1068 -0.378961,-0.15158 -0.210151,-0.0482 -0.53399,-0.0482 h -0.675239 v 2.04983 h 0.575331 q 0.413412,0 0.671794,-0.0724 0.258382,-0.0758 0.420302,-0.23771 0.16192,-0.16536 0.227377,-0.34795 0.0689,-0.18259 0.0689,-0.40997 z"
         style="stroke-width:0.264583"
         id="path1483" />
    </g>
    <g
       aria-label="20"
       id="text1471"
       style="font-size:4.23333px;line-height:1.25;font-family:sans-serif;stroke-width:0.264583">
      <path
         d="m 69.034689,109.89658 h -2.083592 v -0.43201 q 0.217041,-0.18604 0.434082,-0.37207 0.219108,-0.18604 0.40721,-0.37 0.396875,-0.38448 0.543636,-0.60979 0.146761,-0.22737 0.146761,-0.48989 0,-0.23978 -0.159164,-0.37413 -0.157096,-0.13643 -0.440283,-0.13643 -0.188102,0 -0.40721,0.0661 -0.219107,0.0661 -0.42788,0.20257 h -0.02067 v -0.43408 q 0.146761,-0.0724 0.390674,-0.1323 0.24598,-0.0599 0.475423,-0.0599 0.473355,0 0.742073,0.22944 0.268717,0.22738 0.268717,0.61805 0,0.1757 -0.04547,0.32866 -0.04341,0.1509 -0.130225,0.28732 -0.08061,0.12816 -0.190169,0.25219 -0.107487,0.12402 -0.262516,0.27491 -0.221175,0.21704 -0.456819,0.42168 -0.235645,0.20257 -0.440283,0.37621 h 1.655711 z"
         style="font-size:4.23333px;stroke-width:0.264583"
         id="path1486" />
      <path
         d="m 71.721862,108.35663 q 0,0.82889 -0.260449,1.21749 -0.258382,0.38654 -0.804085,0.38654 -0.553971,0 -0.810286,-0.39274 -0.254248,-0.39274 -0.254248,-1.20716 0,-0.82062 0.258382,-1.21129 0.258382,-0.39274 0.806152,-0.39274 0.553971,0 0.808219,0.39894 0.256315,0.39687 0.256315,1.20096 z m -0.543636,0.93844 q 0.07235,-0.16743 0.09715,-0.39274 0.02687,-0.22738 0.02687,-0.5457 0,-0.3142 -0.02687,-0.54571 -0.02481,-0.23151 -0.09922,-0.39274 -0.07235,-0.15916 -0.198437,-0.23977 -0.124024,-0.0806 -0.320394,-0.0806 -0.194303,0 -0.322461,0.0806 -0.12609,0.0806 -0.200504,0.24391 -0.07028,0.15296 -0.09715,0.39894 -0.0248,0.24598 -0.0248,0.5395 0,0.32246 0.02274,0.5395 0.02274,0.21704 0.09715,0.38861 0.06821,0.16123 0.192236,0.24598 0.12609,0.0847 0.332796,0.0847 0.194303,0 0.322461,-0.0806 0.128157,-0.0806 0.198437,-0.24391 z"
         style="font-size:4.23333px;stroke-width:0.264583"
         id="path1488" />
    </g>
  </g>
</svg>
