%TF.GenerationSoftware,KiCad,Pcbnew,(6.0.4)*%
%TF.CreationDate,2022-05-24T19:18:06+02:00*%
%TF.ProjectId,MacroBoard-rounded,4d616372-6f42-46f6-9172-642d726f756e,rev?*%
%TF.SameCoordinates,Original*%
%TF.FileFunction,Paste,Bot*%
%TF.FilePolarity,Positive*%
%FSLAX46Y46*%
G04 Gerber Fmt 4.6, Leading zero omitted, Abs format (unit mm)*
G04 Created by KiCad (PCBNEW (6.0.4)) date 2022-05-24 19:18:06*
%MOMM*%
%LPD*%
G01*
G04 APERTURE LIST*
G04 Aperture macros list*
%AMRoundRect*
0 Rectangle with rounded corners*
0 $1 Rounding radius*
0 $2 $3 $4 $5 $6 $7 $8 $9 X,Y pos of 4 corners*
0 Add a 4 corners polygon primitive as box body*
4,1,4,$2,$3,$4,$5,$6,$7,$8,$9,$2,$3,0*
0 Add four circle primitives for the rounded corners*
1,1,$1+$1,$2,$3*
1,1,$1+$1,$4,$5*
1,1,$1+$1,$6,$7*
1,1,$1+$1,$8,$9*
0 Add four rect primitives between the rounded corners*
20,1,$1+$1,$2,$3,$4,$5,0*
20,1,$1+$1,$4,$5,$6,$7,0*
20,1,$1+$1,$6,$7,$8,$9,0*
20,1,$1+$1,$8,$9,$2,$3,0*%
%AMRotRect*
0 Rectangle, with rotation*
0 The origin of the aperture is its center*
0 $1 length*
0 $2 width*
0 $3 Rotation angle, in degrees counterclockwise*
0 Add horizontal line*
21,1,$1,$2,0,0,$3*%
G04 Aperture macros list end*
%ADD10R,1.600000X1.400000*%
%ADD11R,1.600000X1.420000*%
%ADD12R,1.600000X1.380000*%
%ADD13R,2.550000X2.500000*%
%ADD14RoundRect,0.250000X0.250000X0.700000X-0.250000X0.700000X-0.250000X-0.700000X0.250000X-0.700000X0*%
%ADD15R,0.900000X1.200000*%
%ADD16RoundRect,0.160000X0.197500X0.160000X-0.197500X0.160000X-0.197500X-0.160000X0.197500X-0.160000X0*%
%ADD17R,1.200000X0.900000*%
%ADD18RotRect,1.400000X1.200000X225.000000*%
%ADD19RoundRect,0.250000X0.512652X0.159099X0.159099X0.512652X-0.512652X-0.159099X-0.159099X-0.512652X0*%
%ADD20RoundRect,0.250000X-0.250000X-0.475000X0.250000X-0.475000X0.250000X0.475000X-0.250000X0.475000X0*%
%ADD21RoundRect,0.160000X-0.197500X-0.160000X0.197500X-0.160000X0.197500X0.160000X-0.197500X0.160000X0*%
%ADD22RoundRect,0.450000X0.950000X0.450000X-0.950000X0.450000X-0.950000X-0.450000X0.950000X-0.450000X0*%
%ADD23RoundRect,0.250000X0.275000X0.700000X-0.275000X0.700000X-0.275000X-0.700000X0.275000X-0.700000X0*%
%ADD24RoundRect,0.150000X-0.150000X-0.575000X0.150000X-0.575000X0.150000X0.575000X-0.150000X0.575000X0*%
%ADD25RoundRect,0.075000X-0.075000X-0.650000X0.075000X-0.650000X0.075000X0.650000X-0.075000X0.650000X0*%
%ADD26RoundRect,0.160000X-0.160000X0.197500X-0.160000X-0.197500X0.160000X-0.197500X0.160000X0.197500X0*%
%ADD27RoundRect,0.125000X0.000000X0.150000X0.000000X0.150000X0.000000X-0.150000X0.000000X-0.150000X0*%
%ADD28R,0.250000X0.550000*%
%ADD29R,0.300000X0.550000*%
%ADD30RoundRect,0.250000X0.159099X-0.512652X0.512652X-0.159099X-0.159099X0.512652X-0.512652X0.159099X0*%
%ADD31RoundRect,0.250000X0.132583X-0.503814X0.503814X-0.132583X-0.132583X0.503814X-0.503814X0.132583X0*%
%ADD32RoundRect,0.237500X-0.237500X0.287500X-0.237500X-0.287500X0.237500X-0.287500X0.237500X0.287500X0*%
%ADD33RoundRect,0.250000X-0.159099X0.512652X-0.512652X0.159099X0.159099X-0.512652X0.512652X-0.159099X0*%
%ADD34RoundRect,0.250000X-0.132583X0.503814X-0.503814X0.132583X0.132583X-0.503814X0.503814X-0.132583X0*%
%ADD35RotRect,1.500000X0.550000X225.000000*%
%ADD36RotRect,1.500000X0.550000X135.000000*%
%ADD37RoundRect,0.250000X-0.262500X-0.450000X0.262500X-0.450000X0.262500X0.450000X-0.262500X0.450000X0*%
G04 APERTURE END LIST*
D10*
%TO.C,D21*%
X83762500Y-71147500D03*
D11*
X83762500Y-69157500D03*
D10*
X78162500Y-69157500D03*
D12*
X78162500Y-71157500D03*
%TD*%
D13*
%TO.C,MX10*%
X125352500Y-79057500D03*
X111622500Y-81477500D03*
%TD*%
D10*
%TO.C,D37*%
X159962500Y-71147500D03*
D11*
X159962494Y-69157494D03*
D10*
X154362500Y-69157500D03*
D12*
X154362500Y-71157500D03*
%TD*%
D13*
%TO.C,MX18*%
X163452500Y-79057500D03*
X149722500Y-81477500D03*
%TD*%
%TO.C,MX5*%
X106302500Y-60007500D03*
X92572500Y-62427500D03*
%TD*%
D10*
%TO.C,D32*%
X121862500Y-128297500D03*
D11*
X121862500Y-126307500D03*
D10*
X116262500Y-126307500D03*
D12*
X116262500Y-128307500D03*
%TD*%
D10*
%TO.C,D34*%
X140912500Y-90197500D03*
D11*
X140912500Y-88207500D03*
D10*
X135312500Y-88207500D03*
D12*
X135312500Y-90207500D03*
%TD*%
D10*
%TO.C,D23*%
X83762500Y-109247500D03*
D11*
X83762500Y-107257500D03*
D10*
X78162500Y-107257500D03*
D12*
X78162500Y-109257500D03*
%TD*%
D10*
%TO.C,D25*%
X102812500Y-71147500D03*
D11*
X102812500Y-69157500D03*
D10*
X97212500Y-69157500D03*
D12*
X97212500Y-71157500D03*
%TD*%
D13*
%TO.C,MX20*%
X163452500Y-117157500D03*
X149722500Y-119577500D03*
%TD*%
%TO.C,MX2*%
X87252500Y-79057500D03*
X73522500Y-81477500D03*
%TD*%
%TO.C,MX7*%
X106302500Y-98107500D03*
X92572500Y-100527500D03*
%TD*%
%TO.C,MX1*%
X87252500Y-60007500D03*
X73522500Y-62427500D03*
%TD*%
%TO.C,MX3*%
X87252500Y-98107500D03*
X73522500Y-100527500D03*
%TD*%
%TO.C,MX6*%
X106302500Y-79057500D03*
X92572500Y-81477500D03*
%TD*%
%TO.C,MX17*%
X163452500Y-60007500D03*
X149722500Y-62427500D03*
%TD*%
%TO.C,MX11*%
X125352500Y-98107500D03*
X111622500Y-100527500D03*
%TD*%
%TO.C,MX9*%
X125352500Y-60007500D03*
X111622500Y-62427500D03*
%TD*%
%TO.C,MX16*%
X144402500Y-117157500D03*
X130672500Y-119577500D03*
%TD*%
D10*
%TO.C,D26*%
X102812500Y-90197500D03*
D11*
X102812500Y-88207500D03*
D10*
X97212500Y-88207500D03*
D12*
X97212500Y-90207500D03*
%TD*%
D10*
%TO.C,D38*%
X159962500Y-90197500D03*
D11*
X159962500Y-88207500D03*
D10*
X154362500Y-88207500D03*
D12*
X154362500Y-90207500D03*
%TD*%
D10*
%TO.C,D24*%
X83762500Y-128297500D03*
D11*
X83762500Y-126307500D03*
D10*
X78162500Y-126307500D03*
D12*
X78162500Y-128307500D03*
%TD*%
D10*
%TO.C,D22*%
X83762500Y-90197500D03*
D11*
X83762500Y-88207500D03*
D10*
X78162500Y-88207500D03*
D12*
X78162500Y-90207500D03*
%TD*%
D10*
%TO.C,D36*%
X140912500Y-128297500D03*
D11*
X140912500Y-126307500D03*
D10*
X135312500Y-126307500D03*
D12*
X135312500Y-128307500D03*
%TD*%
D13*
%TO.C,MX19*%
X163452500Y-98107500D03*
X149722500Y-100527500D03*
%TD*%
%TO.C,MX12*%
X125352500Y-117157500D03*
X111622500Y-119577500D03*
%TD*%
D10*
%TO.C,D33*%
X140912500Y-71147500D03*
D11*
X140912500Y-69157500D03*
D10*
X135312500Y-69157500D03*
D12*
X135312500Y-71157500D03*
%TD*%
D13*
%TO.C,MX8*%
X106302500Y-117157500D03*
X92572500Y-119577500D03*
%TD*%
D10*
%TO.C,D39*%
X159962500Y-109247500D03*
D11*
X159962500Y-107257500D03*
D10*
X154362500Y-107257500D03*
D12*
X154362500Y-109257500D03*
%TD*%
D10*
%TO.C,D30*%
X121862500Y-90197500D03*
D11*
X121862500Y-88207500D03*
D10*
X116262500Y-88207500D03*
D12*
X116262500Y-90207500D03*
%TD*%
D13*
%TO.C,MX4*%
X87252500Y-117157500D03*
X73522500Y-119577500D03*
%TD*%
D10*
%TO.C,D27*%
X102812500Y-109247500D03*
D11*
X102812500Y-107257500D03*
D10*
X97212500Y-107257500D03*
D12*
X97212500Y-109257500D03*
%TD*%
D10*
%TO.C,D40*%
X159962500Y-128297500D03*
D11*
X159962500Y-126307500D03*
D10*
X154362500Y-126307500D03*
D12*
X154362500Y-128307500D03*
%TD*%
D13*
%TO.C,MX14*%
X144402500Y-79057500D03*
X130672500Y-81477500D03*
%TD*%
D10*
%TO.C,D29*%
X121862500Y-71147500D03*
D11*
X121862500Y-69157500D03*
D10*
X116262500Y-69157500D03*
D12*
X116262500Y-71157500D03*
%TD*%
D13*
%TO.C,MX13*%
X144402500Y-60007500D03*
X130672500Y-62427500D03*
%TD*%
%TO.C,MX15*%
X144402500Y-98107500D03*
X130672500Y-100527500D03*
%TD*%
D10*
%TO.C,D35*%
X140912500Y-109247500D03*
D11*
X140912500Y-107257500D03*
D10*
X135312500Y-107257500D03*
D12*
X135312500Y-109257500D03*
%TD*%
D10*
%TO.C,D28*%
X102812500Y-128297500D03*
D11*
X102812500Y-126307500D03*
D10*
X97212500Y-126307500D03*
D12*
X97212500Y-128307500D03*
%TD*%
D10*
%TO.C,D31*%
X121862500Y-109247500D03*
D11*
X121862500Y-107257500D03*
D10*
X116262500Y-107257500D03*
D12*
X116262500Y-109257500D03*
%TD*%
D14*
%TO.C,C10*%
X75800000Y-90300000D03*
X73800000Y-90300000D03*
%TD*%
D15*
%TO.C,D42*%
X141450000Y-49100000D03*
X144750000Y-49100000D03*
%TD*%
D16*
%TO.C,R1*%
X79247500Y-43950000D03*
X78052500Y-43950000D03*
%TD*%
D14*
%TO.C,C14*%
X94700000Y-90300000D03*
X92700000Y-90300000D03*
%TD*%
%TO.C,C21*%
X132800000Y-71200000D03*
X130800000Y-71200000D03*
%TD*%
D15*
%TO.C,D43*%
X161650000Y-49200000D03*
X164950000Y-49200000D03*
%TD*%
D14*
%TO.C,C13*%
X94800000Y-71200000D03*
X92800000Y-71200000D03*
%TD*%
D17*
%TO.C,D1*%
X73025000Y-68325000D03*
X73025000Y-65025000D03*
%TD*%
D15*
%TO.C,D8*%
X89631250Y-123031250D03*
X92931250Y-123031250D03*
%TD*%
%TO.C,D17*%
X146781250Y-65881250D03*
X150081250Y-65881250D03*
%TD*%
D14*
%TO.C,C16*%
X94800000Y-128400000D03*
X92800000Y-128400000D03*
%TD*%
%TO.C,C28*%
X151900000Y-128400000D03*
X149900000Y-128400000D03*
%TD*%
D15*
%TO.C,D16*%
X127731250Y-123031250D03*
X131031250Y-123031250D03*
%TD*%
D18*
%TO.C,Y1*%
X162772759Y-34027241D03*
X161217124Y-35582876D03*
X160015043Y-34380795D03*
X161570678Y-32825160D03*
%TD*%
D15*
%TO.C,D7*%
X89631250Y-103981250D03*
X92931250Y-103981250D03*
%TD*%
D19*
%TO.C,C7*%
X98371751Y-37571751D03*
X97028249Y-36228249D03*
%TD*%
D17*
%TO.C,D3*%
X73025000Y-106425000D03*
X73025000Y-103125000D03*
%TD*%
D15*
%TO.C,D12*%
X108681250Y-123031250D03*
X111981250Y-123031250D03*
%TD*%
D20*
%TO.C,C2*%
X121250000Y-46900000D03*
X123150000Y-46900000D03*
%TD*%
D14*
%TO.C,C9*%
X75600000Y-71200000D03*
X73600000Y-71200000D03*
%TD*%
D17*
%TO.C,D41*%
X87400000Y-44850000D03*
X87400000Y-48150000D03*
%TD*%
D15*
%TO.C,D5*%
X89631250Y-65881250D03*
X92931250Y-65881250D03*
%TD*%
D14*
%TO.C,C15*%
X94800000Y-109300000D03*
X92800000Y-109300000D03*
%TD*%
%TO.C,C23*%
X132900000Y-109300000D03*
X130900000Y-109300000D03*
%TD*%
D21*
%TO.C,R7*%
X83602500Y-39900000D03*
X84797500Y-39900000D03*
%TD*%
D14*
%TO.C,C18*%
X113900000Y-90300000D03*
X111900000Y-90300000D03*
%TD*%
%TO.C,C27*%
X152000000Y-109300000D03*
X150000000Y-109300000D03*
%TD*%
%TO.C,C20*%
X113800000Y-128400000D03*
X111800000Y-128400000D03*
%TD*%
D20*
%TO.C,C1*%
X84647500Y-41800000D03*
X86547500Y-41800000D03*
%TD*%
D15*
%TO.C,D18*%
X146781250Y-84931250D03*
X150081250Y-84931250D03*
%TD*%
D17*
%TO.C,D2*%
X73025000Y-87375000D03*
X73025000Y-84075000D03*
%TD*%
D15*
%TO.C,D10*%
X108681250Y-84931250D03*
X111981250Y-84931250D03*
%TD*%
%TO.C,D11*%
X108681250Y-103981250D03*
X111981250Y-103981250D03*
%TD*%
D22*
%TO.C,SW1*%
X132400000Y-47700000D03*
X129400000Y-49700000D03*
%TD*%
D23*
%TO.C,L1*%
X91375000Y-38050000D03*
X88225000Y-38050000D03*
%TD*%
D24*
%TO.C,J1*%
X77747500Y-37925000D03*
X78547500Y-37925000D03*
D25*
X79747500Y-37925000D03*
X80743500Y-37925000D03*
X81247500Y-37925000D03*
X82247500Y-37925000D03*
D24*
X84247500Y-37925000D03*
X83447500Y-37925000D03*
D25*
X82747500Y-37925000D03*
X81747500Y-37925000D03*
X80247500Y-37925000D03*
X79247500Y-37925000D03*
%TD*%
D26*
%TO.C,R2*%
X82750000Y-42352500D03*
X82750000Y-43547500D03*
%TD*%
D14*
%TO.C,C19*%
X113900000Y-109300000D03*
X111900000Y-109300000D03*
%TD*%
%TO.C,C24*%
X132900000Y-128400000D03*
X130900000Y-128400000D03*
%TD*%
D27*
%TO.C,U2*%
X81997500Y-40435000D03*
D28*
X81497500Y-40435000D03*
D29*
X80997500Y-40435000D03*
D28*
X80497500Y-40435000D03*
X79997500Y-40435000D03*
X79997500Y-39665000D03*
X80497500Y-39665000D03*
D29*
X80997500Y-39665000D03*
D28*
X81497500Y-39665000D03*
X81997500Y-39665000D03*
%TD*%
D20*
%TO.C,C8*%
X123500000Y-33750000D03*
X125400000Y-33750000D03*
%TD*%
D15*
%TO.C,D14*%
X127731250Y-84931250D03*
X131031250Y-84931250D03*
%TD*%
D30*
%TO.C,C6*%
X157322150Y-33775769D03*
X158665652Y-32432267D03*
%TD*%
D31*
%TO.C,R4*%
X94354765Y-48795235D03*
X95645235Y-47504765D03*
%TD*%
D14*
%TO.C,C17*%
X113800000Y-71200000D03*
X111800000Y-71200000D03*
%TD*%
D31*
%TO.C,R3*%
X92854765Y-47295235D03*
X94145235Y-46004765D03*
%TD*%
D32*
%TO.C,F1*%
X84647500Y-44025000D03*
X84647500Y-45775000D03*
%TD*%
D15*
%TO.C,D6*%
X89631250Y-84931250D03*
X92931250Y-84931250D03*
%TD*%
D17*
%TO.C,D4*%
X73025000Y-125475000D03*
X73025000Y-122175000D03*
%TD*%
D14*
%TO.C,C25*%
X151900000Y-71200000D03*
X149900000Y-71200000D03*
%TD*%
D33*
%TO.C,C5*%
X163165652Y-36932267D03*
X161822150Y-38275769D03*
%TD*%
D34*
%TO.C,R5*%
X98745235Y-49154765D03*
X97454765Y-50445235D03*
%TD*%
D35*
%TO.C,U1*%
X109938982Y-33172437D03*
X110504667Y-33738123D03*
X111070352Y-34303808D03*
X111636038Y-34869493D03*
X112201723Y-35435179D03*
X112767409Y-36000864D03*
X113333094Y-36566550D03*
X113898780Y-37132235D03*
X114464465Y-37697920D03*
X115030150Y-38263606D03*
X115595836Y-38829291D03*
X116161521Y-39394977D03*
X116727207Y-39960662D03*
X117292892Y-40526348D03*
X117858577Y-41092033D03*
X118424263Y-41657718D03*
D36*
X118424263Y-44061882D03*
X117858577Y-44627567D03*
X117292892Y-45193252D03*
X116727207Y-45758938D03*
X116161521Y-46324623D03*
X115595836Y-46890309D03*
X115030150Y-47455994D03*
X114464465Y-48021680D03*
X113898780Y-48587365D03*
X113333094Y-49153050D03*
X112767409Y-49718736D03*
X112201723Y-50284421D03*
X111636038Y-50850107D03*
X111070352Y-51415792D03*
X110504667Y-51981477D03*
X109938982Y-52547163D03*
D35*
X107534818Y-52547163D03*
X106969133Y-51981477D03*
X106403448Y-51415792D03*
X105837762Y-50850107D03*
X105272077Y-50284421D03*
X104706391Y-49718736D03*
X104140706Y-49153050D03*
X103575020Y-48587365D03*
X103009335Y-48021680D03*
X102443650Y-47455994D03*
X101877964Y-46890309D03*
X101312279Y-46324623D03*
X100746593Y-45758938D03*
X100180908Y-45193252D03*
X99615223Y-44627567D03*
X99049537Y-44061882D03*
D36*
X99049537Y-41657718D03*
X99615223Y-41092033D03*
X100180908Y-40526348D03*
X100746593Y-39960662D03*
X101312279Y-39394977D03*
X101877964Y-38829291D03*
X102443650Y-38263606D03*
X103009335Y-37697920D03*
X103575020Y-37132235D03*
X104140706Y-36566550D03*
X104706391Y-36000864D03*
X105272077Y-35435179D03*
X105837762Y-34869493D03*
X106403448Y-34303808D03*
X106969133Y-33738123D03*
X107534818Y-33172437D03*
%TD*%
D15*
%TO.C,D13*%
X127731250Y-65881250D03*
X131031250Y-65881250D03*
%TD*%
%TO.C,D9*%
X108681250Y-65881250D03*
X111981250Y-65881250D03*
%TD*%
%TO.C,D19*%
X146781250Y-103981250D03*
X150081250Y-103981250D03*
%TD*%
D14*
%TO.C,C12*%
X75700000Y-128400000D03*
X73700000Y-128400000D03*
%TD*%
D30*
%TO.C,C4*%
X118328249Y-34671751D03*
X119671751Y-33328249D03*
%TD*%
D14*
%TO.C,C26*%
X151900000Y-90300000D03*
X149900000Y-90300000D03*
%TD*%
D15*
%TO.C,D20*%
X146781250Y-123031250D03*
X150081250Y-123031250D03*
%TD*%
D14*
%TO.C,C22*%
X132900000Y-90300000D03*
X130900000Y-90300000D03*
%TD*%
D15*
%TO.C,D15*%
X127731250Y-103981250D03*
X131031250Y-103981250D03*
%TD*%
D37*
%TO.C,R6*%
X121273200Y-49415700D03*
X123098200Y-49415700D03*
%TD*%
D30*
%TO.C,C3*%
X116428249Y-32771751D03*
X117771751Y-31428249D03*
%TD*%
D14*
%TO.C,C11*%
X75700000Y-109300000D03*
X73700000Y-109300000D03*
%TD*%
M02*
