M48
; DRILL file {KiCad (6.0.4)} date Wed May 25 20:16:11 2022
; FORMAT={-:-/ absolute / inch / decimal}
; #@! TF.CreationDate,2022-05-25T20:16:11+02:00
; #@! TF.GenerationSoftware,Kicad,Pcbnew,(6.0.4)
; #@! TF.FileFunction,Plated,1,2,PTH
FMAT,2
INCH
; #@! TA.AperFunction,Plated,PTH,ComponentDrill
T1C0.0118
; #@! TA.AperFunction,Plated,PTH,ViaDrill
T2C0.0120
; #@! TA.AperFunction,Plated,PTH,ViaDrill
T3C0.0157
; #@! TA.AperFunction,Plated,PTH,ComponentDrill
T4C0.0236
; #@! TA.AperFunction,Plated,PTH,ComponentDrill
T5C0.0394
; #@! TA.AperFunction,Plated,PTH,ComponentDrill
T6C0.0591
%
G90
G05
T1
X2.8576Y-2.421
X2.8576Y-2.4564
X2.8576Y-2.4918
X2.8576Y-3.171
X2.8576Y-3.2064
X2.8576Y-3.2418
X2.8576Y-3.921
X2.8576Y-3.9564
X2.8576Y-3.9918
X2.8576Y-4.671
X2.8576Y-4.7064
X2.8576Y-4.7418
X2.9277Y-2.4257
X2.9277Y-2.4611
X2.9277Y-2.4966
X2.9277Y-3.1757
X2.9277Y-3.2111
X2.9277Y-3.2466
X2.9277Y-3.9257
X2.9277Y-3.9611
X2.9277Y-3.9966
X2.9277Y-4.6757
X2.9277Y-4.7111
X2.9277Y-4.7466
X3.3981Y-2.3273
X3.3981Y-2.3627
X3.3981Y-2.3981
X3.3981Y-3.0773
X3.3981Y-3.1127
X3.3981Y-3.1481
X3.3981Y-3.8273
X3.3981Y-3.8627
X3.3981Y-3.8981
X3.3981Y-4.5773
X3.3981Y-4.6127
X3.3981Y-4.6481
X3.4729Y-2.3273
X3.4729Y-2.3627
X3.4729Y-2.3981
X3.4729Y-3.0773
X3.4729Y-3.1127
X3.4729Y-3.1481
X3.4729Y-3.8273
X3.4729Y-3.8627
X3.4729Y-3.8981
X3.4729Y-4.5773
X3.4729Y-4.6127
X3.4729Y-4.6481
X3.6076Y-2.421
X3.6076Y-2.4564
X3.6076Y-2.4918
X3.6076Y-3.171
X3.6076Y-3.2064
X3.6076Y-3.2418
X3.6076Y-3.921
X3.6076Y-3.9564
X3.6076Y-3.9918
X3.6076Y-4.671
X3.6076Y-4.7064
X3.6076Y-4.7418
X3.6777Y-2.4257
X3.6777Y-2.4611
X3.6777Y-2.4966
X3.6777Y-3.1757
X3.6777Y-3.2111
X3.6777Y-3.2466
X3.6777Y-3.9257
X3.6777Y-3.9611
X3.6777Y-3.9966
X3.6777Y-4.6757
X3.6777Y-4.7111
X3.6777Y-4.7466
X4.1481Y-2.3273
X4.1481Y-2.3627
X4.1481Y-2.3981
X4.1481Y-3.0773
X4.1481Y-3.1127
X4.1481Y-3.1481
X4.1481Y-3.8273
X4.1481Y-3.8627
X4.1481Y-3.8981
X4.1481Y-4.5773
X4.1481Y-4.6127
X4.1481Y-4.6481
X4.2229Y-2.3273
X4.2229Y-2.3627
X4.2229Y-2.3981
X4.2229Y-3.0773
X4.2229Y-3.1127
X4.2229Y-3.1481
X4.2229Y-3.8273
X4.2229Y-3.8627
X4.2229Y-3.8981
X4.2229Y-4.5773
X4.2229Y-4.6127
X4.2229Y-4.6481
X4.3576Y-2.421
X4.3576Y-2.4564
X4.3576Y-2.4918
X4.3576Y-3.171
X4.3576Y-3.2064
X4.3576Y-3.2418
X4.3576Y-3.921
X4.3576Y-3.9564
X4.3576Y-3.9918
X4.3576Y-4.671
X4.3576Y-4.7064
X4.3576Y-4.7418
X4.4277Y-2.4257
X4.4277Y-2.4611
X4.4277Y-2.4966
X4.4277Y-3.1757
X4.4277Y-3.2111
X4.4277Y-3.2466
X4.4277Y-3.9257
X4.4277Y-3.9611
X4.4277Y-3.9966
X4.4277Y-4.6757
X4.4277Y-4.7111
X4.4277Y-4.7466
X4.8981Y-2.3273
X4.8981Y-2.3627
X4.8981Y-2.3981
X4.8981Y-3.0773
X4.8981Y-3.1127
X4.8981Y-3.1481
X4.8981Y-3.8273
X4.8981Y-3.8627
X4.8981Y-3.8981
X4.8981Y-4.5773
X4.8981Y-4.6127
X4.8981Y-4.6481
X4.9729Y-2.3273
X4.9729Y-2.3627
X4.9729Y-2.3981
X4.9729Y-3.0773
X4.9729Y-3.1127
X4.9729Y-3.1481
X4.9729Y-3.8273
X4.9729Y-3.8627
X4.9729Y-3.8981
X4.9729Y-4.5773
X4.9729Y-4.6127
X4.9729Y-4.6481
X5.1076Y-2.421
X5.1076Y-2.4564
X5.1076Y-2.4918
X5.1076Y-3.171
X5.1076Y-3.2064
X5.1076Y-3.2418
X5.1076Y-3.921
X5.1076Y-3.9564
X5.1076Y-3.9918
X5.1076Y-4.671
X5.1076Y-4.7064
X5.1076Y-4.7418
X5.1777Y-2.4257
X5.1777Y-2.4611
X5.1777Y-2.4966
X5.1777Y-3.1757
X5.1777Y-3.2111
X5.1777Y-3.2466
X5.1777Y-3.9257
X5.1777Y-3.9611
X5.1777Y-3.9966
X5.1777Y-4.6757
X5.1777Y-4.7111
X5.1777Y-4.7466
X5.6481Y-2.3273
X5.6481Y-2.3627
X5.6481Y-2.3981
X5.6481Y-3.0773
X5.6481Y-3.1127
X5.6481Y-3.1481
X5.6481Y-3.8273
X5.6481Y-3.8627
X5.6481Y-3.8981
X5.6481Y-4.5773
X5.6481Y-4.6127
X5.6481Y-4.6481
X5.7229Y-2.3273
X5.7229Y-2.3627
X5.7229Y-2.3981
X5.7229Y-3.0773
X5.7229Y-3.1127
X5.7229Y-3.1481
X5.7229Y-3.8273
X5.7229Y-3.8627
X5.7229Y-3.8981
X5.7229Y-4.5773
X5.7229Y-4.6127
X5.7229Y-4.6481
X5.8576Y-2.421
X5.8576Y-2.4564
X5.8576Y-2.4918
X5.8576Y-3.171
X5.8576Y-3.2064
X5.8576Y-3.2418
X5.8576Y-3.921
X5.8576Y-3.9564
X5.8576Y-3.9918
X5.8576Y-4.671
X5.8576Y-4.7064
X5.8576Y-4.7418
X5.9277Y-2.4257
X5.9277Y-2.4611
X5.9277Y-2.4966
X5.9277Y-3.1757
X5.9277Y-3.2111
X5.9277Y-3.2466
X5.9277Y-3.9257
X5.9277Y-3.9611
X5.9277Y-3.9966
X5.9277Y-4.6757
X5.9277Y-4.7111
X5.9277Y-4.7466
X6.3981Y-2.3273
X6.3981Y-2.3627
X6.3981Y-2.3981
X6.3981Y-3.0773
X6.3981Y-3.1127
X6.3981Y-3.1481
X6.3981Y-3.8273
X6.3981Y-3.8627
X6.3981Y-3.8981
X6.3981Y-4.5773
X6.3981Y-4.6127
X6.3981Y-4.6481
X6.4729Y-2.3273
X6.4729Y-2.3627
X6.4729Y-2.3981
X6.4729Y-3.0773
X6.4729Y-3.1127
X6.4729Y-3.1481
X6.4729Y-3.8273
X6.4729Y-3.8627
X6.4729Y-3.8981
X6.4729Y-4.5773
X6.4729Y-4.6127
X6.4729Y-4.6481
T2
X3.1732Y-1.6831
X3.1732Y-1.7362
X3.1889Y-1.6201
X3.1949Y-1.6496
X3.1949Y-1.7106
T3
X2.8Y-1.4882
X2.8Y-2.0
X2.811Y-4.2205
X2.811Y-4.4055
X2.811Y-4.9685
X2.8189Y-3.4646
X2.8189Y-3.6693
X2.8228Y-2.8976
X3.2Y-2.25
X3.4724Y-1.689
X3.4729Y-2.9208
X3.5276Y-1.9134
X3.5276Y-2.8189
X3.5276Y-3.563
X3.5276Y-4.3189
X3.5315Y-5.1181
X3.5623Y-2.6873
X3.5623Y-2.7811
X3.5623Y-3.4373
X3.5623Y-3.531
X3.5623Y-4.1872
X3.5623Y-4.281
X3.5623Y-4.9372
X3.5623Y-5.0309
X3.6535Y-1.6339
X3.7Y-2.0
X3.7846Y-1.7629
X3.8138Y-1.7922
X4.05Y-2.25
X4.2229Y-2.9213
X4.3122Y-2.6873
X4.3122Y-2.7811
X4.3122Y-3.4373
X4.3122Y-3.531
X4.3122Y-4.1872
X4.3122Y-4.281
X4.3122Y-4.9372
X4.3122Y-5.0309
X4.4823Y-1.3238
X4.4823Y-1.3652
X4.5413Y-1.3701
X4.6693Y-1.4488
X4.6859Y-1.8889
X4.6969Y-1.5157
X4.6969Y-1.563
X4.7126Y-1.4773
X4.7815Y-1.3642
X4.8Y-2.25
X4.815Y-1.8976
X4.9Y-1.4
X4.9729Y-2.9208
X5.0622Y-2.6873
X5.0622Y-2.7811
X5.0622Y-3.4373
X5.0622Y-3.531
X5.0622Y-4.1872
X5.0622Y-4.281
X5.0622Y-4.9372
X5.0622Y-5.0309
X5.4055Y-2.1614
X5.5276Y-1.4646
X5.5312Y-1.9688
X5.55Y-2.25
X5.7229Y-2.9213
X5.8121Y-2.6873
X5.8121Y-2.7811
X5.8121Y-3.4373
X5.8121Y-3.531
X5.8121Y-4.1872
X5.8121Y-4.281
X5.8121Y-4.9372
X5.8121Y-5.0309
X6.1Y-1.4
X6.1Y-2.0
X6.3Y-2.25
X6.3031Y-1.9843
X6.4Y-2.8
X6.4Y-3.55
X6.4Y-4.3
X6.4Y-5.05
X6.4729Y-2.9208
X6.5256Y-3.375
T5
X5.1422Y-1.6203
X5.1422Y-1.7188
X5.1422Y-1.8172
X5.7131Y-1.6203
X5.7131Y-1.8172
X5.8922Y-1.6203
X5.8922Y-1.7188
X5.8922Y-1.8172
X6.4631Y-1.6203
X6.4631Y-1.8172
T4
G00X3.0196Y-1.2854
M15
G01X3.0196Y-1.3091
M16
G05
G00X3.0196Y-1.4409
M15
G01X3.0196Y-1.4843
M16
G05
G00X3.3582Y-1.2854
M15
G01X3.3582Y-1.3091
M16
G05
G00X3.3582Y-1.4409
M15
G01X3.3582Y-1.4843
M16
G05
T6
G00X5.4119Y-1.4983
M15
G01X5.4631Y-1.4983
M16
G05
G00X5.4119Y-1.9392
M15
G01X5.4631Y-1.9392
M16
G05
G00X6.1619Y-1.4983
M15
G01X6.2131Y-1.4983
M16
G05
G00X6.1619Y-1.9392
M15
G01X6.2131Y-1.9392
M16
G05
T0
M30
