%TF.GenerationSoftware,KiCad,Pcbnew,(6.0.4)*%
%TF.CreationDate,2022-05-25T20:16:13+02:00*%
%TF.ProjectId,MacroBoard-rounded,4d616372-6f42-46f6-9172-642d726f756e,rev?*%
%TF.SameCoordinates,Original*%
%TF.FileFunction,Legend,Bot*%
%TF.FilePolarity,Positive*%
%FSLAX46Y46*%
G04 Gerber Fmt 4.6, Leading zero omitted, Abs format (unit mm)*
G04 Created by KiCad (PCBNEW (6.0.4)) date 2022-05-25 20:16:13*
%MOMM*%
%LPD*%
G01*
G04 APERTURE LIST*
%ADD10C,0.150000*%
%ADD11C,0.120000*%
%ADD12C,0.400000*%
G04 APERTURE END LIST*
D10*
%TO.C,D21*%
X77327083Y-68508630D02*
X76708035Y-68508630D01*
X77041369Y-68889583D01*
X76898511Y-68889583D01*
X76803273Y-68937202D01*
X76755654Y-68984821D01*
X76708035Y-69080059D01*
X76708035Y-69318154D01*
X76755654Y-69413392D01*
X76803273Y-69461011D01*
X76898511Y-69508630D01*
X77184226Y-69508630D01*
X77279464Y-69461011D01*
X77327083Y-69413392D01*
X84645535Y-68603869D02*
X84693154Y-68556250D01*
X84788392Y-68508630D01*
X85026488Y-68508630D01*
X85121726Y-68556250D01*
X85169345Y-68603869D01*
X85216964Y-68699107D01*
X85216964Y-68794345D01*
X85169345Y-68937202D01*
X84597916Y-69508630D01*
X85216964Y-69508630D01*
X84645535Y-71889880D02*
X85216964Y-71889880D01*
X84931250Y-71889880D02*
X84931250Y-70889880D01*
X85026488Y-71032738D01*
X85121726Y-71127976D01*
X85216964Y-71175595D01*
X76803273Y-71223214D02*
X76803273Y-71889880D01*
X77041369Y-70842261D02*
X77279464Y-71556547D01*
X76660416Y-71556547D01*
%TO.C,MX10*%
X122689880Y-82375595D02*
X121689880Y-82375595D01*
X122404166Y-82708928D01*
X121689880Y-83042261D01*
X122689880Y-83042261D01*
X121689880Y-83423214D02*
X122689880Y-84089880D01*
X121689880Y-84089880D02*
X122689880Y-83423214D01*
X122689880Y-84994642D02*
X122689880Y-84423214D01*
X122689880Y-84708928D02*
X121689880Y-84708928D01*
X121832738Y-84613690D01*
X121927976Y-84518452D01*
X121975595Y-84423214D01*
X121689880Y-85613690D02*
X121689880Y-85708928D01*
X121737500Y-85804166D01*
X121785119Y-85851785D01*
X121880357Y-85899404D01*
X122070833Y-85947023D01*
X122308928Y-85947023D01*
X122499404Y-85899404D01*
X122594642Y-85851785D01*
X122642261Y-85804166D01*
X122689880Y-85708928D01*
X122689880Y-85613690D01*
X122642261Y-85518452D01*
X122594642Y-85470833D01*
X122499404Y-85423214D01*
X122308928Y-85375595D01*
X122070833Y-85375595D01*
X121880357Y-85423214D01*
X121785119Y-85470833D01*
X121737500Y-85518452D01*
X121689880Y-85613690D01*
%TO.C,D37*%
X160845535Y-71889880D02*
X161416964Y-71889880D01*
X161131250Y-71889880D02*
X161131250Y-70889880D01*
X161226488Y-71032738D01*
X161321726Y-71127976D01*
X161416964Y-71175595D01*
X160845535Y-68603869D02*
X160893154Y-68556250D01*
X160988392Y-68508630D01*
X161226488Y-68508630D01*
X161321726Y-68556250D01*
X161369345Y-68603869D01*
X161416964Y-68699107D01*
X161416964Y-68794345D01*
X161369345Y-68937202D01*
X160797916Y-69508630D01*
X161416964Y-69508630D01*
X153003273Y-71223214D02*
X153003273Y-71889880D01*
X153241369Y-70842261D02*
X153479464Y-71556547D01*
X152860416Y-71556547D01*
X153527083Y-68508630D02*
X152908035Y-68508630D01*
X153241369Y-68889583D01*
X153098511Y-68889583D01*
X153003273Y-68937202D01*
X152955654Y-68984821D01*
X152908035Y-69080059D01*
X152908035Y-69318154D01*
X152955654Y-69413392D01*
X153003273Y-69461011D01*
X153098511Y-69508630D01*
X153384226Y-69508630D01*
X153479464Y-69461011D01*
X153527083Y-69413392D01*
%TO.C,MX18*%
X160789880Y-82375595D02*
X159789880Y-82375595D01*
X160504166Y-82708928D01*
X159789880Y-83042261D01*
X160789880Y-83042261D01*
X159789880Y-83423214D02*
X160789880Y-84089880D01*
X159789880Y-84089880D02*
X160789880Y-83423214D01*
X160789880Y-84994642D02*
X160789880Y-84423214D01*
X160789880Y-84708928D02*
X159789880Y-84708928D01*
X159932738Y-84613690D01*
X160027976Y-84518452D01*
X160075595Y-84423214D01*
X160218452Y-85566071D02*
X160170833Y-85470833D01*
X160123214Y-85423214D01*
X160027976Y-85375595D01*
X159980357Y-85375595D01*
X159885119Y-85423214D01*
X159837500Y-85470833D01*
X159789880Y-85566071D01*
X159789880Y-85756547D01*
X159837500Y-85851785D01*
X159885119Y-85899404D01*
X159980357Y-85947023D01*
X160027976Y-85947023D01*
X160123214Y-85899404D01*
X160170833Y-85851785D01*
X160218452Y-85756547D01*
X160218452Y-85566071D01*
X160266071Y-85470833D01*
X160313690Y-85423214D01*
X160408928Y-85375595D01*
X160599404Y-85375595D01*
X160694642Y-85423214D01*
X160742261Y-85470833D01*
X160789880Y-85566071D01*
X160789880Y-85756547D01*
X160742261Y-85851785D01*
X160694642Y-85899404D01*
X160599404Y-85947023D01*
X160408928Y-85947023D01*
X160313690Y-85899404D01*
X160266071Y-85851785D01*
X160218452Y-85756547D01*
%TO.C,MX5*%
X103639880Y-63801785D02*
X102639880Y-63801785D01*
X103354166Y-64135119D01*
X102639880Y-64468452D01*
X103639880Y-64468452D01*
X102639880Y-64849404D02*
X103639880Y-65516071D01*
X102639880Y-65516071D02*
X103639880Y-64849404D01*
X102639880Y-66373214D02*
X102639880Y-65897023D01*
X103116071Y-65849404D01*
X103068452Y-65897023D01*
X103020833Y-65992261D01*
X103020833Y-66230357D01*
X103068452Y-66325595D01*
X103116071Y-66373214D01*
X103211309Y-66420833D01*
X103449404Y-66420833D01*
X103544642Y-66373214D01*
X103592261Y-66325595D01*
X103639880Y-66230357D01*
X103639880Y-65992261D01*
X103592261Y-65897023D01*
X103544642Y-65849404D01*
%TO.C,D32*%
X122745535Y-125753869D02*
X122793154Y-125706250D01*
X122888392Y-125658630D01*
X123126488Y-125658630D01*
X123221726Y-125706250D01*
X123269345Y-125753869D01*
X123316964Y-125849107D01*
X123316964Y-125944345D01*
X123269345Y-126087202D01*
X122697916Y-126658630D01*
X123316964Y-126658630D01*
X115427083Y-125658630D02*
X114808035Y-125658630D01*
X115141369Y-126039583D01*
X114998511Y-126039583D01*
X114903273Y-126087202D01*
X114855654Y-126134821D01*
X114808035Y-126230059D01*
X114808035Y-126468154D01*
X114855654Y-126563392D01*
X114903273Y-126611011D01*
X114998511Y-126658630D01*
X115284226Y-126658630D01*
X115379464Y-126611011D01*
X115427083Y-126563392D01*
X122745535Y-129039880D02*
X123316964Y-129039880D01*
X123031250Y-129039880D02*
X123031250Y-128039880D01*
X123126488Y-128182738D01*
X123221726Y-128277976D01*
X123316964Y-128325595D01*
X114903273Y-128373214D02*
X114903273Y-129039880D01*
X115141369Y-127992261D02*
X115379464Y-128706547D01*
X114760416Y-128706547D01*
%TO.C,D34*%
X141795535Y-90939880D02*
X142366964Y-90939880D01*
X142081250Y-90939880D02*
X142081250Y-89939880D01*
X142176488Y-90082738D01*
X142271726Y-90177976D01*
X142366964Y-90225595D01*
X134477083Y-87558630D02*
X133858035Y-87558630D01*
X134191369Y-87939583D01*
X134048511Y-87939583D01*
X133953273Y-87987202D01*
X133905654Y-88034821D01*
X133858035Y-88130059D01*
X133858035Y-88368154D01*
X133905654Y-88463392D01*
X133953273Y-88511011D01*
X134048511Y-88558630D01*
X134334226Y-88558630D01*
X134429464Y-88511011D01*
X134477083Y-88463392D01*
X141795535Y-87653869D02*
X141843154Y-87606250D01*
X141938392Y-87558630D01*
X142176488Y-87558630D01*
X142271726Y-87606250D01*
X142319345Y-87653869D01*
X142366964Y-87749107D01*
X142366964Y-87844345D01*
X142319345Y-87987202D01*
X141747916Y-88558630D01*
X142366964Y-88558630D01*
X133953273Y-90273214D02*
X133953273Y-90939880D01*
X134191369Y-89892261D02*
X134429464Y-90606547D01*
X133810416Y-90606547D01*
%TO.C,D23*%
X76803273Y-109323214D02*
X76803273Y-109989880D01*
X77041369Y-108942261D02*
X77279464Y-109656547D01*
X76660416Y-109656547D01*
X84645535Y-109989880D02*
X85216964Y-109989880D01*
X84931250Y-109989880D02*
X84931250Y-108989880D01*
X85026488Y-109132738D01*
X85121726Y-109227976D01*
X85216964Y-109275595D01*
X77327083Y-106608630D02*
X76708035Y-106608630D01*
X77041369Y-106989583D01*
X76898511Y-106989583D01*
X76803273Y-107037202D01*
X76755654Y-107084821D01*
X76708035Y-107180059D01*
X76708035Y-107418154D01*
X76755654Y-107513392D01*
X76803273Y-107561011D01*
X76898511Y-107608630D01*
X77184226Y-107608630D01*
X77279464Y-107561011D01*
X77327083Y-107513392D01*
X84645535Y-106703869D02*
X84693154Y-106656250D01*
X84788392Y-106608630D01*
X85026488Y-106608630D01*
X85121726Y-106656250D01*
X85169345Y-106703869D01*
X85216964Y-106799107D01*
X85216964Y-106894345D01*
X85169345Y-107037202D01*
X84597916Y-107608630D01*
X85216964Y-107608630D01*
%TO.C,D25*%
X96377083Y-68508630D02*
X95758035Y-68508630D01*
X96091369Y-68889583D01*
X95948511Y-68889583D01*
X95853273Y-68937202D01*
X95805654Y-68984821D01*
X95758035Y-69080059D01*
X95758035Y-69318154D01*
X95805654Y-69413392D01*
X95853273Y-69461011D01*
X95948511Y-69508630D01*
X96234226Y-69508630D01*
X96329464Y-69461011D01*
X96377083Y-69413392D01*
X95853273Y-71223214D02*
X95853273Y-71889880D01*
X96091369Y-70842261D02*
X96329464Y-71556547D01*
X95710416Y-71556547D01*
X103695535Y-68603869D02*
X103743154Y-68556250D01*
X103838392Y-68508630D01*
X104076488Y-68508630D01*
X104171726Y-68556250D01*
X104219345Y-68603869D01*
X104266964Y-68699107D01*
X104266964Y-68794345D01*
X104219345Y-68937202D01*
X103647916Y-69508630D01*
X104266964Y-69508630D01*
X103695535Y-71889880D02*
X104266964Y-71889880D01*
X103981250Y-71889880D02*
X103981250Y-70889880D01*
X104076488Y-71032738D01*
X104171726Y-71127976D01*
X104266964Y-71175595D01*
%TO.C,MX20*%
X160789880Y-120475595D02*
X159789880Y-120475595D01*
X160504166Y-120808928D01*
X159789880Y-121142261D01*
X160789880Y-121142261D01*
X159789880Y-121523214D02*
X160789880Y-122189880D01*
X159789880Y-122189880D02*
X160789880Y-121523214D01*
X159885119Y-122523214D02*
X159837500Y-122570833D01*
X159789880Y-122666071D01*
X159789880Y-122904166D01*
X159837500Y-122999404D01*
X159885119Y-123047023D01*
X159980357Y-123094642D01*
X160075595Y-123094642D01*
X160218452Y-123047023D01*
X160789880Y-122475595D01*
X160789880Y-123094642D01*
X159789880Y-123713690D02*
X159789880Y-123808928D01*
X159837500Y-123904166D01*
X159885119Y-123951785D01*
X159980357Y-123999404D01*
X160170833Y-124047023D01*
X160408928Y-124047023D01*
X160599404Y-123999404D01*
X160694642Y-123951785D01*
X160742261Y-123904166D01*
X160789880Y-123808928D01*
X160789880Y-123713690D01*
X160742261Y-123618452D01*
X160694642Y-123570833D01*
X160599404Y-123523214D01*
X160408928Y-123475595D01*
X160170833Y-123475595D01*
X159980357Y-123523214D01*
X159885119Y-123570833D01*
X159837500Y-123618452D01*
X159789880Y-123713690D01*
%TO.C,MX2*%
X84589880Y-82851785D02*
X83589880Y-82851785D01*
X84304166Y-83185119D01*
X83589880Y-83518452D01*
X84589880Y-83518452D01*
X83589880Y-83899404D02*
X84589880Y-84566071D01*
X83589880Y-84566071D02*
X84589880Y-83899404D01*
X83685119Y-84899404D02*
X83637500Y-84947023D01*
X83589880Y-85042261D01*
X83589880Y-85280357D01*
X83637500Y-85375595D01*
X83685119Y-85423214D01*
X83780357Y-85470833D01*
X83875595Y-85470833D01*
X84018452Y-85423214D01*
X84589880Y-84851785D01*
X84589880Y-85470833D01*
%TO.C,MX7*%
X103639880Y-101901785D02*
X102639880Y-101901785D01*
X103354166Y-102235119D01*
X102639880Y-102568452D01*
X103639880Y-102568452D01*
X102639880Y-102949404D02*
X103639880Y-103616071D01*
X102639880Y-103616071D02*
X103639880Y-102949404D01*
X102639880Y-103901785D02*
X102639880Y-104568452D01*
X103639880Y-104139880D01*
%TO.C,MX1*%
X84589880Y-63801785D02*
X83589880Y-63801785D01*
X84304166Y-64135119D01*
X83589880Y-64468452D01*
X84589880Y-64468452D01*
X83589880Y-64849404D02*
X84589880Y-65516071D01*
X83589880Y-65516071D02*
X84589880Y-64849404D01*
X84589880Y-66420833D02*
X84589880Y-65849404D01*
X84589880Y-66135119D02*
X83589880Y-66135119D01*
X83732738Y-66039880D01*
X83827976Y-65944642D01*
X83875595Y-65849404D01*
%TO.C,MX3*%
X84589880Y-101901785D02*
X83589880Y-101901785D01*
X84304166Y-102235119D01*
X83589880Y-102568452D01*
X84589880Y-102568452D01*
X83589880Y-102949404D02*
X84589880Y-103616071D01*
X83589880Y-103616071D02*
X84589880Y-102949404D01*
X83589880Y-103901785D02*
X83589880Y-104520833D01*
X83970833Y-104187500D01*
X83970833Y-104330357D01*
X84018452Y-104425595D01*
X84066071Y-104473214D01*
X84161309Y-104520833D01*
X84399404Y-104520833D01*
X84494642Y-104473214D01*
X84542261Y-104425595D01*
X84589880Y-104330357D01*
X84589880Y-104044642D01*
X84542261Y-103949404D01*
X84494642Y-103901785D01*
%TO.C,MX6*%
X103639880Y-82851785D02*
X102639880Y-82851785D01*
X103354166Y-83185119D01*
X102639880Y-83518452D01*
X103639880Y-83518452D01*
X102639880Y-83899404D02*
X103639880Y-84566071D01*
X102639880Y-84566071D02*
X103639880Y-83899404D01*
X102639880Y-85375595D02*
X102639880Y-85185119D01*
X102687500Y-85089880D01*
X102735119Y-85042261D01*
X102877976Y-84947023D01*
X103068452Y-84899404D01*
X103449404Y-84899404D01*
X103544642Y-84947023D01*
X103592261Y-84994642D01*
X103639880Y-85089880D01*
X103639880Y-85280357D01*
X103592261Y-85375595D01*
X103544642Y-85423214D01*
X103449404Y-85470833D01*
X103211309Y-85470833D01*
X103116071Y-85423214D01*
X103068452Y-85375595D01*
X103020833Y-85280357D01*
X103020833Y-85089880D01*
X103068452Y-84994642D01*
X103116071Y-84947023D01*
X103211309Y-84899404D01*
%TO.C,MX17*%
X160789880Y-63325595D02*
X159789880Y-63325595D01*
X160504166Y-63658928D01*
X159789880Y-63992261D01*
X160789880Y-63992261D01*
X159789880Y-64373214D02*
X160789880Y-65039880D01*
X159789880Y-65039880D02*
X160789880Y-64373214D01*
X160789880Y-65944642D02*
X160789880Y-65373214D01*
X160789880Y-65658928D02*
X159789880Y-65658928D01*
X159932738Y-65563690D01*
X160027976Y-65468452D01*
X160075595Y-65373214D01*
X159789880Y-66277976D02*
X159789880Y-66944642D01*
X160789880Y-66516071D01*
%TO.C,MX11*%
X122689880Y-101425595D02*
X121689880Y-101425595D01*
X122404166Y-101758928D01*
X121689880Y-102092261D01*
X122689880Y-102092261D01*
X121689880Y-102473214D02*
X122689880Y-103139880D01*
X121689880Y-103139880D02*
X122689880Y-102473214D01*
X122689880Y-104044642D02*
X122689880Y-103473214D01*
X122689880Y-103758928D02*
X121689880Y-103758928D01*
X121832738Y-103663690D01*
X121927976Y-103568452D01*
X121975595Y-103473214D01*
X122689880Y-104997023D02*
X122689880Y-104425595D01*
X122689880Y-104711309D02*
X121689880Y-104711309D01*
X121832738Y-104616071D01*
X121927976Y-104520833D01*
X121975595Y-104425595D01*
%TO.C,MX9*%
X122689880Y-63801785D02*
X121689880Y-63801785D01*
X122404166Y-64135119D01*
X121689880Y-64468452D01*
X122689880Y-64468452D01*
X121689880Y-64849404D02*
X122689880Y-65516071D01*
X121689880Y-65516071D02*
X122689880Y-64849404D01*
X122689880Y-65944642D02*
X122689880Y-66135119D01*
X122642261Y-66230357D01*
X122594642Y-66277976D01*
X122451785Y-66373214D01*
X122261309Y-66420833D01*
X121880357Y-66420833D01*
X121785119Y-66373214D01*
X121737500Y-66325595D01*
X121689880Y-66230357D01*
X121689880Y-66039880D01*
X121737500Y-65944642D01*
X121785119Y-65897023D01*
X121880357Y-65849404D01*
X122118452Y-65849404D01*
X122213690Y-65897023D01*
X122261309Y-65944642D01*
X122308928Y-66039880D01*
X122308928Y-66230357D01*
X122261309Y-66325595D01*
X122213690Y-66373214D01*
X122118452Y-66420833D01*
%TO.C,MX16*%
X141739880Y-120475595D02*
X140739880Y-120475595D01*
X141454166Y-120808928D01*
X140739880Y-121142261D01*
X141739880Y-121142261D01*
X140739880Y-121523214D02*
X141739880Y-122189880D01*
X140739880Y-122189880D02*
X141739880Y-121523214D01*
X141739880Y-123094642D02*
X141739880Y-122523214D01*
X141739880Y-122808928D02*
X140739880Y-122808928D01*
X140882738Y-122713690D01*
X140977976Y-122618452D01*
X141025595Y-122523214D01*
X140739880Y-123951785D02*
X140739880Y-123761309D01*
X140787500Y-123666071D01*
X140835119Y-123618452D01*
X140977976Y-123523214D01*
X141168452Y-123475595D01*
X141549404Y-123475595D01*
X141644642Y-123523214D01*
X141692261Y-123570833D01*
X141739880Y-123666071D01*
X141739880Y-123856547D01*
X141692261Y-123951785D01*
X141644642Y-123999404D01*
X141549404Y-124047023D01*
X141311309Y-124047023D01*
X141216071Y-123999404D01*
X141168452Y-123951785D01*
X141120833Y-123856547D01*
X141120833Y-123666071D01*
X141168452Y-123570833D01*
X141216071Y-123523214D01*
X141311309Y-123475595D01*
%TO.C,D26*%
X103695535Y-90939880D02*
X104266964Y-90939880D01*
X103981250Y-90939880D02*
X103981250Y-89939880D01*
X104076488Y-90082738D01*
X104171726Y-90177976D01*
X104266964Y-90225595D01*
X103695535Y-87653869D02*
X103743154Y-87606250D01*
X103838392Y-87558630D01*
X104076488Y-87558630D01*
X104171726Y-87606250D01*
X104219345Y-87653869D01*
X104266964Y-87749107D01*
X104266964Y-87844345D01*
X104219345Y-87987202D01*
X103647916Y-88558630D01*
X104266964Y-88558630D01*
X95853273Y-90273214D02*
X95853273Y-90939880D01*
X96091369Y-89892261D02*
X96329464Y-90606547D01*
X95710416Y-90606547D01*
X96377083Y-87558630D02*
X95758035Y-87558630D01*
X96091369Y-87939583D01*
X95948511Y-87939583D01*
X95853273Y-87987202D01*
X95805654Y-88034821D01*
X95758035Y-88130059D01*
X95758035Y-88368154D01*
X95805654Y-88463392D01*
X95853273Y-88511011D01*
X95948511Y-88558630D01*
X96234226Y-88558630D01*
X96329464Y-88511011D01*
X96377083Y-88463392D01*
%TO.C,D38*%
X153003273Y-90273214D02*
X153003273Y-90939880D01*
X153241369Y-89892261D02*
X153479464Y-90606547D01*
X152860416Y-90606547D01*
X160845535Y-87653869D02*
X160893154Y-87606250D01*
X160988392Y-87558630D01*
X161226488Y-87558630D01*
X161321726Y-87606250D01*
X161369345Y-87653869D01*
X161416964Y-87749107D01*
X161416964Y-87844345D01*
X161369345Y-87987202D01*
X160797916Y-88558630D01*
X161416964Y-88558630D01*
X160845535Y-90939880D02*
X161416964Y-90939880D01*
X161131250Y-90939880D02*
X161131250Y-89939880D01*
X161226488Y-90082738D01*
X161321726Y-90177976D01*
X161416964Y-90225595D01*
X153527083Y-87558630D02*
X152908035Y-87558630D01*
X153241369Y-87939583D01*
X153098511Y-87939583D01*
X153003273Y-87987202D01*
X152955654Y-88034821D01*
X152908035Y-88130059D01*
X152908035Y-88368154D01*
X152955654Y-88463392D01*
X153003273Y-88511011D01*
X153098511Y-88558630D01*
X153384226Y-88558630D01*
X153479464Y-88511011D01*
X153527083Y-88463392D01*
%TO.C,D24*%
X77327083Y-125658630D02*
X76708035Y-125658630D01*
X77041369Y-126039583D01*
X76898511Y-126039583D01*
X76803273Y-126087202D01*
X76755654Y-126134821D01*
X76708035Y-126230059D01*
X76708035Y-126468154D01*
X76755654Y-126563392D01*
X76803273Y-126611011D01*
X76898511Y-126658630D01*
X77184226Y-126658630D01*
X77279464Y-126611011D01*
X77327083Y-126563392D01*
X84645535Y-129039880D02*
X85216964Y-129039880D01*
X84931250Y-129039880D02*
X84931250Y-128039880D01*
X85026488Y-128182738D01*
X85121726Y-128277976D01*
X85216964Y-128325595D01*
X84645535Y-125753869D02*
X84693154Y-125706250D01*
X84788392Y-125658630D01*
X85026488Y-125658630D01*
X85121726Y-125706250D01*
X85169345Y-125753869D01*
X85216964Y-125849107D01*
X85216964Y-125944345D01*
X85169345Y-126087202D01*
X84597916Y-126658630D01*
X85216964Y-126658630D01*
X76803273Y-128373214D02*
X76803273Y-129039880D01*
X77041369Y-127992261D02*
X77279464Y-128706547D01*
X76660416Y-128706547D01*
%TO.C,D22*%
X84645535Y-90939880D02*
X85216964Y-90939880D01*
X84931250Y-90939880D02*
X84931250Y-89939880D01*
X85026488Y-90082738D01*
X85121726Y-90177976D01*
X85216964Y-90225595D01*
X77327083Y-87558630D02*
X76708035Y-87558630D01*
X77041369Y-87939583D01*
X76898511Y-87939583D01*
X76803273Y-87987202D01*
X76755654Y-88034821D01*
X76708035Y-88130059D01*
X76708035Y-88368154D01*
X76755654Y-88463392D01*
X76803273Y-88511011D01*
X76898511Y-88558630D01*
X77184226Y-88558630D01*
X77279464Y-88511011D01*
X77327083Y-88463392D01*
X76803273Y-90273214D02*
X76803273Y-90939880D01*
X77041369Y-89892261D02*
X77279464Y-90606547D01*
X76660416Y-90606547D01*
X84645535Y-87653869D02*
X84693154Y-87606250D01*
X84788392Y-87558630D01*
X85026488Y-87558630D01*
X85121726Y-87606250D01*
X85169345Y-87653869D01*
X85216964Y-87749107D01*
X85216964Y-87844345D01*
X85169345Y-87987202D01*
X84597916Y-88558630D01*
X85216964Y-88558630D01*
%TO.C,D36*%
X141795535Y-125753869D02*
X141843154Y-125706250D01*
X141938392Y-125658630D01*
X142176488Y-125658630D01*
X142271726Y-125706250D01*
X142319345Y-125753869D01*
X142366964Y-125849107D01*
X142366964Y-125944345D01*
X142319345Y-126087202D01*
X141747916Y-126658630D01*
X142366964Y-126658630D01*
X141795535Y-129039880D02*
X142366964Y-129039880D01*
X142081250Y-129039880D02*
X142081250Y-128039880D01*
X142176488Y-128182738D01*
X142271726Y-128277976D01*
X142366964Y-128325595D01*
X133953273Y-128373214D02*
X133953273Y-129039880D01*
X134191369Y-127992261D02*
X134429464Y-128706547D01*
X133810416Y-128706547D01*
X134477083Y-125658630D02*
X133858035Y-125658630D01*
X134191369Y-126039583D01*
X134048511Y-126039583D01*
X133953273Y-126087202D01*
X133905654Y-126134821D01*
X133858035Y-126230059D01*
X133858035Y-126468154D01*
X133905654Y-126563392D01*
X133953273Y-126611011D01*
X134048511Y-126658630D01*
X134334226Y-126658630D01*
X134429464Y-126611011D01*
X134477083Y-126563392D01*
%TO.C,MX19*%
X160789880Y-101425595D02*
X159789880Y-101425595D01*
X160504166Y-101758928D01*
X159789880Y-102092261D01*
X160789880Y-102092261D01*
X159789880Y-102473214D02*
X160789880Y-103139880D01*
X159789880Y-103139880D02*
X160789880Y-102473214D01*
X160789880Y-104044642D02*
X160789880Y-103473214D01*
X160789880Y-103758928D02*
X159789880Y-103758928D01*
X159932738Y-103663690D01*
X160027976Y-103568452D01*
X160075595Y-103473214D01*
X160789880Y-104520833D02*
X160789880Y-104711309D01*
X160742261Y-104806547D01*
X160694642Y-104854166D01*
X160551785Y-104949404D01*
X160361309Y-104997023D01*
X159980357Y-104997023D01*
X159885119Y-104949404D01*
X159837500Y-104901785D01*
X159789880Y-104806547D01*
X159789880Y-104616071D01*
X159837500Y-104520833D01*
X159885119Y-104473214D01*
X159980357Y-104425595D01*
X160218452Y-104425595D01*
X160313690Y-104473214D01*
X160361309Y-104520833D01*
X160408928Y-104616071D01*
X160408928Y-104806547D01*
X160361309Y-104901785D01*
X160313690Y-104949404D01*
X160218452Y-104997023D01*
%TO.C,MX12*%
X122689880Y-120475595D02*
X121689880Y-120475595D01*
X122404166Y-120808928D01*
X121689880Y-121142261D01*
X122689880Y-121142261D01*
X121689880Y-121523214D02*
X122689880Y-122189880D01*
X121689880Y-122189880D02*
X122689880Y-121523214D01*
X122689880Y-123094642D02*
X122689880Y-122523214D01*
X122689880Y-122808928D02*
X121689880Y-122808928D01*
X121832738Y-122713690D01*
X121927976Y-122618452D01*
X121975595Y-122523214D01*
X121785119Y-123475595D02*
X121737500Y-123523214D01*
X121689880Y-123618452D01*
X121689880Y-123856547D01*
X121737500Y-123951785D01*
X121785119Y-123999404D01*
X121880357Y-124047023D01*
X121975595Y-124047023D01*
X122118452Y-123999404D01*
X122689880Y-123427976D01*
X122689880Y-124047023D01*
%TO.C,D33*%
X133953273Y-71223214D02*
X133953273Y-71889880D01*
X134191369Y-70842261D02*
X134429464Y-71556547D01*
X133810416Y-71556547D01*
X141795535Y-71889880D02*
X142366964Y-71889880D01*
X142081250Y-71889880D02*
X142081250Y-70889880D01*
X142176488Y-71032738D01*
X142271726Y-71127976D01*
X142366964Y-71175595D01*
X141795535Y-68603869D02*
X141843154Y-68556250D01*
X141938392Y-68508630D01*
X142176488Y-68508630D01*
X142271726Y-68556250D01*
X142319345Y-68603869D01*
X142366964Y-68699107D01*
X142366964Y-68794345D01*
X142319345Y-68937202D01*
X141747916Y-69508630D01*
X142366964Y-69508630D01*
X134477083Y-68508630D02*
X133858035Y-68508630D01*
X134191369Y-68889583D01*
X134048511Y-68889583D01*
X133953273Y-68937202D01*
X133905654Y-68984821D01*
X133858035Y-69080059D01*
X133858035Y-69318154D01*
X133905654Y-69413392D01*
X133953273Y-69461011D01*
X134048511Y-69508630D01*
X134334226Y-69508630D01*
X134429464Y-69461011D01*
X134477083Y-69413392D01*
%TO.C,MX8*%
X103639880Y-120951785D02*
X102639880Y-120951785D01*
X103354166Y-121285119D01*
X102639880Y-121618452D01*
X103639880Y-121618452D01*
X102639880Y-121999404D02*
X103639880Y-122666071D01*
X102639880Y-122666071D02*
X103639880Y-121999404D01*
X103068452Y-123189880D02*
X103020833Y-123094642D01*
X102973214Y-123047023D01*
X102877976Y-122999404D01*
X102830357Y-122999404D01*
X102735119Y-123047023D01*
X102687500Y-123094642D01*
X102639880Y-123189880D01*
X102639880Y-123380357D01*
X102687500Y-123475595D01*
X102735119Y-123523214D01*
X102830357Y-123570833D01*
X102877976Y-123570833D01*
X102973214Y-123523214D01*
X103020833Y-123475595D01*
X103068452Y-123380357D01*
X103068452Y-123189880D01*
X103116071Y-123094642D01*
X103163690Y-123047023D01*
X103258928Y-122999404D01*
X103449404Y-122999404D01*
X103544642Y-123047023D01*
X103592261Y-123094642D01*
X103639880Y-123189880D01*
X103639880Y-123380357D01*
X103592261Y-123475595D01*
X103544642Y-123523214D01*
X103449404Y-123570833D01*
X103258928Y-123570833D01*
X103163690Y-123523214D01*
X103116071Y-123475595D01*
X103068452Y-123380357D01*
%TO.C,D39*%
X160845535Y-106703869D02*
X160893154Y-106656250D01*
X160988392Y-106608630D01*
X161226488Y-106608630D01*
X161321726Y-106656250D01*
X161369345Y-106703869D01*
X161416964Y-106799107D01*
X161416964Y-106894345D01*
X161369345Y-107037202D01*
X160797916Y-107608630D01*
X161416964Y-107608630D01*
X160845535Y-109989880D02*
X161416964Y-109989880D01*
X161131250Y-109989880D02*
X161131250Y-108989880D01*
X161226488Y-109132738D01*
X161321726Y-109227976D01*
X161416964Y-109275595D01*
X153003273Y-109323214D02*
X153003273Y-109989880D01*
X153241369Y-108942261D02*
X153479464Y-109656547D01*
X152860416Y-109656547D01*
X153527083Y-106608630D02*
X152908035Y-106608630D01*
X153241369Y-106989583D01*
X153098511Y-106989583D01*
X153003273Y-107037202D01*
X152955654Y-107084821D01*
X152908035Y-107180059D01*
X152908035Y-107418154D01*
X152955654Y-107513392D01*
X153003273Y-107561011D01*
X153098511Y-107608630D01*
X153384226Y-107608630D01*
X153479464Y-107561011D01*
X153527083Y-107513392D01*
%TO.C,D30*%
X122745535Y-87653869D02*
X122793154Y-87606250D01*
X122888392Y-87558630D01*
X123126488Y-87558630D01*
X123221726Y-87606250D01*
X123269345Y-87653869D01*
X123316964Y-87749107D01*
X123316964Y-87844345D01*
X123269345Y-87987202D01*
X122697916Y-88558630D01*
X123316964Y-88558630D01*
X114903273Y-90273214D02*
X114903273Y-90939880D01*
X115141369Y-89892261D02*
X115379464Y-90606547D01*
X114760416Y-90606547D01*
X122745535Y-90939880D02*
X123316964Y-90939880D01*
X123031250Y-90939880D02*
X123031250Y-89939880D01*
X123126488Y-90082738D01*
X123221726Y-90177976D01*
X123316964Y-90225595D01*
X115427083Y-87558630D02*
X114808035Y-87558630D01*
X115141369Y-87939583D01*
X114998511Y-87939583D01*
X114903273Y-87987202D01*
X114855654Y-88034821D01*
X114808035Y-88130059D01*
X114808035Y-88368154D01*
X114855654Y-88463392D01*
X114903273Y-88511011D01*
X114998511Y-88558630D01*
X115284226Y-88558630D01*
X115379464Y-88511011D01*
X115427083Y-88463392D01*
%TO.C,MX4*%
X84589880Y-120951785D02*
X83589880Y-120951785D01*
X84304166Y-121285119D01*
X83589880Y-121618452D01*
X84589880Y-121618452D01*
X83589880Y-121999404D02*
X84589880Y-122666071D01*
X83589880Y-122666071D02*
X84589880Y-121999404D01*
X83923214Y-123475595D02*
X84589880Y-123475595D01*
X83542261Y-123237500D02*
X84256547Y-122999404D01*
X84256547Y-123618452D01*
%TO.C,D27*%
X96377083Y-106608630D02*
X95758035Y-106608630D01*
X96091369Y-106989583D01*
X95948511Y-106989583D01*
X95853273Y-107037202D01*
X95805654Y-107084821D01*
X95758035Y-107180059D01*
X95758035Y-107418154D01*
X95805654Y-107513392D01*
X95853273Y-107561011D01*
X95948511Y-107608630D01*
X96234226Y-107608630D01*
X96329464Y-107561011D01*
X96377083Y-107513392D01*
X103695535Y-106703869D02*
X103743154Y-106656250D01*
X103838392Y-106608630D01*
X104076488Y-106608630D01*
X104171726Y-106656250D01*
X104219345Y-106703869D01*
X104266964Y-106799107D01*
X104266964Y-106894345D01*
X104219345Y-107037202D01*
X103647916Y-107608630D01*
X104266964Y-107608630D01*
X95853273Y-109323214D02*
X95853273Y-109989880D01*
X96091369Y-108942261D02*
X96329464Y-109656547D01*
X95710416Y-109656547D01*
X103695535Y-109989880D02*
X104266964Y-109989880D01*
X103981250Y-109989880D02*
X103981250Y-108989880D01*
X104076488Y-109132738D01*
X104171726Y-109227976D01*
X104266964Y-109275595D01*
%TO.C,D40*%
X160845535Y-129039880D02*
X161416964Y-129039880D01*
X161131250Y-129039880D02*
X161131250Y-128039880D01*
X161226488Y-128182738D01*
X161321726Y-128277976D01*
X161416964Y-128325595D01*
X160845535Y-125753869D02*
X160893154Y-125706250D01*
X160988392Y-125658630D01*
X161226488Y-125658630D01*
X161321726Y-125706250D01*
X161369345Y-125753869D01*
X161416964Y-125849107D01*
X161416964Y-125944345D01*
X161369345Y-126087202D01*
X160797916Y-126658630D01*
X161416964Y-126658630D01*
X153003273Y-128373214D02*
X153003273Y-129039880D01*
X153241369Y-127992261D02*
X153479464Y-128706547D01*
X152860416Y-128706547D01*
X153527083Y-125658630D02*
X152908035Y-125658630D01*
X153241369Y-126039583D01*
X153098511Y-126039583D01*
X153003273Y-126087202D01*
X152955654Y-126134821D01*
X152908035Y-126230059D01*
X152908035Y-126468154D01*
X152955654Y-126563392D01*
X153003273Y-126611011D01*
X153098511Y-126658630D01*
X153384226Y-126658630D01*
X153479464Y-126611011D01*
X153527083Y-126563392D01*
%TO.C,MX14*%
X141739880Y-82375595D02*
X140739880Y-82375595D01*
X141454166Y-82708928D01*
X140739880Y-83042261D01*
X141739880Y-83042261D01*
X140739880Y-83423214D02*
X141739880Y-84089880D01*
X140739880Y-84089880D02*
X141739880Y-83423214D01*
X141739880Y-84994642D02*
X141739880Y-84423214D01*
X141739880Y-84708928D02*
X140739880Y-84708928D01*
X140882738Y-84613690D01*
X140977976Y-84518452D01*
X141025595Y-84423214D01*
X141073214Y-85851785D02*
X141739880Y-85851785D01*
X140692261Y-85613690D02*
X141406547Y-85375595D01*
X141406547Y-85994642D01*
%TO.C,D29*%
X115427083Y-68508630D02*
X114808035Y-68508630D01*
X115141369Y-68889583D01*
X114998511Y-68889583D01*
X114903273Y-68937202D01*
X114855654Y-68984821D01*
X114808035Y-69080059D01*
X114808035Y-69318154D01*
X114855654Y-69413392D01*
X114903273Y-69461011D01*
X114998511Y-69508630D01*
X115284226Y-69508630D01*
X115379464Y-69461011D01*
X115427083Y-69413392D01*
X122745535Y-71889880D02*
X123316964Y-71889880D01*
X123031250Y-71889880D02*
X123031250Y-70889880D01*
X123126488Y-71032738D01*
X123221726Y-71127976D01*
X123316964Y-71175595D01*
X114903273Y-71223214D02*
X114903273Y-71889880D01*
X115141369Y-70842261D02*
X115379464Y-71556547D01*
X114760416Y-71556547D01*
X122745535Y-68603869D02*
X122793154Y-68556250D01*
X122888392Y-68508630D01*
X123126488Y-68508630D01*
X123221726Y-68556250D01*
X123269345Y-68603869D01*
X123316964Y-68699107D01*
X123316964Y-68794345D01*
X123269345Y-68937202D01*
X122697916Y-69508630D01*
X123316964Y-69508630D01*
%TO.C,MX13*%
X141739880Y-63325595D02*
X140739880Y-63325595D01*
X141454166Y-63658928D01*
X140739880Y-63992261D01*
X141739880Y-63992261D01*
X140739880Y-64373214D02*
X141739880Y-65039880D01*
X140739880Y-65039880D02*
X141739880Y-64373214D01*
X141739880Y-65944642D02*
X141739880Y-65373214D01*
X141739880Y-65658928D02*
X140739880Y-65658928D01*
X140882738Y-65563690D01*
X140977976Y-65468452D01*
X141025595Y-65373214D01*
X140739880Y-66277976D02*
X140739880Y-66897023D01*
X141120833Y-66563690D01*
X141120833Y-66706547D01*
X141168452Y-66801785D01*
X141216071Y-66849404D01*
X141311309Y-66897023D01*
X141549404Y-66897023D01*
X141644642Y-66849404D01*
X141692261Y-66801785D01*
X141739880Y-66706547D01*
X141739880Y-66420833D01*
X141692261Y-66325595D01*
X141644642Y-66277976D01*
%TO.C,MX15*%
X141739880Y-101425595D02*
X140739880Y-101425595D01*
X141454166Y-101758928D01*
X140739880Y-102092261D01*
X141739880Y-102092261D01*
X140739880Y-102473214D02*
X141739880Y-103139880D01*
X140739880Y-103139880D02*
X141739880Y-102473214D01*
X141739880Y-104044642D02*
X141739880Y-103473214D01*
X141739880Y-103758928D02*
X140739880Y-103758928D01*
X140882738Y-103663690D01*
X140977976Y-103568452D01*
X141025595Y-103473214D01*
X140739880Y-104949404D02*
X140739880Y-104473214D01*
X141216071Y-104425595D01*
X141168452Y-104473214D01*
X141120833Y-104568452D01*
X141120833Y-104806547D01*
X141168452Y-104901785D01*
X141216071Y-104949404D01*
X141311309Y-104997023D01*
X141549404Y-104997023D01*
X141644642Y-104949404D01*
X141692261Y-104901785D01*
X141739880Y-104806547D01*
X141739880Y-104568452D01*
X141692261Y-104473214D01*
X141644642Y-104425595D01*
%TO.C,D35*%
X141795535Y-109989880D02*
X142366964Y-109989880D01*
X142081250Y-109989880D02*
X142081250Y-108989880D01*
X142176488Y-109132738D01*
X142271726Y-109227976D01*
X142366964Y-109275595D01*
X141795535Y-106703869D02*
X141843154Y-106656250D01*
X141938392Y-106608630D01*
X142176488Y-106608630D01*
X142271726Y-106656250D01*
X142319345Y-106703869D01*
X142366964Y-106799107D01*
X142366964Y-106894345D01*
X142319345Y-107037202D01*
X141747916Y-107608630D01*
X142366964Y-107608630D01*
X133953273Y-109323214D02*
X133953273Y-109989880D01*
X134191369Y-108942261D02*
X134429464Y-109656547D01*
X133810416Y-109656547D01*
X134477083Y-106608630D02*
X133858035Y-106608630D01*
X134191369Y-106989583D01*
X134048511Y-106989583D01*
X133953273Y-107037202D01*
X133905654Y-107084821D01*
X133858035Y-107180059D01*
X133858035Y-107418154D01*
X133905654Y-107513392D01*
X133953273Y-107561011D01*
X134048511Y-107608630D01*
X134334226Y-107608630D01*
X134429464Y-107561011D01*
X134477083Y-107513392D01*
%TO.C,D28*%
X96377083Y-125658630D02*
X95758035Y-125658630D01*
X96091369Y-126039583D01*
X95948511Y-126039583D01*
X95853273Y-126087202D01*
X95805654Y-126134821D01*
X95758035Y-126230059D01*
X95758035Y-126468154D01*
X95805654Y-126563392D01*
X95853273Y-126611011D01*
X95948511Y-126658630D01*
X96234226Y-126658630D01*
X96329464Y-126611011D01*
X96377083Y-126563392D01*
X103695535Y-129039880D02*
X104266964Y-129039880D01*
X103981250Y-129039880D02*
X103981250Y-128039880D01*
X104076488Y-128182738D01*
X104171726Y-128277976D01*
X104266964Y-128325595D01*
X95853273Y-128373214D02*
X95853273Y-129039880D01*
X96091369Y-127992261D02*
X96329464Y-128706547D01*
X95710416Y-128706547D01*
X103695535Y-125753869D02*
X103743154Y-125706250D01*
X103838392Y-125658630D01*
X104076488Y-125658630D01*
X104171726Y-125706250D01*
X104219345Y-125753869D01*
X104266964Y-125849107D01*
X104266964Y-125944345D01*
X104219345Y-126087202D01*
X103647916Y-126658630D01*
X104266964Y-126658630D01*
%TO.C,D31*%
X115427083Y-106608630D02*
X114808035Y-106608630D01*
X115141369Y-106989583D01*
X114998511Y-106989583D01*
X114903273Y-107037202D01*
X114855654Y-107084821D01*
X114808035Y-107180059D01*
X114808035Y-107418154D01*
X114855654Y-107513392D01*
X114903273Y-107561011D01*
X114998511Y-107608630D01*
X115284226Y-107608630D01*
X115379464Y-107561011D01*
X115427083Y-107513392D01*
X122745535Y-109989880D02*
X123316964Y-109989880D01*
X123031250Y-109989880D02*
X123031250Y-108989880D01*
X123126488Y-109132738D01*
X123221726Y-109227976D01*
X123316964Y-109275595D01*
X114903273Y-109323214D02*
X114903273Y-109989880D01*
X115141369Y-108942261D02*
X115379464Y-109656547D01*
X114760416Y-109656547D01*
X122745535Y-106703869D02*
X122793154Y-106656250D01*
X122888392Y-106608630D01*
X123126488Y-106608630D01*
X123221726Y-106656250D01*
X123269345Y-106703869D01*
X123316964Y-106799107D01*
X123316964Y-106894345D01*
X123269345Y-107037202D01*
X122697916Y-107608630D01*
X123316964Y-107608630D01*
%TO.C,C10*%
X74792857Y-88757142D02*
X74840476Y-88804761D01*
X74983333Y-88852380D01*
X75078571Y-88852380D01*
X75221428Y-88804761D01*
X75316666Y-88709523D01*
X75364285Y-88614285D01*
X75411904Y-88423809D01*
X75411904Y-88280952D01*
X75364285Y-88090476D01*
X75316666Y-87995238D01*
X75221428Y-87900000D01*
X75078571Y-87852380D01*
X74983333Y-87852380D01*
X74840476Y-87900000D01*
X74792857Y-87947619D01*
X73840476Y-88852380D02*
X74411904Y-88852380D01*
X74126190Y-88852380D02*
X74126190Y-87852380D01*
X74221428Y-87995238D01*
X74316666Y-88090476D01*
X74411904Y-88138095D01*
X73221428Y-87852380D02*
X73126190Y-87852380D01*
X73030952Y-87900000D01*
X72983333Y-87947619D01*
X72935714Y-88042857D01*
X72888095Y-88233333D01*
X72888095Y-88471428D01*
X72935714Y-88661904D01*
X72983333Y-88757142D01*
X73030952Y-88804761D01*
X73126190Y-88852380D01*
X73221428Y-88852380D01*
X73316666Y-88804761D01*
X73364285Y-88757142D01*
X73411904Y-88661904D01*
X73459523Y-88471428D01*
X73459523Y-88233333D01*
X73411904Y-88042857D01*
X73364285Y-87947619D01*
X73316666Y-87900000D01*
X73221428Y-87852380D01*
%TO.C,D42*%
X144283035Y-51577380D02*
X144283035Y-50577380D01*
X144044940Y-50577380D01*
X143902083Y-50625000D01*
X143806845Y-50720238D01*
X143759226Y-50815476D01*
X143711607Y-51005952D01*
X143711607Y-51148809D01*
X143759226Y-51339285D01*
X143806845Y-51434523D01*
X143902083Y-51529761D01*
X144044940Y-51577380D01*
X144283035Y-51577380D01*
X142854464Y-50910714D02*
X142854464Y-51577380D01*
X143092559Y-50529761D02*
X143330654Y-51244047D01*
X142711607Y-51244047D01*
X142378273Y-50672619D02*
X142330654Y-50625000D01*
X142235416Y-50577380D01*
X141997321Y-50577380D01*
X141902083Y-50625000D01*
X141854464Y-50672619D01*
X141806845Y-50767857D01*
X141806845Y-50863095D01*
X141854464Y-51005952D01*
X142425892Y-51577380D01*
X141806845Y-51577380D01*
%TO.C,R1*%
X78816666Y-43232380D02*
X79150000Y-42756190D01*
X79388095Y-43232380D02*
X79388095Y-42232380D01*
X79007142Y-42232380D01*
X78911904Y-42280000D01*
X78864285Y-42327619D01*
X78816666Y-42422857D01*
X78816666Y-42565714D01*
X78864285Y-42660952D01*
X78911904Y-42708571D01*
X79007142Y-42756190D01*
X79388095Y-42756190D01*
X77864285Y-43232380D02*
X78435714Y-43232380D01*
X78150000Y-43232380D02*
X78150000Y-42232380D01*
X78245238Y-42375238D01*
X78340476Y-42470476D01*
X78435714Y-42518095D01*
%TO.C,C14*%
X93692857Y-88757142D02*
X93740476Y-88804761D01*
X93883333Y-88852380D01*
X93978571Y-88852380D01*
X94121428Y-88804761D01*
X94216666Y-88709523D01*
X94264285Y-88614285D01*
X94311904Y-88423809D01*
X94311904Y-88280952D01*
X94264285Y-88090476D01*
X94216666Y-87995238D01*
X94121428Y-87900000D01*
X93978571Y-87852380D01*
X93883333Y-87852380D01*
X93740476Y-87900000D01*
X93692857Y-87947619D01*
X92740476Y-88852380D02*
X93311904Y-88852380D01*
X93026190Y-88852380D02*
X93026190Y-87852380D01*
X93121428Y-87995238D01*
X93216666Y-88090476D01*
X93311904Y-88138095D01*
X91883333Y-88185714D02*
X91883333Y-88852380D01*
X92121428Y-87804761D02*
X92359523Y-88519047D01*
X91740476Y-88519047D01*
%TO.C,C21*%
X131792857Y-69657142D02*
X131840476Y-69704761D01*
X131983333Y-69752380D01*
X132078571Y-69752380D01*
X132221428Y-69704761D01*
X132316666Y-69609523D01*
X132364285Y-69514285D01*
X132411904Y-69323809D01*
X132411904Y-69180952D01*
X132364285Y-68990476D01*
X132316666Y-68895238D01*
X132221428Y-68800000D01*
X132078571Y-68752380D01*
X131983333Y-68752380D01*
X131840476Y-68800000D01*
X131792857Y-68847619D01*
X131411904Y-68847619D02*
X131364285Y-68800000D01*
X131269047Y-68752380D01*
X131030952Y-68752380D01*
X130935714Y-68800000D01*
X130888095Y-68847619D01*
X130840476Y-68942857D01*
X130840476Y-69038095D01*
X130888095Y-69180952D01*
X131459523Y-69752380D01*
X130840476Y-69752380D01*
X129888095Y-69752380D02*
X130459523Y-69752380D01*
X130173809Y-69752380D02*
X130173809Y-68752380D01*
X130269047Y-68895238D01*
X130364285Y-68990476D01*
X130459523Y-69038095D01*
%TO.C,D43*%
X164483035Y-51677380D02*
X164483035Y-50677380D01*
X164244940Y-50677380D01*
X164102083Y-50725000D01*
X164006845Y-50820238D01*
X163959226Y-50915476D01*
X163911607Y-51105952D01*
X163911607Y-51248809D01*
X163959226Y-51439285D01*
X164006845Y-51534523D01*
X164102083Y-51629761D01*
X164244940Y-51677380D01*
X164483035Y-51677380D01*
X163054464Y-51010714D02*
X163054464Y-51677380D01*
X163292559Y-50629761D02*
X163530654Y-51344047D01*
X162911607Y-51344047D01*
X162625892Y-50677380D02*
X162006845Y-50677380D01*
X162340178Y-51058333D01*
X162197321Y-51058333D01*
X162102083Y-51105952D01*
X162054464Y-51153571D01*
X162006845Y-51248809D01*
X162006845Y-51486904D01*
X162054464Y-51582142D01*
X162102083Y-51629761D01*
X162197321Y-51677380D01*
X162483035Y-51677380D01*
X162578273Y-51629761D01*
X162625892Y-51582142D01*
%TO.C,C13*%
X93792857Y-69657142D02*
X93840476Y-69704761D01*
X93983333Y-69752380D01*
X94078571Y-69752380D01*
X94221428Y-69704761D01*
X94316666Y-69609523D01*
X94364285Y-69514285D01*
X94411904Y-69323809D01*
X94411904Y-69180952D01*
X94364285Y-68990476D01*
X94316666Y-68895238D01*
X94221428Y-68800000D01*
X94078571Y-68752380D01*
X93983333Y-68752380D01*
X93840476Y-68800000D01*
X93792857Y-68847619D01*
X92840476Y-69752380D02*
X93411904Y-69752380D01*
X93126190Y-69752380D02*
X93126190Y-68752380D01*
X93221428Y-68895238D01*
X93316666Y-68990476D01*
X93411904Y-69038095D01*
X92507142Y-68752380D02*
X91888095Y-68752380D01*
X92221428Y-69133333D01*
X92078571Y-69133333D01*
X91983333Y-69180952D01*
X91935714Y-69228571D01*
X91888095Y-69323809D01*
X91888095Y-69561904D01*
X91935714Y-69657142D01*
X91983333Y-69704761D01*
X92078571Y-69752380D01*
X92364285Y-69752380D01*
X92459523Y-69704761D01*
X92507142Y-69657142D01*
%TO.C,D1*%
X74597619Y-67444345D02*
X75597619Y-67444345D01*
X75597619Y-67206250D01*
X75550000Y-67063392D01*
X75454761Y-66968154D01*
X75359523Y-66920535D01*
X75169047Y-66872916D01*
X75026190Y-66872916D01*
X74835714Y-66920535D01*
X74740476Y-66968154D01*
X74645238Y-67063392D01*
X74597619Y-67206250D01*
X74597619Y-67444345D01*
X74597619Y-65920535D02*
X74597619Y-66491964D01*
X74597619Y-66206250D02*
X75597619Y-66206250D01*
X75454761Y-66301488D01*
X75359523Y-66396726D01*
X75311904Y-66491964D01*
%TO.C,D8*%
X91988095Y-125508630D02*
X91988095Y-124508630D01*
X91750000Y-124508630D01*
X91607142Y-124556250D01*
X91511904Y-124651488D01*
X91464285Y-124746726D01*
X91416666Y-124937202D01*
X91416666Y-125080059D01*
X91464285Y-125270535D01*
X91511904Y-125365773D01*
X91607142Y-125461011D01*
X91750000Y-125508630D01*
X91988095Y-125508630D01*
X90845238Y-124937202D02*
X90940476Y-124889583D01*
X90988095Y-124841964D01*
X91035714Y-124746726D01*
X91035714Y-124699107D01*
X90988095Y-124603869D01*
X90940476Y-124556250D01*
X90845238Y-124508630D01*
X90654761Y-124508630D01*
X90559523Y-124556250D01*
X90511904Y-124603869D01*
X90464285Y-124699107D01*
X90464285Y-124746726D01*
X90511904Y-124841964D01*
X90559523Y-124889583D01*
X90654761Y-124937202D01*
X90845238Y-124937202D01*
X90940476Y-124984821D01*
X90988095Y-125032440D01*
X91035714Y-125127678D01*
X91035714Y-125318154D01*
X90988095Y-125413392D01*
X90940476Y-125461011D01*
X90845238Y-125508630D01*
X90654761Y-125508630D01*
X90559523Y-125461011D01*
X90511904Y-125413392D01*
X90464285Y-125318154D01*
X90464285Y-125127678D01*
X90511904Y-125032440D01*
X90559523Y-124984821D01*
X90654761Y-124937202D01*
%TO.C,D17*%
X147185714Y-67453869D02*
X147185714Y-68453869D01*
X147423809Y-68453869D01*
X147566666Y-68406250D01*
X147661904Y-68311011D01*
X147709523Y-68215773D01*
X147757142Y-68025297D01*
X147757142Y-67882440D01*
X147709523Y-67691964D01*
X147661904Y-67596726D01*
X147566666Y-67501488D01*
X147423809Y-67453869D01*
X147185714Y-67453869D01*
X148709523Y-67453869D02*
X148138095Y-67453869D01*
X148423809Y-67453869D02*
X148423809Y-68453869D01*
X148328571Y-68311011D01*
X148233333Y-68215773D01*
X148138095Y-68168154D01*
X149042857Y-68453869D02*
X149709523Y-68453869D01*
X149280952Y-67453869D01*
%TO.C,C16*%
X93792857Y-126857142D02*
X93840476Y-126904761D01*
X93983333Y-126952380D01*
X94078571Y-126952380D01*
X94221428Y-126904761D01*
X94316666Y-126809523D01*
X94364285Y-126714285D01*
X94411904Y-126523809D01*
X94411904Y-126380952D01*
X94364285Y-126190476D01*
X94316666Y-126095238D01*
X94221428Y-126000000D01*
X94078571Y-125952380D01*
X93983333Y-125952380D01*
X93840476Y-126000000D01*
X93792857Y-126047619D01*
X92840476Y-126952380D02*
X93411904Y-126952380D01*
X93126190Y-126952380D02*
X93126190Y-125952380D01*
X93221428Y-126095238D01*
X93316666Y-126190476D01*
X93411904Y-126238095D01*
X91983333Y-125952380D02*
X92173809Y-125952380D01*
X92269047Y-126000000D01*
X92316666Y-126047619D01*
X92411904Y-126190476D01*
X92459523Y-126380952D01*
X92459523Y-126761904D01*
X92411904Y-126857142D01*
X92364285Y-126904761D01*
X92269047Y-126952380D01*
X92078571Y-126952380D01*
X91983333Y-126904761D01*
X91935714Y-126857142D01*
X91888095Y-126761904D01*
X91888095Y-126523809D01*
X91935714Y-126428571D01*
X91983333Y-126380952D01*
X92078571Y-126333333D01*
X92269047Y-126333333D01*
X92364285Y-126380952D01*
X92411904Y-126428571D01*
X92459523Y-126523809D01*
%TO.C,C28*%
X150892857Y-126857142D02*
X150940476Y-126904761D01*
X151083333Y-126952380D01*
X151178571Y-126952380D01*
X151321428Y-126904761D01*
X151416666Y-126809523D01*
X151464285Y-126714285D01*
X151511904Y-126523809D01*
X151511904Y-126380952D01*
X151464285Y-126190476D01*
X151416666Y-126095238D01*
X151321428Y-126000000D01*
X151178571Y-125952380D01*
X151083333Y-125952380D01*
X150940476Y-126000000D01*
X150892857Y-126047619D01*
X150511904Y-126047619D02*
X150464285Y-126000000D01*
X150369047Y-125952380D01*
X150130952Y-125952380D01*
X150035714Y-126000000D01*
X149988095Y-126047619D01*
X149940476Y-126142857D01*
X149940476Y-126238095D01*
X149988095Y-126380952D01*
X150559523Y-126952380D01*
X149940476Y-126952380D01*
X149369047Y-126380952D02*
X149464285Y-126333333D01*
X149511904Y-126285714D01*
X149559523Y-126190476D01*
X149559523Y-126142857D01*
X149511904Y-126047619D01*
X149464285Y-126000000D01*
X149369047Y-125952380D01*
X149178571Y-125952380D01*
X149083333Y-126000000D01*
X149035714Y-126047619D01*
X148988095Y-126142857D01*
X148988095Y-126190476D01*
X149035714Y-126285714D01*
X149083333Y-126333333D01*
X149178571Y-126380952D01*
X149369047Y-126380952D01*
X149464285Y-126428571D01*
X149511904Y-126476190D01*
X149559523Y-126571428D01*
X149559523Y-126761904D01*
X149511904Y-126857142D01*
X149464285Y-126904761D01*
X149369047Y-126952380D01*
X149178571Y-126952380D01*
X149083333Y-126904761D01*
X149035714Y-126857142D01*
X148988095Y-126761904D01*
X148988095Y-126571428D01*
X149035714Y-126476190D01*
X149083333Y-126428571D01*
X149178571Y-126380952D01*
%TO.C,D16*%
X130564285Y-125508630D02*
X130564285Y-124508630D01*
X130326190Y-124508630D01*
X130183333Y-124556250D01*
X130088095Y-124651488D01*
X130040476Y-124746726D01*
X129992857Y-124937202D01*
X129992857Y-125080059D01*
X130040476Y-125270535D01*
X130088095Y-125365773D01*
X130183333Y-125461011D01*
X130326190Y-125508630D01*
X130564285Y-125508630D01*
X129040476Y-125508630D02*
X129611904Y-125508630D01*
X129326190Y-125508630D02*
X129326190Y-124508630D01*
X129421428Y-124651488D01*
X129516666Y-124746726D01*
X129611904Y-124794345D01*
X128183333Y-124508630D02*
X128373809Y-124508630D01*
X128469047Y-124556250D01*
X128516666Y-124603869D01*
X128611904Y-124746726D01*
X128659523Y-124937202D01*
X128659523Y-125318154D01*
X128611904Y-125413392D01*
X128564285Y-125461011D01*
X128469047Y-125508630D01*
X128278571Y-125508630D01*
X128183333Y-125461011D01*
X128135714Y-125413392D01*
X128088095Y-125318154D01*
X128088095Y-125080059D01*
X128135714Y-124984821D01*
X128183333Y-124937202D01*
X128278571Y-124889583D01*
X128469047Y-124889583D01*
X128564285Y-124937202D01*
X128611904Y-124984821D01*
X128659523Y-125080059D01*
%TO.C,Y1*%
X159981370Y-32118052D02*
X160318088Y-32454770D01*
X159846683Y-31511961D02*
X159981370Y-32118052D01*
X159375279Y-31983365D01*
X159476294Y-33296563D02*
X159880355Y-32892502D01*
X159678324Y-33094533D02*
X158971218Y-32387426D01*
X159139576Y-32421098D01*
X159274263Y-32421098D01*
X159375279Y-32387426D01*
%TO.C,D7*%
X91988095Y-106458630D02*
X91988095Y-105458630D01*
X91750000Y-105458630D01*
X91607142Y-105506250D01*
X91511904Y-105601488D01*
X91464285Y-105696726D01*
X91416666Y-105887202D01*
X91416666Y-106030059D01*
X91464285Y-106220535D01*
X91511904Y-106315773D01*
X91607142Y-106411011D01*
X91750000Y-106458630D01*
X91988095Y-106458630D01*
X91083333Y-105458630D02*
X90416666Y-105458630D01*
X90845238Y-106458630D01*
%TO.C,C7*%
X99022626Y-35341671D02*
X99022626Y-35274328D01*
X98955282Y-35139641D01*
X98887939Y-35072297D01*
X98753251Y-35004954D01*
X98618564Y-35004954D01*
X98517549Y-35038625D01*
X98349190Y-35139641D01*
X98248175Y-35240656D01*
X98147160Y-35409015D01*
X98113488Y-35510030D01*
X98113488Y-35644717D01*
X98180832Y-35779404D01*
X98248175Y-35846748D01*
X98382862Y-35914091D01*
X98450206Y-35914091D01*
X98618564Y-36217137D02*
X99089969Y-36688541D01*
X99494030Y-35678389D01*
%TO.C,D3*%
X74597619Y-105544345D02*
X75597619Y-105544345D01*
X75597619Y-105306250D01*
X75550000Y-105163392D01*
X75454761Y-105068154D01*
X75359523Y-105020535D01*
X75169047Y-104972916D01*
X75026190Y-104972916D01*
X74835714Y-105020535D01*
X74740476Y-105068154D01*
X74645238Y-105163392D01*
X74597619Y-105306250D01*
X74597619Y-105544345D01*
X75597619Y-104639583D02*
X75597619Y-104020535D01*
X75216666Y-104353869D01*
X75216666Y-104211011D01*
X75169047Y-104115773D01*
X75121428Y-104068154D01*
X75026190Y-104020535D01*
X74788095Y-104020535D01*
X74692857Y-104068154D01*
X74645238Y-104115773D01*
X74597619Y-104211011D01*
X74597619Y-104496726D01*
X74645238Y-104591964D01*
X74692857Y-104639583D01*
%TO.C,D12*%
X111514285Y-125508630D02*
X111514285Y-124508630D01*
X111276190Y-124508630D01*
X111133333Y-124556250D01*
X111038095Y-124651488D01*
X110990476Y-124746726D01*
X110942857Y-124937202D01*
X110942857Y-125080059D01*
X110990476Y-125270535D01*
X111038095Y-125365773D01*
X111133333Y-125461011D01*
X111276190Y-125508630D01*
X111514285Y-125508630D01*
X109990476Y-125508630D02*
X110561904Y-125508630D01*
X110276190Y-125508630D02*
X110276190Y-124508630D01*
X110371428Y-124651488D01*
X110466666Y-124746726D01*
X110561904Y-124794345D01*
X109609523Y-124603869D02*
X109561904Y-124556250D01*
X109466666Y-124508630D01*
X109228571Y-124508630D01*
X109133333Y-124556250D01*
X109085714Y-124603869D01*
X109038095Y-124699107D01*
X109038095Y-124794345D01*
X109085714Y-124937202D01*
X109657142Y-125508630D01*
X109038095Y-125508630D01*
%TO.C,C2*%
X122366666Y-48937142D02*
X122414285Y-48984761D01*
X122557142Y-49032380D01*
X122652380Y-49032380D01*
X122795238Y-48984761D01*
X122890476Y-48889523D01*
X122938095Y-48794285D01*
X122985714Y-48603809D01*
X122985714Y-48460952D01*
X122938095Y-48270476D01*
X122890476Y-48175238D01*
X122795238Y-48080000D01*
X122652380Y-48032380D01*
X122557142Y-48032380D01*
X122414285Y-48080000D01*
X122366666Y-48127619D01*
X121985714Y-48127619D02*
X121938095Y-48080000D01*
X121842857Y-48032380D01*
X121604761Y-48032380D01*
X121509523Y-48080000D01*
X121461904Y-48127619D01*
X121414285Y-48222857D01*
X121414285Y-48318095D01*
X121461904Y-48460952D01*
X122033333Y-49032380D01*
X121414285Y-49032380D01*
%TO.C,C9*%
X74116666Y-69657142D02*
X74164285Y-69704761D01*
X74307142Y-69752380D01*
X74402380Y-69752380D01*
X74545238Y-69704761D01*
X74640476Y-69609523D01*
X74688095Y-69514285D01*
X74735714Y-69323809D01*
X74735714Y-69180952D01*
X74688095Y-68990476D01*
X74640476Y-68895238D01*
X74545238Y-68800000D01*
X74402380Y-68752380D01*
X74307142Y-68752380D01*
X74164285Y-68800000D01*
X74116666Y-68847619D01*
X73640476Y-69752380D02*
X73450000Y-69752380D01*
X73354761Y-69704761D01*
X73307142Y-69657142D01*
X73211904Y-69514285D01*
X73164285Y-69323809D01*
X73164285Y-68942857D01*
X73211904Y-68847619D01*
X73259523Y-68800000D01*
X73354761Y-68752380D01*
X73545238Y-68752380D01*
X73640476Y-68800000D01*
X73688095Y-68847619D01*
X73735714Y-68942857D01*
X73735714Y-69180952D01*
X73688095Y-69276190D01*
X73640476Y-69323809D01*
X73545238Y-69371428D01*
X73354761Y-69371428D01*
X73259523Y-69323809D01*
X73211904Y-69276190D01*
X73164285Y-69180952D01*
%TO.C,D41*%
X85852380Y-45285714D02*
X84852380Y-45285714D01*
X84852380Y-45523809D01*
X84900000Y-45666666D01*
X84995238Y-45761904D01*
X85090476Y-45809523D01*
X85280952Y-45857142D01*
X85423809Y-45857142D01*
X85614285Y-45809523D01*
X85709523Y-45761904D01*
X85804761Y-45666666D01*
X85852380Y-45523809D01*
X85852380Y-45285714D01*
X85185714Y-46714285D02*
X85852380Y-46714285D01*
X84804761Y-46476190D02*
X85519047Y-46238095D01*
X85519047Y-46857142D01*
X85852380Y-47761904D02*
X85852380Y-47190476D01*
X85852380Y-47476190D02*
X84852380Y-47476190D01*
X84995238Y-47380952D01*
X85090476Y-47285714D01*
X85138095Y-47190476D01*
%TO.C,D5*%
X91988095Y-68358630D02*
X91988095Y-67358630D01*
X91750000Y-67358630D01*
X91607142Y-67406250D01*
X91511904Y-67501488D01*
X91464285Y-67596726D01*
X91416666Y-67787202D01*
X91416666Y-67930059D01*
X91464285Y-68120535D01*
X91511904Y-68215773D01*
X91607142Y-68311011D01*
X91750000Y-68358630D01*
X91988095Y-68358630D01*
X90511904Y-67358630D02*
X90988095Y-67358630D01*
X91035714Y-67834821D01*
X90988095Y-67787202D01*
X90892857Y-67739583D01*
X90654761Y-67739583D01*
X90559523Y-67787202D01*
X90511904Y-67834821D01*
X90464285Y-67930059D01*
X90464285Y-68168154D01*
X90511904Y-68263392D01*
X90559523Y-68311011D01*
X90654761Y-68358630D01*
X90892857Y-68358630D01*
X90988095Y-68311011D01*
X91035714Y-68263392D01*
%TO.C,C15*%
X93792857Y-107757142D02*
X93840476Y-107804761D01*
X93983333Y-107852380D01*
X94078571Y-107852380D01*
X94221428Y-107804761D01*
X94316666Y-107709523D01*
X94364285Y-107614285D01*
X94411904Y-107423809D01*
X94411904Y-107280952D01*
X94364285Y-107090476D01*
X94316666Y-106995238D01*
X94221428Y-106900000D01*
X94078571Y-106852380D01*
X93983333Y-106852380D01*
X93840476Y-106900000D01*
X93792857Y-106947619D01*
X92840476Y-107852380D02*
X93411904Y-107852380D01*
X93126190Y-107852380D02*
X93126190Y-106852380D01*
X93221428Y-106995238D01*
X93316666Y-107090476D01*
X93411904Y-107138095D01*
X91935714Y-106852380D02*
X92411904Y-106852380D01*
X92459523Y-107328571D01*
X92411904Y-107280952D01*
X92316666Y-107233333D01*
X92078571Y-107233333D01*
X91983333Y-107280952D01*
X91935714Y-107328571D01*
X91888095Y-107423809D01*
X91888095Y-107661904D01*
X91935714Y-107757142D01*
X91983333Y-107804761D01*
X92078571Y-107852380D01*
X92316666Y-107852380D01*
X92411904Y-107804761D01*
X92459523Y-107757142D01*
%TO.C,C23*%
X131892857Y-107757142D02*
X131940476Y-107804761D01*
X132083333Y-107852380D01*
X132178571Y-107852380D01*
X132321428Y-107804761D01*
X132416666Y-107709523D01*
X132464285Y-107614285D01*
X132511904Y-107423809D01*
X132511904Y-107280952D01*
X132464285Y-107090476D01*
X132416666Y-106995238D01*
X132321428Y-106900000D01*
X132178571Y-106852380D01*
X132083333Y-106852380D01*
X131940476Y-106900000D01*
X131892857Y-106947619D01*
X131511904Y-106947619D02*
X131464285Y-106900000D01*
X131369047Y-106852380D01*
X131130952Y-106852380D01*
X131035714Y-106900000D01*
X130988095Y-106947619D01*
X130940476Y-107042857D01*
X130940476Y-107138095D01*
X130988095Y-107280952D01*
X131559523Y-107852380D01*
X130940476Y-107852380D01*
X130607142Y-106852380D02*
X129988095Y-106852380D01*
X130321428Y-107233333D01*
X130178571Y-107233333D01*
X130083333Y-107280952D01*
X130035714Y-107328571D01*
X129988095Y-107423809D01*
X129988095Y-107661904D01*
X130035714Y-107757142D01*
X130083333Y-107804761D01*
X130178571Y-107852380D01*
X130464285Y-107852380D01*
X130559523Y-107804761D01*
X130607142Y-107757142D01*
%TO.C,R7*%
X84366666Y-41522380D02*
X84700000Y-41046190D01*
X84938095Y-41522380D02*
X84938095Y-40522380D01*
X84557142Y-40522380D01*
X84461904Y-40570000D01*
X84414285Y-40617619D01*
X84366666Y-40712857D01*
X84366666Y-40855714D01*
X84414285Y-40950952D01*
X84461904Y-40998571D01*
X84557142Y-41046190D01*
X84938095Y-41046190D01*
X84033333Y-40522380D02*
X83366666Y-40522380D01*
X83795238Y-41522380D01*
%TO.C,C18*%
X112892857Y-88757142D02*
X112940476Y-88804761D01*
X113083333Y-88852380D01*
X113178571Y-88852380D01*
X113321428Y-88804761D01*
X113416666Y-88709523D01*
X113464285Y-88614285D01*
X113511904Y-88423809D01*
X113511904Y-88280952D01*
X113464285Y-88090476D01*
X113416666Y-87995238D01*
X113321428Y-87900000D01*
X113178571Y-87852380D01*
X113083333Y-87852380D01*
X112940476Y-87900000D01*
X112892857Y-87947619D01*
X111940476Y-88852380D02*
X112511904Y-88852380D01*
X112226190Y-88852380D02*
X112226190Y-87852380D01*
X112321428Y-87995238D01*
X112416666Y-88090476D01*
X112511904Y-88138095D01*
X111369047Y-88280952D02*
X111464285Y-88233333D01*
X111511904Y-88185714D01*
X111559523Y-88090476D01*
X111559523Y-88042857D01*
X111511904Y-87947619D01*
X111464285Y-87900000D01*
X111369047Y-87852380D01*
X111178571Y-87852380D01*
X111083333Y-87900000D01*
X111035714Y-87947619D01*
X110988095Y-88042857D01*
X110988095Y-88090476D01*
X111035714Y-88185714D01*
X111083333Y-88233333D01*
X111178571Y-88280952D01*
X111369047Y-88280952D01*
X111464285Y-88328571D01*
X111511904Y-88376190D01*
X111559523Y-88471428D01*
X111559523Y-88661904D01*
X111511904Y-88757142D01*
X111464285Y-88804761D01*
X111369047Y-88852380D01*
X111178571Y-88852380D01*
X111083333Y-88804761D01*
X111035714Y-88757142D01*
X110988095Y-88661904D01*
X110988095Y-88471428D01*
X111035714Y-88376190D01*
X111083333Y-88328571D01*
X111178571Y-88280952D01*
%TO.C,C27*%
X150992857Y-107757142D02*
X151040476Y-107804761D01*
X151183333Y-107852380D01*
X151278571Y-107852380D01*
X151421428Y-107804761D01*
X151516666Y-107709523D01*
X151564285Y-107614285D01*
X151611904Y-107423809D01*
X151611904Y-107280952D01*
X151564285Y-107090476D01*
X151516666Y-106995238D01*
X151421428Y-106900000D01*
X151278571Y-106852380D01*
X151183333Y-106852380D01*
X151040476Y-106900000D01*
X150992857Y-106947619D01*
X150611904Y-106947619D02*
X150564285Y-106900000D01*
X150469047Y-106852380D01*
X150230952Y-106852380D01*
X150135714Y-106900000D01*
X150088095Y-106947619D01*
X150040476Y-107042857D01*
X150040476Y-107138095D01*
X150088095Y-107280952D01*
X150659523Y-107852380D01*
X150040476Y-107852380D01*
X149707142Y-106852380D02*
X149040476Y-106852380D01*
X149469047Y-107852380D01*
%TO.C,C20*%
X112792857Y-126857142D02*
X112840476Y-126904761D01*
X112983333Y-126952380D01*
X113078571Y-126952380D01*
X113221428Y-126904761D01*
X113316666Y-126809523D01*
X113364285Y-126714285D01*
X113411904Y-126523809D01*
X113411904Y-126380952D01*
X113364285Y-126190476D01*
X113316666Y-126095238D01*
X113221428Y-126000000D01*
X113078571Y-125952380D01*
X112983333Y-125952380D01*
X112840476Y-126000000D01*
X112792857Y-126047619D01*
X112411904Y-126047619D02*
X112364285Y-126000000D01*
X112269047Y-125952380D01*
X112030952Y-125952380D01*
X111935714Y-126000000D01*
X111888095Y-126047619D01*
X111840476Y-126142857D01*
X111840476Y-126238095D01*
X111888095Y-126380952D01*
X112459523Y-126952380D01*
X111840476Y-126952380D01*
X111221428Y-125952380D02*
X111126190Y-125952380D01*
X111030952Y-126000000D01*
X110983333Y-126047619D01*
X110935714Y-126142857D01*
X110888095Y-126333333D01*
X110888095Y-126571428D01*
X110935714Y-126761904D01*
X110983333Y-126857142D01*
X111030952Y-126904761D01*
X111126190Y-126952380D01*
X111221428Y-126952380D01*
X111316666Y-126904761D01*
X111364285Y-126857142D01*
X111411904Y-126761904D01*
X111459523Y-126571428D01*
X111459523Y-126333333D01*
X111411904Y-126142857D01*
X111364285Y-126047619D01*
X111316666Y-126000000D01*
X111221428Y-125952380D01*
%TO.C,C1*%
X85764166Y-43837142D02*
X85811785Y-43884761D01*
X85954642Y-43932380D01*
X86049880Y-43932380D01*
X86192738Y-43884761D01*
X86287976Y-43789523D01*
X86335595Y-43694285D01*
X86383214Y-43503809D01*
X86383214Y-43360952D01*
X86335595Y-43170476D01*
X86287976Y-43075238D01*
X86192738Y-42980000D01*
X86049880Y-42932380D01*
X85954642Y-42932380D01*
X85811785Y-42980000D01*
X85764166Y-43027619D01*
X84811785Y-43932380D02*
X85383214Y-43932380D01*
X85097500Y-43932380D02*
X85097500Y-42932380D01*
X85192738Y-43075238D01*
X85287976Y-43170476D01*
X85383214Y-43218095D01*
%TO.C,D18*%
X149614285Y-87408630D02*
X149614285Y-86408630D01*
X149376190Y-86408630D01*
X149233333Y-86456250D01*
X149138095Y-86551488D01*
X149090476Y-86646726D01*
X149042857Y-86837202D01*
X149042857Y-86980059D01*
X149090476Y-87170535D01*
X149138095Y-87265773D01*
X149233333Y-87361011D01*
X149376190Y-87408630D01*
X149614285Y-87408630D01*
X148090476Y-87408630D02*
X148661904Y-87408630D01*
X148376190Y-87408630D02*
X148376190Y-86408630D01*
X148471428Y-86551488D01*
X148566666Y-86646726D01*
X148661904Y-86694345D01*
X147519047Y-86837202D02*
X147614285Y-86789583D01*
X147661904Y-86741964D01*
X147709523Y-86646726D01*
X147709523Y-86599107D01*
X147661904Y-86503869D01*
X147614285Y-86456250D01*
X147519047Y-86408630D01*
X147328571Y-86408630D01*
X147233333Y-86456250D01*
X147185714Y-86503869D01*
X147138095Y-86599107D01*
X147138095Y-86646726D01*
X147185714Y-86741964D01*
X147233333Y-86789583D01*
X147328571Y-86837202D01*
X147519047Y-86837202D01*
X147614285Y-86884821D01*
X147661904Y-86932440D01*
X147709523Y-87027678D01*
X147709523Y-87218154D01*
X147661904Y-87313392D01*
X147614285Y-87361011D01*
X147519047Y-87408630D01*
X147328571Y-87408630D01*
X147233333Y-87361011D01*
X147185714Y-87313392D01*
X147138095Y-87218154D01*
X147138095Y-87027678D01*
X147185714Y-86932440D01*
X147233333Y-86884821D01*
X147328571Y-86837202D01*
%TO.C,D2*%
X74597619Y-86494345D02*
X75597619Y-86494345D01*
X75597619Y-86256250D01*
X75550000Y-86113392D01*
X75454761Y-86018154D01*
X75359523Y-85970535D01*
X75169047Y-85922916D01*
X75026190Y-85922916D01*
X74835714Y-85970535D01*
X74740476Y-86018154D01*
X74645238Y-86113392D01*
X74597619Y-86256250D01*
X74597619Y-86494345D01*
X75502380Y-85541964D02*
X75550000Y-85494345D01*
X75597619Y-85399107D01*
X75597619Y-85161011D01*
X75550000Y-85065773D01*
X75502380Y-85018154D01*
X75407142Y-84970535D01*
X75311904Y-84970535D01*
X75169047Y-85018154D01*
X74597619Y-85589583D01*
X74597619Y-84970535D01*
%TO.C,D10*%
X111514285Y-87408630D02*
X111514285Y-86408630D01*
X111276190Y-86408630D01*
X111133333Y-86456250D01*
X111038095Y-86551488D01*
X110990476Y-86646726D01*
X110942857Y-86837202D01*
X110942857Y-86980059D01*
X110990476Y-87170535D01*
X111038095Y-87265773D01*
X111133333Y-87361011D01*
X111276190Y-87408630D01*
X111514285Y-87408630D01*
X109990476Y-87408630D02*
X110561904Y-87408630D01*
X110276190Y-87408630D02*
X110276190Y-86408630D01*
X110371428Y-86551488D01*
X110466666Y-86646726D01*
X110561904Y-86694345D01*
X109371428Y-86408630D02*
X109276190Y-86408630D01*
X109180952Y-86456250D01*
X109133333Y-86503869D01*
X109085714Y-86599107D01*
X109038095Y-86789583D01*
X109038095Y-87027678D01*
X109085714Y-87218154D01*
X109133333Y-87313392D01*
X109180952Y-87361011D01*
X109276190Y-87408630D01*
X109371428Y-87408630D01*
X109466666Y-87361011D01*
X109514285Y-87313392D01*
X109561904Y-87218154D01*
X109609523Y-87027678D01*
X109609523Y-86789583D01*
X109561904Y-86599107D01*
X109514285Y-86503869D01*
X109466666Y-86456250D01*
X109371428Y-86408630D01*
%TO.C,D11*%
X111514285Y-106458630D02*
X111514285Y-105458630D01*
X111276190Y-105458630D01*
X111133333Y-105506250D01*
X111038095Y-105601488D01*
X110990476Y-105696726D01*
X110942857Y-105887202D01*
X110942857Y-106030059D01*
X110990476Y-106220535D01*
X111038095Y-106315773D01*
X111133333Y-106411011D01*
X111276190Y-106458630D01*
X111514285Y-106458630D01*
X109990476Y-106458630D02*
X110561904Y-106458630D01*
X110276190Y-106458630D02*
X110276190Y-105458630D01*
X110371428Y-105601488D01*
X110466666Y-105696726D01*
X110561904Y-105744345D01*
X109038095Y-106458630D02*
X109609523Y-106458630D01*
X109323809Y-106458630D02*
X109323809Y-105458630D01*
X109419047Y-105601488D01*
X109514285Y-105696726D01*
X109609523Y-105744345D01*
%TO.C,SW1*%
X133095833Y-44104761D02*
X132952976Y-44152380D01*
X132714880Y-44152380D01*
X132619642Y-44104761D01*
X132572023Y-44057142D01*
X132524404Y-43961904D01*
X132524404Y-43866666D01*
X132572023Y-43771428D01*
X132619642Y-43723809D01*
X132714880Y-43676190D01*
X132905357Y-43628571D01*
X133000595Y-43580952D01*
X133048214Y-43533333D01*
X133095833Y-43438095D01*
X133095833Y-43342857D01*
X133048214Y-43247619D01*
X133000595Y-43200000D01*
X132905357Y-43152380D01*
X132667261Y-43152380D01*
X132524404Y-43200000D01*
X132191071Y-43152380D02*
X131952976Y-44152380D01*
X131762500Y-43438095D01*
X131572023Y-44152380D01*
X131333928Y-43152380D01*
X130429166Y-44152380D02*
X131000595Y-44152380D01*
X130714880Y-44152380D02*
X130714880Y-43152380D01*
X130810119Y-43295238D01*
X130905357Y-43390476D01*
X131000595Y-43438095D01*
%TO.C,L1*%
X89966666Y-36602380D02*
X90442857Y-36602380D01*
X90442857Y-35602380D01*
X89109523Y-36602380D02*
X89680952Y-36602380D01*
X89395238Y-36602380D02*
X89395238Y-35602380D01*
X89490476Y-35745238D01*
X89585714Y-35840476D01*
X89680952Y-35888095D01*
%TO.C,J1*%
X81330833Y-33102380D02*
X81330833Y-33816666D01*
X81378452Y-33959523D01*
X81473690Y-34054761D01*
X81616547Y-34102380D01*
X81711785Y-34102380D01*
X80330833Y-34102380D02*
X80902261Y-34102380D01*
X80616547Y-34102380D02*
X80616547Y-33102380D01*
X80711785Y-33245238D01*
X80807023Y-33340476D01*
X80902261Y-33388095D01*
%TO.C,R2*%
X82032380Y-42783333D02*
X81556190Y-42450000D01*
X82032380Y-42211904D02*
X81032380Y-42211904D01*
X81032380Y-42592857D01*
X81080000Y-42688095D01*
X81127619Y-42735714D01*
X81222857Y-42783333D01*
X81365714Y-42783333D01*
X81460952Y-42735714D01*
X81508571Y-42688095D01*
X81556190Y-42592857D01*
X81556190Y-42211904D01*
X81127619Y-43164285D02*
X81080000Y-43211904D01*
X81032380Y-43307142D01*
X81032380Y-43545238D01*
X81080000Y-43640476D01*
X81127619Y-43688095D01*
X81222857Y-43735714D01*
X81318095Y-43735714D01*
X81460952Y-43688095D01*
X82032380Y-43116666D01*
X82032380Y-43735714D01*
%TO.C,C19*%
X112892857Y-107757142D02*
X112940476Y-107804761D01*
X113083333Y-107852380D01*
X113178571Y-107852380D01*
X113321428Y-107804761D01*
X113416666Y-107709523D01*
X113464285Y-107614285D01*
X113511904Y-107423809D01*
X113511904Y-107280952D01*
X113464285Y-107090476D01*
X113416666Y-106995238D01*
X113321428Y-106900000D01*
X113178571Y-106852380D01*
X113083333Y-106852380D01*
X112940476Y-106900000D01*
X112892857Y-106947619D01*
X111940476Y-107852380D02*
X112511904Y-107852380D01*
X112226190Y-107852380D02*
X112226190Y-106852380D01*
X112321428Y-106995238D01*
X112416666Y-107090476D01*
X112511904Y-107138095D01*
X111464285Y-107852380D02*
X111273809Y-107852380D01*
X111178571Y-107804761D01*
X111130952Y-107757142D01*
X111035714Y-107614285D01*
X110988095Y-107423809D01*
X110988095Y-107042857D01*
X111035714Y-106947619D01*
X111083333Y-106900000D01*
X111178571Y-106852380D01*
X111369047Y-106852380D01*
X111464285Y-106900000D01*
X111511904Y-106947619D01*
X111559523Y-107042857D01*
X111559523Y-107280952D01*
X111511904Y-107376190D01*
X111464285Y-107423809D01*
X111369047Y-107471428D01*
X111178571Y-107471428D01*
X111083333Y-107423809D01*
X111035714Y-107376190D01*
X110988095Y-107280952D01*
%TO.C,C24*%
X131892857Y-126857142D02*
X131940476Y-126904761D01*
X132083333Y-126952380D01*
X132178571Y-126952380D01*
X132321428Y-126904761D01*
X132416666Y-126809523D01*
X132464285Y-126714285D01*
X132511904Y-126523809D01*
X132511904Y-126380952D01*
X132464285Y-126190476D01*
X132416666Y-126095238D01*
X132321428Y-126000000D01*
X132178571Y-125952380D01*
X132083333Y-125952380D01*
X131940476Y-126000000D01*
X131892857Y-126047619D01*
X131511904Y-126047619D02*
X131464285Y-126000000D01*
X131369047Y-125952380D01*
X131130952Y-125952380D01*
X131035714Y-126000000D01*
X130988095Y-126047619D01*
X130940476Y-126142857D01*
X130940476Y-126238095D01*
X130988095Y-126380952D01*
X131559523Y-126952380D01*
X130940476Y-126952380D01*
X130083333Y-126285714D02*
X130083333Y-126952380D01*
X130321428Y-125904761D02*
X130559523Y-126619047D01*
X129940476Y-126619047D01*
%TO.C,U2*%
X81454642Y-40995428D02*
X81454642Y-41481142D01*
X81426071Y-41538285D01*
X81397500Y-41566857D01*
X81340357Y-41595428D01*
X81226071Y-41595428D01*
X81168928Y-41566857D01*
X81140357Y-41538285D01*
X81111785Y-41481142D01*
X81111785Y-40995428D01*
X80854642Y-41052571D02*
X80826071Y-41024000D01*
X80768928Y-40995428D01*
X80626071Y-40995428D01*
X80568928Y-41024000D01*
X80540357Y-41052571D01*
X80511785Y-41109714D01*
X80511785Y-41166857D01*
X80540357Y-41252571D01*
X80883214Y-41595428D01*
X80511785Y-41595428D01*
%TO.C,C8*%
X124616666Y-35787142D02*
X124664285Y-35834761D01*
X124807142Y-35882380D01*
X124902380Y-35882380D01*
X125045238Y-35834761D01*
X125140476Y-35739523D01*
X125188095Y-35644285D01*
X125235714Y-35453809D01*
X125235714Y-35310952D01*
X125188095Y-35120476D01*
X125140476Y-35025238D01*
X125045238Y-34930000D01*
X124902380Y-34882380D01*
X124807142Y-34882380D01*
X124664285Y-34930000D01*
X124616666Y-34977619D01*
X124045238Y-35310952D02*
X124140476Y-35263333D01*
X124188095Y-35215714D01*
X124235714Y-35120476D01*
X124235714Y-35072857D01*
X124188095Y-34977619D01*
X124140476Y-34930000D01*
X124045238Y-34882380D01*
X123854761Y-34882380D01*
X123759523Y-34930000D01*
X123711904Y-34977619D01*
X123664285Y-35072857D01*
X123664285Y-35120476D01*
X123711904Y-35215714D01*
X123759523Y-35263333D01*
X123854761Y-35310952D01*
X124045238Y-35310952D01*
X124140476Y-35358571D01*
X124188095Y-35406190D01*
X124235714Y-35501428D01*
X124235714Y-35691904D01*
X124188095Y-35787142D01*
X124140476Y-35834761D01*
X124045238Y-35882380D01*
X123854761Y-35882380D01*
X123759523Y-35834761D01*
X123711904Y-35787142D01*
X123664285Y-35691904D01*
X123664285Y-35501428D01*
X123711904Y-35406190D01*
X123759523Y-35358571D01*
X123854761Y-35310952D01*
%TO.C,D14*%
X130564285Y-87408630D02*
X130564285Y-86408630D01*
X130326190Y-86408630D01*
X130183333Y-86456250D01*
X130088095Y-86551488D01*
X130040476Y-86646726D01*
X129992857Y-86837202D01*
X129992857Y-86980059D01*
X130040476Y-87170535D01*
X130088095Y-87265773D01*
X130183333Y-87361011D01*
X130326190Y-87408630D01*
X130564285Y-87408630D01*
X129040476Y-87408630D02*
X129611904Y-87408630D01*
X129326190Y-87408630D02*
X129326190Y-86408630D01*
X129421428Y-86551488D01*
X129516666Y-86646726D01*
X129611904Y-86694345D01*
X128183333Y-86741964D02*
X128183333Y-87408630D01*
X128421428Y-86361011D02*
X128659523Y-87075297D01*
X128040476Y-87075297D01*
%TO.C,C6*%
X159552229Y-34426644D02*
X159619572Y-34426644D01*
X159754259Y-34359300D01*
X159821603Y-34291957D01*
X159888946Y-34157269D01*
X159888946Y-34022582D01*
X159855275Y-33921567D01*
X159754259Y-33753208D01*
X159653244Y-33652193D01*
X159484885Y-33551178D01*
X159383870Y-33517506D01*
X159249183Y-33517506D01*
X159114496Y-33584850D01*
X159047152Y-33652193D01*
X158979809Y-33786880D01*
X158979809Y-33854224D01*
X158306374Y-34392972D02*
X158441061Y-34258285D01*
X158542076Y-34224613D01*
X158609420Y-34224613D01*
X158777778Y-34258285D01*
X158946137Y-34359300D01*
X159215511Y-34628674D01*
X159249183Y-34729689D01*
X159249183Y-34797033D01*
X159215511Y-34898048D01*
X159080824Y-35032735D01*
X158979809Y-35066407D01*
X158912465Y-35066407D01*
X158811450Y-35032735D01*
X158643091Y-34864376D01*
X158609420Y-34763361D01*
X158609420Y-34696018D01*
X158643091Y-34595002D01*
X158777778Y-34460315D01*
X158878794Y-34426644D01*
X158946137Y-34426644D01*
X159047152Y-34460315D01*
%TO.C,R4*%
X96604458Y-49518756D02*
X96503443Y-48946336D01*
X97008519Y-49114695D02*
X96301413Y-48407588D01*
X96032038Y-48676962D01*
X95998367Y-48777977D01*
X95998367Y-48845321D01*
X96032038Y-48946336D01*
X96133054Y-49047351D01*
X96234069Y-49081023D01*
X96301413Y-49081023D01*
X96402428Y-49047351D01*
X96671802Y-48777977D01*
X95526962Y-49653443D02*
X95998367Y-50124848D01*
X95425947Y-49215710D02*
X96099382Y-49552428D01*
X95661649Y-49990161D01*
%TO.C,C17*%
X112792857Y-69657142D02*
X112840476Y-69704761D01*
X112983333Y-69752380D01*
X113078571Y-69752380D01*
X113221428Y-69704761D01*
X113316666Y-69609523D01*
X113364285Y-69514285D01*
X113411904Y-69323809D01*
X113411904Y-69180952D01*
X113364285Y-68990476D01*
X113316666Y-68895238D01*
X113221428Y-68800000D01*
X113078571Y-68752380D01*
X112983333Y-68752380D01*
X112840476Y-68800000D01*
X112792857Y-68847619D01*
X111840476Y-69752380D02*
X112411904Y-69752380D01*
X112126190Y-69752380D02*
X112126190Y-68752380D01*
X112221428Y-68895238D01*
X112316666Y-68990476D01*
X112411904Y-69038095D01*
X111507142Y-68752380D02*
X110840476Y-68752380D01*
X111269047Y-69752380D01*
%TO.C,R3*%
X95104458Y-48018756D02*
X95003443Y-47446336D01*
X95508519Y-47614695D02*
X94801413Y-46907588D01*
X94532038Y-47176962D01*
X94498367Y-47277977D01*
X94498367Y-47345321D01*
X94532038Y-47446336D01*
X94633054Y-47547351D01*
X94734069Y-47581023D01*
X94801413Y-47581023D01*
X94902428Y-47547351D01*
X95171802Y-47277977D01*
X94161649Y-47547351D02*
X93723916Y-47985084D01*
X94228993Y-48018756D01*
X94127977Y-48119771D01*
X94094306Y-48220787D01*
X94094306Y-48288130D01*
X94127977Y-48389145D01*
X94296336Y-48557504D01*
X94397351Y-48591176D01*
X94464695Y-48591176D01*
X94565710Y-48557504D01*
X94767741Y-48355474D01*
X94801413Y-48254458D01*
X94801413Y-48187115D01*
%TO.C,F1*%
X83146071Y-44566666D02*
X83146071Y-44233333D01*
X83669880Y-44233333D02*
X82669880Y-44233333D01*
X82669880Y-44709523D01*
X83669880Y-45614285D02*
X83669880Y-45042857D01*
X83669880Y-45328571D02*
X82669880Y-45328571D01*
X82812738Y-45233333D01*
X82907976Y-45138095D01*
X82955595Y-45042857D01*
%TO.C,D6*%
X91988095Y-87408630D02*
X91988095Y-86408630D01*
X91750000Y-86408630D01*
X91607142Y-86456250D01*
X91511904Y-86551488D01*
X91464285Y-86646726D01*
X91416666Y-86837202D01*
X91416666Y-86980059D01*
X91464285Y-87170535D01*
X91511904Y-87265773D01*
X91607142Y-87361011D01*
X91750000Y-87408630D01*
X91988095Y-87408630D01*
X90559523Y-86408630D02*
X90750000Y-86408630D01*
X90845238Y-86456250D01*
X90892857Y-86503869D01*
X90988095Y-86646726D01*
X91035714Y-86837202D01*
X91035714Y-87218154D01*
X90988095Y-87313392D01*
X90940476Y-87361011D01*
X90845238Y-87408630D01*
X90654761Y-87408630D01*
X90559523Y-87361011D01*
X90511904Y-87313392D01*
X90464285Y-87218154D01*
X90464285Y-86980059D01*
X90511904Y-86884821D01*
X90559523Y-86837202D01*
X90654761Y-86789583D01*
X90845238Y-86789583D01*
X90940476Y-86837202D01*
X90988095Y-86884821D01*
X91035714Y-86980059D01*
%TO.C,D4*%
X74597619Y-124594345D02*
X75597619Y-124594345D01*
X75597619Y-124356250D01*
X75550000Y-124213392D01*
X75454761Y-124118154D01*
X75359523Y-124070535D01*
X75169047Y-124022916D01*
X75026190Y-124022916D01*
X74835714Y-124070535D01*
X74740476Y-124118154D01*
X74645238Y-124213392D01*
X74597619Y-124356250D01*
X74597619Y-124594345D01*
X75264285Y-123165773D02*
X74597619Y-123165773D01*
X75645238Y-123403869D02*
X74930952Y-123641964D01*
X74930952Y-123022916D01*
%TO.C,C25*%
X150892857Y-69657142D02*
X150940476Y-69704761D01*
X151083333Y-69752380D01*
X151178571Y-69752380D01*
X151321428Y-69704761D01*
X151416666Y-69609523D01*
X151464285Y-69514285D01*
X151511904Y-69323809D01*
X151511904Y-69180952D01*
X151464285Y-68990476D01*
X151416666Y-68895238D01*
X151321428Y-68800000D01*
X151178571Y-68752380D01*
X151083333Y-68752380D01*
X150940476Y-68800000D01*
X150892857Y-68847619D01*
X150511904Y-68847619D02*
X150464285Y-68800000D01*
X150369047Y-68752380D01*
X150130952Y-68752380D01*
X150035714Y-68800000D01*
X149988095Y-68847619D01*
X149940476Y-68942857D01*
X149940476Y-69038095D01*
X149988095Y-69180952D01*
X150559523Y-69752380D01*
X149940476Y-69752380D01*
X149035714Y-68752380D02*
X149511904Y-68752380D01*
X149559523Y-69228571D01*
X149511904Y-69180952D01*
X149416666Y-69133333D01*
X149178571Y-69133333D01*
X149083333Y-69180952D01*
X149035714Y-69228571D01*
X148988095Y-69323809D01*
X148988095Y-69561904D01*
X149035714Y-69657142D01*
X149083333Y-69704761D01*
X149178571Y-69752380D01*
X149416666Y-69752380D01*
X149511904Y-69704761D01*
X149559523Y-69657142D01*
%TO.C,C5*%
X161676351Y-36550766D02*
X161743694Y-36550766D01*
X161878381Y-36483422D01*
X161945725Y-36416079D01*
X162013068Y-36281391D01*
X162013068Y-36146704D01*
X161979397Y-36045689D01*
X161878381Y-35877330D01*
X161777366Y-35776315D01*
X161609007Y-35675300D01*
X161507992Y-35641628D01*
X161373305Y-35641628D01*
X161238618Y-35708972D01*
X161171274Y-35776315D01*
X161103931Y-35911002D01*
X161103931Y-35978346D01*
X160396824Y-36550766D02*
X160733542Y-36214048D01*
X161103931Y-36517094D01*
X161036587Y-36517094D01*
X160935572Y-36550766D01*
X160767213Y-36719124D01*
X160733542Y-36820140D01*
X160733542Y-36887483D01*
X160767213Y-36988498D01*
X160935572Y-37156857D01*
X161036587Y-37190529D01*
X161103931Y-37190529D01*
X161204946Y-37156857D01*
X161373305Y-36988498D01*
X161406977Y-36887483D01*
X161406977Y-36820140D01*
%TO.C,R5*%
X97371006Y-48835304D02*
X97269991Y-48262884D01*
X97775067Y-48431243D02*
X97067961Y-47724136D01*
X96798586Y-47993510D01*
X96764915Y-48094525D01*
X96764915Y-48161869D01*
X96798586Y-48262884D01*
X96899602Y-48363899D01*
X97000617Y-48397571D01*
X97067961Y-48397571D01*
X97168976Y-48363899D01*
X97438350Y-48094525D01*
X96024136Y-48767961D02*
X96360854Y-48431243D01*
X96731243Y-48734289D01*
X96663899Y-48734289D01*
X96562884Y-48767961D01*
X96394525Y-48936319D01*
X96360854Y-49037335D01*
X96360854Y-49104678D01*
X96394525Y-49205693D01*
X96562884Y-49374052D01*
X96663899Y-49407724D01*
X96731243Y-49407724D01*
X96832258Y-49374052D01*
X97000617Y-49205693D01*
X97034289Y-49104678D01*
X97034289Y-49037335D01*
%TO.C,U1*%
X102206263Y-35251667D02*
X102778683Y-35824087D01*
X102812355Y-35925102D01*
X102812355Y-35992446D01*
X102778683Y-36093461D01*
X102643996Y-36228148D01*
X102542981Y-36261820D01*
X102475637Y-36261820D01*
X102374622Y-36228148D01*
X101802202Y-35655728D01*
X101802202Y-37069942D02*
X102206263Y-36665881D01*
X102004233Y-36867911D02*
X101297126Y-36160805D01*
X101465485Y-36194476D01*
X101600172Y-36194476D01*
X101701187Y-36160805D01*
%TO.C,D13*%
X130564285Y-68358630D02*
X130564285Y-67358630D01*
X130326190Y-67358630D01*
X130183333Y-67406250D01*
X130088095Y-67501488D01*
X130040476Y-67596726D01*
X129992857Y-67787202D01*
X129992857Y-67930059D01*
X130040476Y-68120535D01*
X130088095Y-68215773D01*
X130183333Y-68311011D01*
X130326190Y-68358630D01*
X130564285Y-68358630D01*
X129040476Y-68358630D02*
X129611904Y-68358630D01*
X129326190Y-68358630D02*
X129326190Y-67358630D01*
X129421428Y-67501488D01*
X129516666Y-67596726D01*
X129611904Y-67644345D01*
X128707142Y-67358630D02*
X128088095Y-67358630D01*
X128421428Y-67739583D01*
X128278571Y-67739583D01*
X128183333Y-67787202D01*
X128135714Y-67834821D01*
X128088095Y-67930059D01*
X128088095Y-68168154D01*
X128135714Y-68263392D01*
X128183333Y-68311011D01*
X128278571Y-68358630D01*
X128564285Y-68358630D01*
X128659523Y-68311011D01*
X128707142Y-68263392D01*
%TO.C,D9*%
X111038095Y-68358630D02*
X111038095Y-67358630D01*
X110800000Y-67358630D01*
X110657142Y-67406250D01*
X110561904Y-67501488D01*
X110514285Y-67596726D01*
X110466666Y-67787202D01*
X110466666Y-67930059D01*
X110514285Y-68120535D01*
X110561904Y-68215773D01*
X110657142Y-68311011D01*
X110800000Y-68358630D01*
X111038095Y-68358630D01*
X109990476Y-68358630D02*
X109800000Y-68358630D01*
X109704761Y-68311011D01*
X109657142Y-68263392D01*
X109561904Y-68120535D01*
X109514285Y-67930059D01*
X109514285Y-67549107D01*
X109561904Y-67453869D01*
X109609523Y-67406250D01*
X109704761Y-67358630D01*
X109895238Y-67358630D01*
X109990476Y-67406250D01*
X110038095Y-67453869D01*
X110085714Y-67549107D01*
X110085714Y-67787202D01*
X110038095Y-67882440D01*
X109990476Y-67930059D01*
X109895238Y-67977678D01*
X109704761Y-67977678D01*
X109609523Y-67930059D01*
X109561904Y-67882440D01*
X109514285Y-67787202D01*
%TO.C,D19*%
X149614285Y-106458630D02*
X149614285Y-105458630D01*
X149376190Y-105458630D01*
X149233333Y-105506250D01*
X149138095Y-105601488D01*
X149090476Y-105696726D01*
X149042857Y-105887202D01*
X149042857Y-106030059D01*
X149090476Y-106220535D01*
X149138095Y-106315773D01*
X149233333Y-106411011D01*
X149376190Y-106458630D01*
X149614285Y-106458630D01*
X148090476Y-106458630D02*
X148661904Y-106458630D01*
X148376190Y-106458630D02*
X148376190Y-105458630D01*
X148471428Y-105601488D01*
X148566666Y-105696726D01*
X148661904Y-105744345D01*
X147614285Y-106458630D02*
X147423809Y-106458630D01*
X147328571Y-106411011D01*
X147280952Y-106363392D01*
X147185714Y-106220535D01*
X147138095Y-106030059D01*
X147138095Y-105649107D01*
X147185714Y-105553869D01*
X147233333Y-105506250D01*
X147328571Y-105458630D01*
X147519047Y-105458630D01*
X147614285Y-105506250D01*
X147661904Y-105553869D01*
X147709523Y-105649107D01*
X147709523Y-105887202D01*
X147661904Y-105982440D01*
X147614285Y-106030059D01*
X147519047Y-106077678D01*
X147328571Y-106077678D01*
X147233333Y-106030059D01*
X147185714Y-105982440D01*
X147138095Y-105887202D01*
%TO.C,C12*%
X74692857Y-126857142D02*
X74740476Y-126904761D01*
X74883333Y-126952380D01*
X74978571Y-126952380D01*
X75121428Y-126904761D01*
X75216666Y-126809523D01*
X75264285Y-126714285D01*
X75311904Y-126523809D01*
X75311904Y-126380952D01*
X75264285Y-126190476D01*
X75216666Y-126095238D01*
X75121428Y-126000000D01*
X74978571Y-125952380D01*
X74883333Y-125952380D01*
X74740476Y-126000000D01*
X74692857Y-126047619D01*
X73740476Y-126952380D02*
X74311904Y-126952380D01*
X74026190Y-126952380D02*
X74026190Y-125952380D01*
X74121428Y-126095238D01*
X74216666Y-126190476D01*
X74311904Y-126238095D01*
X73359523Y-126047619D02*
X73311904Y-126000000D01*
X73216666Y-125952380D01*
X72978571Y-125952380D01*
X72883333Y-126000000D01*
X72835714Y-126047619D01*
X72788095Y-126142857D01*
X72788095Y-126238095D01*
X72835714Y-126380952D01*
X73407142Y-126952380D01*
X72788095Y-126952380D01*
%TO.C,C4*%
X120558328Y-35322626D02*
X120625671Y-35322626D01*
X120760358Y-35255282D01*
X120827702Y-35187939D01*
X120895045Y-35053251D01*
X120895045Y-34918564D01*
X120861374Y-34817549D01*
X120760358Y-34649190D01*
X120659343Y-34548175D01*
X120490984Y-34447160D01*
X120389969Y-34413488D01*
X120255282Y-34413488D01*
X120120595Y-34480832D01*
X120053251Y-34548175D01*
X119985908Y-34682862D01*
X119985908Y-34750206D01*
X119548175Y-35524656D02*
X120019580Y-35996061D01*
X119447160Y-35086923D02*
X120120595Y-35423641D01*
X119682862Y-35861374D01*
%TO.C,C26*%
X150892857Y-88757142D02*
X150940476Y-88804761D01*
X151083333Y-88852380D01*
X151178571Y-88852380D01*
X151321428Y-88804761D01*
X151416666Y-88709523D01*
X151464285Y-88614285D01*
X151511904Y-88423809D01*
X151511904Y-88280952D01*
X151464285Y-88090476D01*
X151416666Y-87995238D01*
X151321428Y-87900000D01*
X151178571Y-87852380D01*
X151083333Y-87852380D01*
X150940476Y-87900000D01*
X150892857Y-87947619D01*
X150511904Y-87947619D02*
X150464285Y-87900000D01*
X150369047Y-87852380D01*
X150130952Y-87852380D01*
X150035714Y-87900000D01*
X149988095Y-87947619D01*
X149940476Y-88042857D01*
X149940476Y-88138095D01*
X149988095Y-88280952D01*
X150559523Y-88852380D01*
X149940476Y-88852380D01*
X149083333Y-87852380D02*
X149273809Y-87852380D01*
X149369047Y-87900000D01*
X149416666Y-87947619D01*
X149511904Y-88090476D01*
X149559523Y-88280952D01*
X149559523Y-88661904D01*
X149511904Y-88757142D01*
X149464285Y-88804761D01*
X149369047Y-88852380D01*
X149178571Y-88852380D01*
X149083333Y-88804761D01*
X149035714Y-88757142D01*
X148988095Y-88661904D01*
X148988095Y-88423809D01*
X149035714Y-88328571D01*
X149083333Y-88280952D01*
X149178571Y-88233333D01*
X149369047Y-88233333D01*
X149464285Y-88280952D01*
X149511904Y-88328571D01*
X149559523Y-88423809D01*
%TO.C,D20*%
X149614285Y-125508630D02*
X149614285Y-124508630D01*
X149376190Y-124508630D01*
X149233333Y-124556250D01*
X149138095Y-124651488D01*
X149090476Y-124746726D01*
X149042857Y-124937202D01*
X149042857Y-125080059D01*
X149090476Y-125270535D01*
X149138095Y-125365773D01*
X149233333Y-125461011D01*
X149376190Y-125508630D01*
X149614285Y-125508630D01*
X148661904Y-124603869D02*
X148614285Y-124556250D01*
X148519047Y-124508630D01*
X148280952Y-124508630D01*
X148185714Y-124556250D01*
X148138095Y-124603869D01*
X148090476Y-124699107D01*
X148090476Y-124794345D01*
X148138095Y-124937202D01*
X148709523Y-125508630D01*
X148090476Y-125508630D01*
X147471428Y-124508630D02*
X147376190Y-124508630D01*
X147280952Y-124556250D01*
X147233333Y-124603869D01*
X147185714Y-124699107D01*
X147138095Y-124889583D01*
X147138095Y-125127678D01*
X147185714Y-125318154D01*
X147233333Y-125413392D01*
X147280952Y-125461011D01*
X147376190Y-125508630D01*
X147471428Y-125508630D01*
X147566666Y-125461011D01*
X147614285Y-125413392D01*
X147661904Y-125318154D01*
X147709523Y-125127678D01*
X147709523Y-124889583D01*
X147661904Y-124699107D01*
X147614285Y-124603869D01*
X147566666Y-124556250D01*
X147471428Y-124508630D01*
%TO.C,C22*%
X131892857Y-88757142D02*
X131940476Y-88804761D01*
X132083333Y-88852380D01*
X132178571Y-88852380D01*
X132321428Y-88804761D01*
X132416666Y-88709523D01*
X132464285Y-88614285D01*
X132511904Y-88423809D01*
X132511904Y-88280952D01*
X132464285Y-88090476D01*
X132416666Y-87995238D01*
X132321428Y-87900000D01*
X132178571Y-87852380D01*
X132083333Y-87852380D01*
X131940476Y-87900000D01*
X131892857Y-87947619D01*
X131511904Y-87947619D02*
X131464285Y-87900000D01*
X131369047Y-87852380D01*
X131130952Y-87852380D01*
X131035714Y-87900000D01*
X130988095Y-87947619D01*
X130940476Y-88042857D01*
X130940476Y-88138095D01*
X130988095Y-88280952D01*
X131559523Y-88852380D01*
X130940476Y-88852380D01*
X130559523Y-87947619D02*
X130511904Y-87900000D01*
X130416666Y-87852380D01*
X130178571Y-87852380D01*
X130083333Y-87900000D01*
X130035714Y-87947619D01*
X129988095Y-88042857D01*
X129988095Y-88138095D01*
X130035714Y-88280952D01*
X130607142Y-88852380D01*
X129988095Y-88852380D01*
%TO.C,D15*%
X130564285Y-106458630D02*
X130564285Y-105458630D01*
X130326190Y-105458630D01*
X130183333Y-105506250D01*
X130088095Y-105601488D01*
X130040476Y-105696726D01*
X129992857Y-105887202D01*
X129992857Y-106030059D01*
X130040476Y-106220535D01*
X130088095Y-106315773D01*
X130183333Y-106411011D01*
X130326190Y-106458630D01*
X130564285Y-106458630D01*
X129040476Y-106458630D02*
X129611904Y-106458630D01*
X129326190Y-106458630D02*
X129326190Y-105458630D01*
X129421428Y-105601488D01*
X129516666Y-105696726D01*
X129611904Y-105744345D01*
X128135714Y-105458630D02*
X128611904Y-105458630D01*
X128659523Y-105934821D01*
X128611904Y-105887202D01*
X128516666Y-105839583D01*
X128278571Y-105839583D01*
X128183333Y-105887202D01*
X128135714Y-105934821D01*
X128088095Y-106030059D01*
X128088095Y-106268154D01*
X128135714Y-106363392D01*
X128183333Y-106411011D01*
X128278571Y-106458630D01*
X128516666Y-106458630D01*
X128611904Y-106411011D01*
X128659523Y-106363392D01*
%TO.C,R6*%
X122352366Y-51518080D02*
X122685700Y-51041890D01*
X122923795Y-51518080D02*
X122923795Y-50518080D01*
X122542842Y-50518080D01*
X122447604Y-50565700D01*
X122399985Y-50613319D01*
X122352366Y-50708557D01*
X122352366Y-50851414D01*
X122399985Y-50946652D01*
X122447604Y-50994271D01*
X122542842Y-51041890D01*
X122923795Y-51041890D01*
X121495223Y-50518080D02*
X121685700Y-50518080D01*
X121780938Y-50565700D01*
X121828557Y-50613319D01*
X121923795Y-50756176D01*
X121971414Y-50946652D01*
X121971414Y-51327604D01*
X121923795Y-51422842D01*
X121876176Y-51470461D01*
X121780938Y-51518080D01*
X121590461Y-51518080D01*
X121495223Y-51470461D01*
X121447604Y-51422842D01*
X121399985Y-51327604D01*
X121399985Y-51089509D01*
X121447604Y-50994271D01*
X121495223Y-50946652D01*
X121590461Y-50899033D01*
X121780938Y-50899033D01*
X121876176Y-50946652D01*
X121923795Y-50994271D01*
X121971414Y-51089509D01*
%TO.C,C3*%
X118658328Y-33422626D02*
X118725671Y-33422626D01*
X118860358Y-33355282D01*
X118927702Y-33287939D01*
X118995045Y-33153251D01*
X118995045Y-33018564D01*
X118961374Y-32917549D01*
X118860358Y-32749190D01*
X118759343Y-32648175D01*
X118590984Y-32547160D01*
X118489969Y-32513488D01*
X118355282Y-32513488D01*
X118220595Y-32580832D01*
X118153251Y-32648175D01*
X118085908Y-32782862D01*
X118085908Y-32850206D01*
X117782862Y-33018564D02*
X117345129Y-33456297D01*
X117850206Y-33489969D01*
X117749190Y-33590984D01*
X117715519Y-33692000D01*
X117715519Y-33759343D01*
X117749190Y-33860358D01*
X117917549Y-34028717D01*
X118018564Y-34062389D01*
X118085908Y-34062389D01*
X118186923Y-34028717D01*
X118388954Y-33826687D01*
X118422626Y-33725671D01*
X118422626Y-33658328D01*
%TO.C,C11*%
X74692857Y-107757142D02*
X74740476Y-107804761D01*
X74883333Y-107852380D01*
X74978571Y-107852380D01*
X75121428Y-107804761D01*
X75216666Y-107709523D01*
X75264285Y-107614285D01*
X75311904Y-107423809D01*
X75311904Y-107280952D01*
X75264285Y-107090476D01*
X75216666Y-106995238D01*
X75121428Y-106900000D01*
X74978571Y-106852380D01*
X74883333Y-106852380D01*
X74740476Y-106900000D01*
X74692857Y-106947619D01*
X73740476Y-107852380D02*
X74311904Y-107852380D01*
X74026190Y-107852380D02*
X74026190Y-106852380D01*
X74121428Y-106995238D01*
X74216666Y-107090476D01*
X74311904Y-107138095D01*
X72788095Y-107852380D02*
X73359523Y-107852380D01*
X73073809Y-107852380D02*
X73073809Y-106852380D01*
X73169047Y-106995238D01*
X73264285Y-107090476D01*
X73359523Y-107138095D01*
%TO.C,MX10*%
X119062500Y-81597500D02*
X124142500Y-81597500D01*
X112712500Y-79692500D02*
X112712500Y-80073500D01*
X114871500Y-83502500D02*
X116662500Y-83502501D01*
X124142500Y-77533500D02*
X124142500Y-77152500D01*
X112712500Y-83121500D02*
X112712500Y-83502500D01*
X124142500Y-77152500D02*
X115252500Y-77152500D01*
X124142500Y-81597500D02*
X124142500Y-80581500D01*
X112712500Y-83502500D02*
X113093500Y-83502500D01*
X119064065Y-81597499D02*
G75*
G03*
X116662502Y-83471363I-1565J-2473861D01*
G01*
X115252500Y-77152500D02*
G75*
G03*
X112712500Y-79692500I1J-2540001D01*
G01*
%TO.C,MX18*%
X162242500Y-81597500D02*
X162242500Y-80581500D01*
X152971500Y-83502500D02*
X154762500Y-83502501D01*
X162242500Y-77533500D02*
X162242500Y-77152500D01*
X150812500Y-79692500D02*
X150812500Y-80073500D01*
X150812500Y-83121500D02*
X150812500Y-83502500D01*
X162242500Y-77152500D02*
X153352500Y-77152500D01*
X150812500Y-83502500D02*
X151193500Y-83502500D01*
X157162500Y-81597500D02*
X162242500Y-81597500D01*
X157164065Y-81597499D02*
G75*
G03*
X154762502Y-83471363I-1565J-2473861D01*
G01*
X153352500Y-77152500D02*
G75*
G03*
X150812500Y-79692500I1J-2540001D01*
G01*
%TO.C,MX5*%
X100012500Y-62547500D02*
X105092500Y-62547500D01*
X105092500Y-58102500D02*
X96202500Y-58102500D01*
X105092500Y-62547500D02*
X105092500Y-61531500D01*
X93662500Y-64452500D02*
X94043500Y-64452500D01*
X93662500Y-64071500D02*
X93662500Y-64452500D01*
X95821500Y-64452500D02*
X97612500Y-64452501D01*
X93662500Y-60642500D02*
X93662500Y-61023500D01*
X105092500Y-58483500D02*
X105092500Y-58102500D01*
X100014065Y-62547499D02*
G75*
G03*
X97612502Y-64421363I-1565J-2473861D01*
G01*
X96202500Y-58102500D02*
G75*
G03*
X93662500Y-60642500I1J-2540001D01*
G01*
%TO.C,MX20*%
X152971500Y-121602500D02*
X154762500Y-121602501D01*
X150812500Y-121602500D02*
X151193500Y-121602500D01*
X150812500Y-121221500D02*
X150812500Y-121602500D01*
X162242500Y-115633500D02*
X162242500Y-115252500D01*
X157162500Y-119697500D02*
X162242500Y-119697500D01*
X162242500Y-119697500D02*
X162242500Y-118681500D01*
X150812500Y-117792500D02*
X150812500Y-118173500D01*
X162242500Y-115252500D02*
X153352500Y-115252500D01*
X157164065Y-119697499D02*
G75*
G03*
X154762502Y-121571363I-1565J-2473861D01*
G01*
X153352500Y-115252500D02*
G75*
G03*
X150812500Y-117792500I1J-2540001D01*
G01*
%TO.C,MX2*%
X80962500Y-81597500D02*
X86042500Y-81597500D01*
X74612500Y-83502500D02*
X74993500Y-83502500D01*
X74612500Y-83121500D02*
X74612500Y-83502500D01*
X86042500Y-81597500D02*
X86042500Y-80581500D01*
X74612500Y-79692500D02*
X74612500Y-80073500D01*
X76771500Y-83502500D02*
X78562500Y-83502501D01*
X86042500Y-77533500D02*
X86042500Y-77152500D01*
X86042500Y-77152500D02*
X77152500Y-77152500D01*
X80964065Y-81597499D02*
G75*
G03*
X78562502Y-83471363I-1565J-2473861D01*
G01*
X77152500Y-77152500D02*
G75*
G03*
X74612500Y-79692500I1J-2540001D01*
G01*
%TO.C,MX7*%
X105092500Y-96202500D02*
X96202500Y-96202500D01*
X93662500Y-102171500D02*
X93662500Y-102552500D01*
X105092500Y-100647500D02*
X105092500Y-99631500D01*
X93662500Y-102552500D02*
X94043500Y-102552500D01*
X95821500Y-102552500D02*
X97612500Y-102552501D01*
X105092500Y-96583500D02*
X105092500Y-96202500D01*
X100012500Y-100647500D02*
X105092500Y-100647500D01*
X93662500Y-98742500D02*
X93662500Y-99123500D01*
X100014065Y-100647499D02*
G75*
G03*
X97612502Y-102521363I-1565J-2473861D01*
G01*
X96202500Y-96202500D02*
G75*
G03*
X93662500Y-98742500I1J-2540001D01*
G01*
%TO.C,MX1*%
X76771500Y-64452500D02*
X78562500Y-64452501D01*
X86042500Y-62547500D02*
X86042500Y-61531500D01*
X74612500Y-60642500D02*
X74612500Y-61023500D01*
X86042500Y-58483500D02*
X86042500Y-58102500D01*
X74612500Y-64071500D02*
X74612500Y-64452500D01*
X74612500Y-64452500D02*
X74993500Y-64452500D01*
X80962500Y-62547500D02*
X86042500Y-62547500D01*
X86042500Y-58102500D02*
X77152500Y-58102500D01*
X80964065Y-62547499D02*
G75*
G03*
X78562502Y-64421363I-1565J-2473861D01*
G01*
X77152500Y-58102500D02*
G75*
G03*
X74612500Y-60642500I1J-2540001D01*
G01*
%TO.C,MX3*%
X86042500Y-100647500D02*
X86042500Y-99631500D01*
X76771500Y-102552500D02*
X78562500Y-102552501D01*
X80962500Y-100647500D02*
X86042500Y-100647500D01*
X74612500Y-98742500D02*
X74612500Y-99123500D01*
X86042500Y-96583500D02*
X86042500Y-96202500D01*
X74612500Y-102552500D02*
X74993500Y-102552500D01*
X74612500Y-102171500D02*
X74612500Y-102552500D01*
X86042500Y-96202500D02*
X77152500Y-96202500D01*
X80964065Y-100647499D02*
G75*
G03*
X78562502Y-102521363I-1565J-2473861D01*
G01*
X77152500Y-96202500D02*
G75*
G03*
X74612500Y-98742500I1J-2540001D01*
G01*
%TO.C,MX6*%
X105092500Y-77533500D02*
X105092500Y-77152500D01*
X93662500Y-79692500D02*
X93662500Y-80073500D01*
X95821500Y-83502500D02*
X97612500Y-83502501D01*
X93662500Y-83502500D02*
X94043500Y-83502500D01*
X105092500Y-81597500D02*
X105092500Y-80581500D01*
X93662500Y-83121500D02*
X93662500Y-83502500D01*
X100012500Y-81597500D02*
X105092500Y-81597500D01*
X105092500Y-77152500D02*
X96202500Y-77152500D01*
X100014065Y-81597499D02*
G75*
G03*
X97612502Y-83471363I-1565J-2473861D01*
G01*
X96202500Y-77152500D02*
G75*
G03*
X93662500Y-79692500I1J-2540001D01*
G01*
%TO.C,MX17*%
X162242500Y-62547500D02*
X162242500Y-61531500D01*
X150812500Y-64071500D02*
X150812500Y-64452500D01*
X157162500Y-62547500D02*
X162242500Y-62547500D01*
X152971500Y-64452500D02*
X154762500Y-64452501D01*
X162242500Y-58102500D02*
X153352500Y-58102500D01*
X150812500Y-64452500D02*
X151193500Y-64452500D01*
X150812500Y-60642500D02*
X150812500Y-61023500D01*
X162242500Y-58483500D02*
X162242500Y-58102500D01*
X153352500Y-58102500D02*
G75*
G03*
X150812500Y-60642500I1J-2540001D01*
G01*
X157164065Y-62547499D02*
G75*
G03*
X154762502Y-64421363I-1565J-2473861D01*
G01*
%TO.C,MX11*%
X112712500Y-98742500D02*
X112712500Y-99123500D01*
X124142500Y-96202500D02*
X115252500Y-96202500D01*
X112712500Y-102171500D02*
X112712500Y-102552500D01*
X124142500Y-96583500D02*
X124142500Y-96202500D01*
X112712500Y-102552500D02*
X113093500Y-102552500D01*
X119062500Y-100647500D02*
X124142500Y-100647500D01*
X114871500Y-102552500D02*
X116662500Y-102552501D01*
X124142500Y-100647500D02*
X124142500Y-99631500D01*
X119064065Y-100647499D02*
G75*
G03*
X116662502Y-102521363I-1565J-2473861D01*
G01*
X115252500Y-96202500D02*
G75*
G03*
X112712500Y-98742500I1J-2540001D01*
G01*
%TO.C,MX9*%
X114871500Y-64452500D02*
X116662500Y-64452501D01*
X124142500Y-58483500D02*
X124142500Y-58102500D01*
X112712500Y-64071500D02*
X112712500Y-64452500D01*
X112712500Y-64452500D02*
X113093500Y-64452500D01*
X112712500Y-60642500D02*
X112712500Y-61023500D01*
X124142500Y-58102500D02*
X115252500Y-58102500D01*
X124142500Y-62547500D02*
X124142500Y-61531500D01*
X119062500Y-62547500D02*
X124142500Y-62547500D01*
X119064065Y-62547499D02*
G75*
G03*
X116662502Y-64421363I-1565J-2473861D01*
G01*
X115252500Y-58102500D02*
G75*
G03*
X112712500Y-60642500I1J-2540001D01*
G01*
%TO.C,MX16*%
X131762500Y-121602500D02*
X132143500Y-121602500D01*
X138112500Y-119697500D02*
X143192500Y-119697500D01*
X131762500Y-121221500D02*
X131762500Y-121602500D01*
X143192500Y-115633500D02*
X143192500Y-115252500D01*
X131762500Y-117792500D02*
X131762500Y-118173500D01*
X143192500Y-115252500D02*
X134302500Y-115252500D01*
X143192500Y-119697500D02*
X143192500Y-118681500D01*
X133921500Y-121602500D02*
X135712500Y-121602501D01*
X138114065Y-119697499D02*
G75*
G03*
X135712502Y-121571363I-1565J-2473861D01*
G01*
X134302500Y-115252500D02*
G75*
G03*
X131762500Y-117792500I1J-2540001D01*
G01*
%TO.C,MX19*%
X157162500Y-100647500D02*
X162242500Y-100647500D01*
X162242500Y-96583500D02*
X162242500Y-96202500D01*
X150812500Y-102552500D02*
X151193500Y-102552500D01*
X150812500Y-98742500D02*
X150812500Y-99123500D01*
X162242500Y-96202500D02*
X153352500Y-96202500D01*
X152971500Y-102552500D02*
X154762500Y-102552501D01*
X150812500Y-102171500D02*
X150812500Y-102552500D01*
X162242500Y-100647500D02*
X162242500Y-99631500D01*
X153352500Y-96202500D02*
G75*
G03*
X150812500Y-98742500I1J-2540001D01*
G01*
X157164065Y-100647499D02*
G75*
G03*
X154762502Y-102521363I-1565J-2473861D01*
G01*
%TO.C,MX12*%
X119062500Y-119697500D02*
X124142500Y-119697500D01*
X112712500Y-121221500D02*
X112712500Y-121602500D01*
X124142500Y-119697500D02*
X124142500Y-118681500D01*
X112712500Y-117792500D02*
X112712500Y-118173500D01*
X124142500Y-115633500D02*
X124142500Y-115252500D01*
X112712500Y-121602500D02*
X113093500Y-121602500D01*
X114871500Y-121602500D02*
X116662500Y-121602501D01*
X124142500Y-115252500D02*
X115252500Y-115252500D01*
X119064065Y-119697499D02*
G75*
G03*
X116662502Y-121571363I-1565J-2473861D01*
G01*
X115252500Y-115252500D02*
G75*
G03*
X112712500Y-117792500I1J-2540001D01*
G01*
%TO.C,MX8*%
X100012500Y-119697500D02*
X105092500Y-119697500D01*
X105092500Y-115252500D02*
X96202500Y-115252500D01*
X93662500Y-121221500D02*
X93662500Y-121602500D01*
X93662500Y-121602500D02*
X94043500Y-121602500D01*
X105092500Y-115633500D02*
X105092500Y-115252500D01*
X95821500Y-121602500D02*
X97612500Y-121602501D01*
X93662500Y-117792500D02*
X93662500Y-118173500D01*
X105092500Y-119697500D02*
X105092500Y-118681500D01*
X96202500Y-115252500D02*
G75*
G03*
X93662500Y-117792500I1J-2540001D01*
G01*
X100014065Y-119697499D02*
G75*
G03*
X97612502Y-121571363I-1565J-2473861D01*
G01*
%TO.C,MX4*%
X86042500Y-119697500D02*
X86042500Y-118681500D01*
X86042500Y-115633500D02*
X86042500Y-115252500D01*
X74612500Y-121602500D02*
X74993500Y-121602500D01*
X86042500Y-115252500D02*
X77152500Y-115252500D01*
X74612500Y-121221500D02*
X74612500Y-121602500D01*
X80962500Y-119697500D02*
X86042500Y-119697500D01*
X76771500Y-121602500D02*
X78562500Y-121602501D01*
X74612500Y-117792500D02*
X74612500Y-118173500D01*
X77152500Y-115252500D02*
G75*
G03*
X74612500Y-117792500I1J-2540001D01*
G01*
X80964065Y-119697499D02*
G75*
G03*
X78562502Y-121571363I-1565J-2473861D01*
G01*
%TO.C,MX14*%
X143192500Y-77533500D02*
X143192500Y-77152500D01*
X131762500Y-79692500D02*
X131762500Y-80073500D01*
X133921500Y-83502500D02*
X135712500Y-83502501D01*
X143192500Y-81597500D02*
X143192500Y-80581500D01*
X143192500Y-77152500D02*
X134302500Y-77152500D01*
X138112500Y-81597500D02*
X143192500Y-81597500D01*
X131762500Y-83502500D02*
X132143500Y-83502500D01*
X131762500Y-83121500D02*
X131762500Y-83502500D01*
X134302500Y-77152500D02*
G75*
G03*
X131762500Y-79692500I1J-2540001D01*
G01*
X138114065Y-81597499D02*
G75*
G03*
X135712502Y-83471363I-1565J-2473861D01*
G01*
%TO.C,MX13*%
X131762500Y-64452500D02*
X132143500Y-64452500D01*
X143192500Y-58483500D02*
X143192500Y-58102500D01*
X143192500Y-62547500D02*
X143192500Y-61531500D01*
X131762500Y-64071500D02*
X131762500Y-64452500D01*
X138112500Y-62547500D02*
X143192500Y-62547500D01*
X143192500Y-58102500D02*
X134302500Y-58102500D01*
X131762500Y-60642500D02*
X131762500Y-61023500D01*
X133921500Y-64452500D02*
X135712500Y-64452501D01*
X138114065Y-62547499D02*
G75*
G03*
X135712502Y-64421363I-1565J-2473861D01*
G01*
X134302500Y-58102500D02*
G75*
G03*
X131762500Y-60642500I1J-2540001D01*
G01*
%TO.C,MX15*%
X143192500Y-96202500D02*
X134302500Y-96202500D01*
X138112500Y-100647500D02*
X143192500Y-100647500D01*
X131762500Y-102552500D02*
X132143500Y-102552500D01*
X133921500Y-102552500D02*
X135712500Y-102552501D01*
X143192500Y-100647500D02*
X143192500Y-99631500D01*
X131762500Y-102171500D02*
X131762500Y-102552500D01*
X131762500Y-98742500D02*
X131762500Y-99123500D01*
X143192500Y-96583500D02*
X143192500Y-96202500D01*
X134302500Y-96202500D02*
G75*
G03*
X131762500Y-98742500I1J-2540001D01*
G01*
X138114065Y-100647499D02*
G75*
G03*
X135712502Y-102521363I-1565J-2473861D01*
G01*
D11*
%TO.C,C10*%
X75300000Y-89350000D02*
X74300000Y-89350000D01*
X75300000Y-91250000D02*
X74300000Y-91250000D01*
%TO.C,D42*%
X140850000Y-50100000D02*
X140850000Y-48100000D01*
X140850000Y-48100000D02*
X144750000Y-48100000D01*
X140850000Y-50100000D02*
X144750000Y-50100000D01*
%TO.C,R1*%
X78817621Y-43570000D02*
X78482379Y-43570000D01*
X78817621Y-44330000D02*
X78482379Y-44330000D01*
%TO.C,C14*%
X94200000Y-91250000D02*
X93200000Y-91250000D01*
X94200000Y-89350000D02*
X93200000Y-89350000D01*
%TO.C,C21*%
X132300000Y-70250000D02*
X131300000Y-70250000D01*
X132300000Y-72150000D02*
X131300000Y-72150000D01*
%TO.C,D43*%
X161050000Y-50200000D02*
X161050000Y-48200000D01*
X161050000Y-48200000D02*
X164950000Y-48200000D01*
X161050000Y-50200000D02*
X164950000Y-50200000D01*
%TO.C,C13*%
X94300000Y-70250000D02*
X93300000Y-70250000D01*
X94300000Y-72150000D02*
X93300000Y-72150000D01*
%TO.C,D1*%
X74025000Y-68925000D02*
X72025000Y-68925000D01*
X74025000Y-68925000D02*
X74025000Y-65025000D01*
X72025000Y-68925000D02*
X72025000Y-65025000D01*
%TO.C,D8*%
X89031250Y-124031250D02*
X92931250Y-124031250D01*
X89031250Y-122031250D02*
X92931250Y-122031250D01*
X89031250Y-124031250D02*
X89031250Y-122031250D01*
%TO.C,D17*%
X146181250Y-66881250D02*
X146181250Y-64881250D01*
X146181250Y-64881250D02*
X150081250Y-64881250D01*
X146181250Y-66881250D02*
X150081250Y-66881250D01*
%TO.C,C16*%
X94300000Y-129350000D02*
X93300000Y-129350000D01*
X94300000Y-127450000D02*
X93300000Y-127450000D01*
%TO.C,C28*%
X151400000Y-127450000D02*
X150400000Y-127450000D01*
X151400000Y-129350000D02*
X150400000Y-129350000D01*
%TO.C,D16*%
X127131250Y-124031250D02*
X131031250Y-124031250D01*
X127131250Y-122031250D02*
X131031250Y-122031250D01*
X127131250Y-124031250D02*
X127131250Y-122031250D01*
%TO.C,Y1*%
X163974841Y-33956531D02*
X161146414Y-36784958D01*
X161641388Y-31623078D02*
X163974841Y-33956531D01*
%TO.C,D7*%
X89031250Y-104981250D02*
X92931250Y-104981250D01*
X89031250Y-104981250D02*
X89031250Y-102981250D01*
X89031250Y-102981250D02*
X92931250Y-102981250D01*
%TO.C,C7*%
X97365010Y-37604457D02*
X96995543Y-37234990D01*
X98404457Y-36565010D02*
X98034990Y-36195543D01*
%TO.C,D3*%
X74025000Y-107025000D02*
X72025000Y-107025000D01*
X74025000Y-107025000D02*
X74025000Y-103125000D01*
X72025000Y-107025000D02*
X72025000Y-103125000D01*
%TO.C,D12*%
X108081250Y-124031250D02*
X111981250Y-124031250D01*
X108081250Y-124031250D02*
X108081250Y-122031250D01*
X108081250Y-122031250D02*
X111981250Y-122031250D01*
%TO.C,C2*%
X121938748Y-47635000D02*
X122461252Y-47635000D01*
X121938748Y-46165000D02*
X122461252Y-46165000D01*
%TO.C,C9*%
X75100000Y-72150000D02*
X74100000Y-72150000D01*
X75100000Y-70250000D02*
X74100000Y-70250000D01*
%TO.C,D41*%
X86400000Y-44250000D02*
X88400000Y-44250000D01*
X86400000Y-44250000D02*
X86400000Y-48150000D01*
X88400000Y-44250000D02*
X88400000Y-48150000D01*
%TO.C,D5*%
X89031250Y-66881250D02*
X89031250Y-64881250D01*
X89031250Y-64881250D02*
X92931250Y-64881250D01*
X89031250Y-66881250D02*
X92931250Y-66881250D01*
%TO.C,C15*%
X94300000Y-110250000D02*
X93300000Y-110250000D01*
X94300000Y-108350000D02*
X93300000Y-108350000D01*
%TO.C,C23*%
X132400000Y-108350000D02*
X131400000Y-108350000D01*
X132400000Y-110250000D02*
X131400000Y-110250000D01*
%TO.C,R7*%
X84032379Y-39520000D02*
X84367621Y-39520000D01*
X84032379Y-40280000D02*
X84367621Y-40280000D01*
%TO.C,C18*%
X113400000Y-91250000D02*
X112400000Y-91250000D01*
X113400000Y-89350000D02*
X112400000Y-89350000D01*
%TO.C,C27*%
X151500000Y-110250000D02*
X150500000Y-110250000D01*
X151500000Y-108350000D02*
X150500000Y-108350000D01*
%TO.C,C20*%
X113300000Y-129350000D02*
X112300000Y-129350000D01*
X113300000Y-127450000D02*
X112300000Y-127450000D01*
%TO.C,C1*%
X85336248Y-41065000D02*
X85858752Y-41065000D01*
X85336248Y-42535000D02*
X85858752Y-42535000D01*
%TO.C,D18*%
X146181250Y-85931250D02*
X146181250Y-83931250D01*
X146181250Y-83931250D02*
X150081250Y-83931250D01*
X146181250Y-85931250D02*
X150081250Y-85931250D01*
%TO.C,D2*%
X72025000Y-87975000D02*
X72025000Y-84075000D01*
X74025000Y-87975000D02*
X72025000Y-87975000D01*
X74025000Y-87975000D02*
X74025000Y-84075000D01*
%TO.C,D10*%
X108081250Y-83931250D02*
X111981250Y-83931250D01*
X108081250Y-85931250D02*
X108081250Y-83931250D01*
X108081250Y-85931250D02*
X111981250Y-85931250D01*
%TO.C,D11*%
X108081250Y-104981250D02*
X108081250Y-102981250D01*
X108081250Y-102981250D02*
X111981250Y-102981250D01*
X108081250Y-104981250D02*
X111981250Y-104981250D01*
%TO.C,SW1*%
X134762500Y-46700000D02*
X128762500Y-46700000D01*
X128762500Y-46700000D02*
X128762500Y-50700000D01*
X128762500Y-50700000D02*
X134762500Y-50700000D01*
X134762500Y-50700000D02*
X134762500Y-46700000D01*
%TO.C,L1*%
X90635242Y-37140000D02*
X88964758Y-37140000D01*
X90635242Y-38960000D02*
X88964758Y-38960000D01*
%TO.C,R2*%
X82370000Y-42782379D02*
X82370000Y-43117621D01*
X83130000Y-42782379D02*
X83130000Y-43117621D01*
%TO.C,C19*%
X113400000Y-110250000D02*
X112400000Y-110250000D01*
X113400000Y-108350000D02*
X112400000Y-108350000D01*
%TO.C,C24*%
X132400000Y-129350000D02*
X131400000Y-129350000D01*
X132400000Y-127450000D02*
X131400000Y-127450000D01*
D12*
%TO.C,U2*%
X81997500Y-41050000D02*
G75*
G03*
X81997500Y-41050000I0J0D01*
G01*
D11*
%TO.C,C8*%
X124188748Y-33015000D02*
X124711252Y-33015000D01*
X124188748Y-34485000D02*
X124711252Y-34485000D01*
%TO.C,D14*%
X127131250Y-83931250D02*
X131031250Y-83931250D01*
X127131250Y-85931250D02*
X131031250Y-85931250D01*
X127131250Y-85931250D02*
X127131250Y-83931250D01*
%TO.C,C6*%
X157289444Y-32769028D02*
X157658911Y-32399561D01*
X158328891Y-33808475D02*
X158698358Y-33439008D01*
%TO.C,R4*%
X95359165Y-48830282D02*
X95680282Y-48509165D01*
X94319718Y-47790835D02*
X94640835Y-47469718D01*
%TO.C,C17*%
X113300000Y-70250000D02*
X112300000Y-70250000D01*
X113300000Y-72150000D02*
X112300000Y-72150000D01*
%TO.C,R3*%
X92819718Y-46290835D02*
X93140835Y-45969718D01*
X93859165Y-47330282D02*
X94180282Y-47009165D01*
%TO.C,F1*%
X84137500Y-44728733D02*
X84137500Y-45071267D01*
X85157500Y-44728733D02*
X85157500Y-45071267D01*
%TO.C,D6*%
X89031250Y-85931250D02*
X92931250Y-85931250D01*
X89031250Y-83931250D02*
X92931250Y-83931250D01*
X89031250Y-85931250D02*
X89031250Y-83931250D01*
%TO.C,D4*%
X74025000Y-126075000D02*
X72025000Y-126075000D01*
X72025000Y-126075000D02*
X72025000Y-122175000D01*
X74025000Y-126075000D02*
X74025000Y-122175000D01*
%TO.C,C25*%
X151400000Y-70250000D02*
X150400000Y-70250000D01*
X151400000Y-72150000D02*
X150400000Y-72150000D01*
%TO.C,C5*%
X162158911Y-36899561D02*
X161789444Y-37269028D01*
X163198358Y-37939008D02*
X162828891Y-38308475D01*
%TO.C,R5*%
X98780282Y-50159165D02*
X98459165Y-50480282D01*
X97740835Y-49119718D02*
X97419718Y-49440835D01*
D10*
%TO.C,U1*%
X108736900Y-53006782D02*
X109214197Y-52529485D01*
X118883882Y-42859800D02*
X118406585Y-43337097D01*
X108736900Y-53006782D02*
X108259603Y-52529485D01*
X108736900Y-32712818D02*
X109143486Y-33119404D01*
X109143486Y-33119404D02*
X110045048Y-32217843D01*
X98589918Y-42859800D02*
X99067215Y-43337097D01*
X118883882Y-42859800D02*
X118406585Y-42382503D01*
X98589918Y-42859800D02*
X99067215Y-42382503D01*
X108736900Y-32712818D02*
X108259603Y-33190115D01*
D11*
%TO.C,D13*%
X127131250Y-64881250D02*
X131031250Y-64881250D01*
X127131250Y-66881250D02*
X127131250Y-64881250D01*
X127131250Y-66881250D02*
X131031250Y-66881250D01*
%TO.C,D9*%
X108081250Y-64881250D02*
X111981250Y-64881250D01*
X108081250Y-66881250D02*
X108081250Y-64881250D01*
X108081250Y-66881250D02*
X111981250Y-66881250D01*
%TO.C,D19*%
X146181250Y-102981250D02*
X150081250Y-102981250D01*
X146181250Y-104981250D02*
X150081250Y-104981250D01*
X146181250Y-104981250D02*
X146181250Y-102981250D01*
%TO.C,C12*%
X75200000Y-129350000D02*
X74200000Y-129350000D01*
X75200000Y-127450000D02*
X74200000Y-127450000D01*
%TO.C,C4*%
X119334990Y-34704457D02*
X119704457Y-34334990D01*
X118295543Y-33665010D02*
X118665010Y-33295543D01*
%TO.C,C26*%
X151400000Y-91250000D02*
X150400000Y-91250000D01*
X151400000Y-89350000D02*
X150400000Y-89350000D01*
%TO.C,D20*%
X146181250Y-124031250D02*
X150081250Y-124031250D01*
X146181250Y-122031250D02*
X150081250Y-122031250D01*
X146181250Y-124031250D02*
X146181250Y-122031250D01*
%TO.C,C22*%
X132400000Y-91250000D02*
X131400000Y-91250000D01*
X132400000Y-89350000D02*
X131400000Y-89350000D01*
%TO.C,D15*%
X127131250Y-104981250D02*
X131031250Y-104981250D01*
X127131250Y-102981250D02*
X131031250Y-102981250D01*
X127131250Y-104981250D02*
X127131250Y-102981250D01*
%TO.C,R6*%
X121958636Y-50150700D02*
X122412764Y-50150700D01*
X121958636Y-48680700D02*
X122412764Y-48680700D01*
%TO.C,C3*%
X116395543Y-31765010D02*
X116765010Y-31395543D01*
X117434990Y-32804457D02*
X117804457Y-32434990D01*
%TO.C,C11*%
X75200000Y-108350000D02*
X74200000Y-108350000D01*
X75200000Y-110250000D02*
X74200000Y-110250000D01*
%TD*%
M02*
