M48
; DRILL file {KiCad (6.0.4)} date Wed May 25 20:16:11 2022
; FORMAT={-:-/ absolute / inch / decimal}
; #@! TF.CreationDate,2022-05-25T20:16:11+02:00
; #@! TF.GenerationSoftware,Kicad,Pcbnew,(6.0.4)
; #@! TF.FileFunction,NonPlated,1,2,NPTH
FMAT,2
INCH
; #@! TA.AperFunction,NonPlated,NPTH,ComponentDrill
T1C0.0256
; #@! TA.AperFunction,NonPlated,NPTH,ComponentDrill
T2C0.0670
; #@! TA.AperFunction,NonPlated,NPTH,ComponentDrill
T3C0.0866
; #@! TA.AperFunction,NonPlated,NPTH,ComponentDrill
T4C0.1181
; #@! TA.AperFunction,NonPlated,NPTH,ComponentDrill
T5C0.1570
%
G90
G05
T1
X3.0751Y-1.4409
X3.3027Y-1.4409
T2
X2.9875Y-2.5625
X2.9875Y-3.3125
X2.9875Y-4.0625
X2.9875Y-4.8125
X3.3875Y-2.5625
X3.3875Y-3.3125
X3.3875Y-4.0625
X3.3875Y-4.8125
X3.7375Y-2.5625
X3.7375Y-3.3125
X3.7375Y-4.0625
X3.7375Y-4.8125
X4.1375Y-2.5625
X4.1375Y-3.3125
X4.1375Y-4.0625
X4.1375Y-4.8125
X4.4875Y-2.5625
X4.4875Y-3.3125
X4.4875Y-4.0625
X4.4875Y-4.8125
X4.8875Y-2.5625
X4.8875Y-3.3125
X4.8875Y-4.0625
X4.8875Y-4.8125
X5.2375Y-2.5625
X5.2375Y-3.3125
X5.2375Y-4.0625
X5.2375Y-4.8125
X5.6375Y-2.5625
X5.6375Y-3.3125
X5.6375Y-4.0625
X5.6375Y-4.8125
X5.9875Y-2.5625
X5.9875Y-3.3125
X5.9875Y-4.0625
X5.9875Y-4.8125
X6.3875Y-2.5625
X6.3875Y-3.3125
X6.3875Y-4.0625
X6.3875Y-4.8125
T3
X2.75Y-1.2812
X2.75Y-3.5625
X2.75Y-5.25
X4.6929Y-5.25
X5.0866Y-3.7559
X5.1181Y-1.2992
X6.625Y-1.2812
X6.625Y-3.5312
X6.625Y-5.25
T4
X3.0375Y-2.4625
X3.0375Y-3.2125
X3.0375Y-3.9625
X3.0375Y-4.7125
X3.2875Y-2.3625
X3.2875Y-3.1125
X3.2875Y-3.8625
X3.2875Y-4.6125
X3.7875Y-2.4625
X3.7875Y-3.2125
X3.7875Y-3.9625
X3.7875Y-4.7125
X4.0375Y-2.3625
X4.0375Y-3.1125
X4.0375Y-3.8625
X4.0375Y-4.6125
X4.5375Y-2.4625
X4.5375Y-3.2125
X4.5375Y-3.9625
X4.5375Y-4.7125
X4.7875Y-2.3625
X4.7875Y-3.1125
X4.7875Y-3.8625
X4.7875Y-4.6125
X5.2875Y-2.4625
X5.2875Y-3.2125
X5.2875Y-3.9625
X5.2875Y-4.7125
X5.5375Y-2.3625
X5.5375Y-3.1125
X5.5375Y-3.8625
X5.5375Y-4.6125
X6.0375Y-2.4625
X6.0375Y-3.2125
X6.0375Y-3.9625
X6.0375Y-4.7125
X6.2875Y-2.3625
X6.2875Y-3.1125
X6.2875Y-3.8625
X6.2875Y-4.6125
T5
X3.1875Y-2.5625
X3.1875Y-3.3125
X3.1875Y-4.0625
X3.1875Y-4.8125
X3.9375Y-2.5625
X3.9375Y-3.3125
X3.9375Y-4.0625
X3.9375Y-4.8125
X4.6875Y-2.5625
X4.6875Y-3.3125
X4.6875Y-4.0625
X4.6875Y-4.8125
X5.4375Y-2.5625
X5.4375Y-3.3125
X5.4375Y-4.0625
X5.4375Y-4.8125
X6.1875Y-2.5625
X6.1875Y-3.3125
X6.1875Y-4.0625
X6.1875Y-4.8125
T0
M30
