%TF.GenerationSoftware,KiCad,Pcbnew,(6.0.4)*%
%TF.CreationDate,2022-05-24T19:18:06+02:00*%
%TF.ProjectId,MacroBoard-rounded,4d616372-6f42-46f6-9172-642d726f756e,rev?*%
%TF.SameCoordinates,Original*%
%TF.FileFunction,Profile,NP*%
%FSLAX46Y46*%
G04 Gerber Fmt 4.6, Leading zero omitted, Abs format (unit mm)*
G04 Created by KiCad (PCBNEW (6.0.4)) date 2022-05-24 19:18:06*
%MOMM*%
%LPD*%
G01*
G04 APERTURE LIST*
%TA.AperFunction,Profile*%
%ADD10C,0.100000*%
%TD*%
%TA.AperFunction,Profile*%
%ADD11C,0.120000*%
%TD*%
G04 APERTURE END LIST*
D10*
X67464500Y-136081100D02*
X170793700Y-136081100D01*
X170793700Y-136081100D02*
X170793700Y-30160600D01*
X170793700Y-30160600D02*
X67464500Y-30160600D01*
X67464500Y-30160600D02*
X67464500Y-136081100D01*
D11*
%TO.C,D21*%
X79012500Y-71997500D02*
X82912500Y-71997500D01*
X79012500Y-68297500D02*
X79012500Y-71997500D01*
X82912500Y-68297500D02*
X79012500Y-68297500D01*
X82912500Y-71997500D02*
X82912500Y-68297500D01*
%TO.C,D37*%
X155212500Y-71997500D02*
X159112500Y-71997500D01*
X159112500Y-71997500D02*
X159112500Y-68297500D01*
X155212500Y-68297500D02*
X155212500Y-71997500D01*
X159112500Y-68297500D02*
X155212500Y-68297500D01*
%TO.C,D32*%
X117112500Y-125447500D02*
X117112500Y-129147500D01*
X121012500Y-125447500D02*
X117112500Y-125447500D01*
X117112500Y-129147500D02*
X121012500Y-129147500D01*
X121012500Y-129147500D02*
X121012500Y-125447500D01*
%TO.C,D34*%
X136162500Y-91047500D02*
X140062500Y-91047500D01*
X140062500Y-91047500D02*
X140062500Y-87347500D01*
X136162500Y-87347500D02*
X136162500Y-91047500D01*
X140062500Y-87347500D02*
X136162500Y-87347500D01*
%TO.C,D23*%
X82912500Y-110097500D02*
X82912500Y-106397500D01*
X82912500Y-106397500D02*
X79012500Y-106397500D01*
X79012500Y-106397500D02*
X79012500Y-110097500D01*
X79012500Y-110097500D02*
X82912500Y-110097500D01*
%TO.C,D25*%
X98062500Y-71997500D02*
X101962500Y-71997500D01*
X101962500Y-68297500D02*
X98062500Y-68297500D01*
X98062500Y-68297500D02*
X98062500Y-71997500D01*
X101962500Y-71997500D02*
X101962500Y-68297500D01*
%TO.C,D26*%
X101962500Y-87347500D02*
X98062500Y-87347500D01*
X98062500Y-91047500D02*
X101962500Y-91047500D01*
X98062500Y-87347500D02*
X98062500Y-91047500D01*
X101962500Y-91047500D02*
X101962500Y-87347500D01*
%TO.C,D38*%
X155212500Y-91047500D02*
X159112500Y-91047500D01*
X159112500Y-87347500D02*
X155212500Y-87347500D01*
X155212500Y-87347500D02*
X155212500Y-91047500D01*
X159112500Y-91047500D02*
X159112500Y-87347500D01*
%TO.C,D24*%
X79012500Y-129147500D02*
X82912500Y-129147500D01*
X79012500Y-125447500D02*
X79012500Y-129147500D01*
X82912500Y-125447500D02*
X79012500Y-125447500D01*
X82912500Y-129147500D02*
X82912500Y-125447500D01*
%TO.C,D22*%
X79012500Y-87347500D02*
X79012500Y-91047500D01*
X82912500Y-91047500D02*
X82912500Y-87347500D01*
X79012500Y-91047500D02*
X82912500Y-91047500D01*
X82912500Y-87347500D02*
X79012500Y-87347500D01*
%TO.C,D36*%
X140062500Y-129147500D02*
X140062500Y-125447500D01*
X136162500Y-125447500D02*
X136162500Y-129147500D01*
X140062500Y-125447500D02*
X136162500Y-125447500D01*
X136162500Y-129147500D02*
X140062500Y-129147500D01*
%TO.C,D33*%
X136162500Y-71997500D02*
X140062500Y-71997500D01*
X140062500Y-68297500D02*
X136162500Y-68297500D01*
X136162500Y-68297500D02*
X136162500Y-71997500D01*
X140062500Y-71997500D02*
X140062500Y-68297500D01*
%TO.C,D39*%
X159112500Y-110097500D02*
X159112500Y-106397500D01*
X155212500Y-106397500D02*
X155212500Y-110097500D01*
X155212500Y-110097500D02*
X159112500Y-110097500D01*
X159112500Y-106397500D02*
X155212500Y-106397500D01*
%TO.C,D30*%
X121012500Y-87347500D02*
X117112500Y-87347500D01*
X117112500Y-87347500D02*
X117112500Y-91047500D01*
X121012500Y-91047500D02*
X121012500Y-87347500D01*
X117112500Y-91047500D02*
X121012500Y-91047500D01*
%TO.C,D27*%
X98062500Y-110097500D02*
X101962500Y-110097500D01*
X98062500Y-106397500D02*
X98062500Y-110097500D01*
X101962500Y-106397500D02*
X98062500Y-106397500D01*
X101962500Y-110097500D02*
X101962500Y-106397500D01*
%TO.C,D40*%
X159112500Y-125447500D02*
X155212500Y-125447500D01*
X159112500Y-129147500D02*
X159112500Y-125447500D01*
X155212500Y-129147500D02*
X159112500Y-129147500D01*
X155212500Y-125447500D02*
X155212500Y-129147500D01*
%TO.C,D29*%
X121012500Y-71997500D02*
X121012500Y-68297500D01*
X117112500Y-71997500D02*
X121012500Y-71997500D01*
X121012500Y-68297500D02*
X117112500Y-68297500D01*
X117112500Y-68297500D02*
X117112500Y-71997500D01*
%TO.C,D35*%
X140062500Y-110097500D02*
X140062500Y-106397500D01*
X136162500Y-106397500D02*
X136162500Y-110097500D01*
X136162500Y-110097500D02*
X140062500Y-110097500D01*
X140062500Y-106397500D02*
X136162500Y-106397500D01*
%TO.C,D28*%
X98062500Y-129147500D02*
X101962500Y-129147500D01*
X98062500Y-125447500D02*
X98062500Y-129147500D01*
X101962500Y-125447500D02*
X98062500Y-125447500D01*
X101962500Y-129147500D02*
X101962500Y-125447500D01*
%TO.C,D31*%
X117112500Y-106397500D02*
X117112500Y-110097500D01*
X121012500Y-110097500D02*
X121012500Y-106397500D01*
X117112500Y-110097500D02*
X121012500Y-110097500D01*
X121012500Y-106397500D02*
X117112500Y-106397500D01*
%TD*%
M02*
