%TF.GenerationSoftware,KiCad,Pcbnew,(6.0.4)*%
%TF.CreationDate,2022-05-25T20:16:13+02:00*%
%TF.ProjectId,MacroBoard-rounded,4d616372-6f42-46f6-9172-642d726f756e,rev?*%
%TF.SameCoordinates,Original*%
%TF.FileFunction,Soldermask,Top*%
%TF.FilePolarity,Negative*%
%FSLAX46Y46*%
G04 Gerber Fmt 4.6, Leading zero omitted, Abs format (unit mm)*
G04 Created by KiCad (PCBNEW (6.0.4)) date 2022-05-25 20:16:13*
%MOMM*%
%LPD*%
G01*
G04 APERTURE LIST*
%ADD10C,3.987800*%
%ADD11C,3.000000*%
%ADD12C,1.701800*%
%ADD13R,2.000000X2.000000*%
%ADD14C,2.000000*%
%ADD15R,3.200000X2.000000*%
%ADD16C,2.200000*%
%ADD17C,0.650000*%
%ADD18O,1.300000X1.900000*%
%ADD19O,1.100000X2.200000*%
G04 APERTURE END LIST*
D10*
%TO.C,MX10*%
X119062500Y-84137500D03*
D11*
X121602500Y-79057500D03*
D12*
X113982500Y-84137500D03*
X124142500Y-84137500D03*
D11*
X115252500Y-81597500D03*
%TD*%
D13*
%TO.C,SW3*%
X149662500Y-41156250D03*
D14*
X149662500Y-46156250D03*
X149662500Y-43656250D03*
D15*
X157162500Y-38056250D03*
X157162500Y-49256250D03*
D14*
X164162500Y-46156250D03*
X164162500Y-41156250D03*
%TD*%
D12*
%TO.C,MX18*%
X162242500Y-84137500D03*
X152082500Y-84137500D03*
D11*
X153352500Y-81597500D03*
X159702500Y-79057500D03*
D10*
X157162500Y-84137500D03*
%TD*%
D16*
%TO.C,H1*%
X130000000Y-33000000D03*
%TD*%
D10*
%TO.C,MX5*%
X100012500Y-65087500D03*
D12*
X94932500Y-65087500D03*
D11*
X96202500Y-62547500D03*
X102552500Y-60007500D03*
D12*
X105092500Y-65087500D03*
%TD*%
D16*
%TO.C,H8*%
X129200000Y-95400000D03*
%TD*%
%TO.C,H5*%
X168275000Y-133350000D03*
%TD*%
%TO.C,H4*%
X69850000Y-32543750D03*
%TD*%
D11*
%TO.C,MX20*%
X153352500Y-119697500D03*
D12*
X162242500Y-122237500D03*
D10*
X157162500Y-122237500D03*
D11*
X159702500Y-117157500D03*
D12*
X152082500Y-122237500D03*
%TD*%
D10*
%TO.C,MX2*%
X80962500Y-84137500D03*
D11*
X77152500Y-81597500D03*
D12*
X86042500Y-84137500D03*
X75882500Y-84137500D03*
D11*
X83502500Y-79057500D03*
%TD*%
%TO.C,MX7*%
X102552500Y-98107500D03*
D10*
X100012500Y-103187500D03*
D11*
X96202500Y-100647500D03*
D12*
X94932500Y-103187500D03*
X105092500Y-103187500D03*
%TD*%
D10*
%TO.C,MX1*%
X80962500Y-65087500D03*
D11*
X77152500Y-62547500D03*
D12*
X75882500Y-65087500D03*
D11*
X83502500Y-60007500D03*
D12*
X86042500Y-65087500D03*
%TD*%
D11*
%TO.C,MX3*%
X77152500Y-100647500D03*
D12*
X75882500Y-103187500D03*
D10*
X80962500Y-103187500D03*
D11*
X83502500Y-98107500D03*
D12*
X86042500Y-103187500D03*
%TD*%
D11*
%TO.C,MX6*%
X96202500Y-81597500D03*
X102552500Y-79057500D03*
D10*
X100012500Y-84137500D03*
D12*
X105092500Y-84137500D03*
X94932500Y-84137500D03*
%TD*%
D11*
%TO.C,MX17*%
X153352500Y-62547500D03*
D12*
X152082500Y-65087500D03*
D10*
X157162500Y-65087500D03*
D11*
X159702500Y-60007500D03*
D12*
X162242500Y-65087500D03*
%TD*%
%TO.C,MX11*%
X124142500Y-103187500D03*
D10*
X119062500Y-103187500D03*
D11*
X115252500Y-100647500D03*
D12*
X113982500Y-103187500D03*
D11*
X121602500Y-98107500D03*
%TD*%
D12*
%TO.C,MX9*%
X124142500Y-65087500D03*
X113982500Y-65087500D03*
D11*
X115252500Y-62547500D03*
D10*
X119062500Y-65087500D03*
D11*
X121602500Y-60007500D03*
%TD*%
D12*
%TO.C,MX16*%
X143192500Y-122237500D03*
D10*
X138112500Y-122237500D03*
D11*
X134302500Y-119697500D03*
X140652500Y-117157500D03*
D12*
X133032500Y-122237500D03*
%TD*%
D16*
%TO.C,H7*%
X119200000Y-133350000D03*
%TD*%
D11*
%TO.C,MX19*%
X153352500Y-100647500D03*
X159702500Y-98107500D03*
D12*
X152082500Y-103187500D03*
X162242500Y-103187500D03*
D10*
X157162500Y-103187500D03*
%TD*%
D12*
%TO.C,MX12*%
X113982500Y-122237500D03*
D11*
X115252500Y-119697500D03*
D10*
X119062500Y-122237500D03*
D11*
X121602500Y-117157500D03*
D12*
X124142500Y-122237500D03*
%TD*%
%TO.C,MX8*%
X105092500Y-122237500D03*
D10*
X100012500Y-122237500D03*
D12*
X94932500Y-122237500D03*
D11*
X102552500Y-117157500D03*
X96202500Y-119697500D03*
%TD*%
D16*
%TO.C,H6*%
X69850000Y-133350000D03*
%TD*%
%TO.C,H3*%
X168275000Y-32543750D03*
%TD*%
D12*
%TO.C,MX4*%
X86042500Y-122237500D03*
D11*
X77152500Y-119697500D03*
D10*
X80962500Y-122237500D03*
D11*
X83502500Y-117157500D03*
D12*
X75882500Y-122237500D03*
%TD*%
%TO.C,MX14*%
X133032500Y-84137500D03*
D11*
X140652500Y-79057500D03*
X134302500Y-81597500D03*
D12*
X143192500Y-84137500D03*
D10*
X138112500Y-84137500D03*
%TD*%
D16*
%TO.C,H2*%
X69850000Y-90487500D03*
%TD*%
%TO.C,H9*%
X168275000Y-89693750D03*
%TD*%
D13*
%TO.C,SW2*%
X130612500Y-41156250D03*
D14*
X130612500Y-46156250D03*
X130612500Y-43656250D03*
D15*
X138112500Y-49256250D03*
X138112500Y-38056250D03*
D14*
X145112500Y-46156250D03*
X145112500Y-41156250D03*
%TD*%
D11*
%TO.C,MX13*%
X134302500Y-62547500D03*
D12*
X143192500Y-65087500D03*
X133032500Y-65087500D03*
D11*
X140652500Y-60007500D03*
D10*
X138112500Y-65087500D03*
%TD*%
D12*
%TO.C,MX15*%
X133032500Y-103187500D03*
D11*
X134302500Y-100647500D03*
X140652500Y-98107500D03*
D10*
X138112500Y-103187500D03*
D12*
X143192500Y-103187500D03*
%TD*%
D17*
%TO.C,J1*%
X78107500Y-36599000D03*
X83887500Y-36599000D03*
D18*
X76697500Y-32950000D03*
D19*
X85297500Y-37150000D03*
D18*
X85297500Y-32950000D03*
D19*
X76697500Y-37150000D03*
%TD*%
M02*
