%TF.GenerationSoftware,KiCad,Pcbnew,(6.0.4)*%
%TF.CreationDate,2022-05-20T19:43:05+02:00*%
%TF.ProjectId,MacroBoard-rounded,4d616372-6f42-46f6-9172-642d726f756e,rev?*%
%TF.SameCoordinates,Original*%
%TF.FileFunction,Legend,Top*%
%TF.FilePolarity,Positive*%
%FSLAX46Y46*%
G04 Gerber Fmt 4.6, Leading zero omitted, Abs format (unit mm)*
G04 Created by KiCad (PCBNEW (6.0.4)) date 2022-05-20 19:43:05*
%MOMM*%
%LPD*%
G01*
G04 APERTURE LIST*
%ADD10C,0.150000*%
%ADD11C,0.120000*%
G04 APERTURE END LIST*
D10*
%TO.C,H9*%
X167438095Y-87852380D02*
X167438095Y-86852380D01*
X167438095Y-87328571D02*
X168009523Y-87328571D01*
X168009523Y-87852380D02*
X168009523Y-86852380D01*
X168533333Y-87852380D02*
X168723809Y-87852380D01*
X168819047Y-87804761D01*
X168866666Y-87757142D01*
X168961904Y-87614285D01*
X169009523Y-87423809D01*
X169009523Y-87042857D01*
X168961904Y-86947619D01*
X168914285Y-86900000D01*
X168819047Y-86852380D01*
X168628571Y-86852380D01*
X168533333Y-86900000D01*
X168485714Y-86947619D01*
X168438095Y-87042857D01*
X168438095Y-87280952D01*
X168485714Y-87376190D01*
X168533333Y-87423809D01*
X168628571Y-87471428D01*
X168819047Y-87471428D01*
X168914285Y-87423809D01*
X168961904Y-87376190D01*
X169009523Y-87280952D01*
%TO.C,H8*%
X128438095Y-92652380D02*
X128438095Y-91652380D01*
X128438095Y-92128571D02*
X129009523Y-92128571D01*
X129009523Y-92652380D02*
X129009523Y-91652380D01*
X129628571Y-92080952D02*
X129533333Y-92033333D01*
X129485714Y-91985714D01*
X129438095Y-91890476D01*
X129438095Y-91842857D01*
X129485714Y-91747619D01*
X129533333Y-91700000D01*
X129628571Y-91652380D01*
X129819047Y-91652380D01*
X129914285Y-91700000D01*
X129961904Y-91747619D01*
X130009523Y-91842857D01*
X130009523Y-91890476D01*
X129961904Y-91985714D01*
X129914285Y-92033333D01*
X129819047Y-92080952D01*
X129628571Y-92080952D01*
X129533333Y-92128571D01*
X129485714Y-92176190D01*
X129438095Y-92271428D01*
X129438095Y-92461904D01*
X129485714Y-92557142D01*
X129533333Y-92604761D01*
X129628571Y-92652380D01*
X129819047Y-92652380D01*
X129914285Y-92604761D01*
X129961904Y-92557142D01*
X130009523Y-92461904D01*
X130009523Y-92271428D01*
X129961904Y-92176190D01*
X129914285Y-92128571D01*
X129819047Y-92080952D01*
%TO.C,H7*%
X118438095Y-130452380D02*
X118438095Y-129452380D01*
X118438095Y-129928571D02*
X119009523Y-129928571D01*
X119009523Y-130452380D02*
X119009523Y-129452380D01*
X119390476Y-129452380D02*
X120057142Y-129452380D01*
X119628571Y-130452380D01*
%TO.C,H6*%
X69638095Y-130452380D02*
X69638095Y-129452380D01*
X69638095Y-129928571D02*
X70209523Y-129928571D01*
X70209523Y-130452380D02*
X70209523Y-129452380D01*
X71114285Y-129452380D02*
X70923809Y-129452380D01*
X70828571Y-129500000D01*
X70780952Y-129547619D01*
X70685714Y-129690476D01*
X70638095Y-129880952D01*
X70638095Y-130261904D01*
X70685714Y-130357142D01*
X70733333Y-130404761D01*
X70828571Y-130452380D01*
X71019047Y-130452380D01*
X71114285Y-130404761D01*
X71161904Y-130357142D01*
X71209523Y-130261904D01*
X71209523Y-130023809D01*
X71161904Y-129928571D01*
X71114285Y-129880952D01*
X71019047Y-129833333D01*
X70828571Y-129833333D01*
X70733333Y-129880952D01*
X70685714Y-129928571D01*
X70638095Y-130023809D01*
%TO.C,H5*%
X167238095Y-130452380D02*
X167238095Y-129452380D01*
X167238095Y-129928571D02*
X167809523Y-129928571D01*
X167809523Y-130452380D02*
X167809523Y-129452380D01*
X168761904Y-129452380D02*
X168285714Y-129452380D01*
X168238095Y-129928571D01*
X168285714Y-129880952D01*
X168380952Y-129833333D01*
X168619047Y-129833333D01*
X168714285Y-129880952D01*
X168761904Y-129928571D01*
X168809523Y-130023809D01*
X168809523Y-130261904D01*
X168761904Y-130357142D01*
X168714285Y-130404761D01*
X168619047Y-130452380D01*
X168380952Y-130452380D01*
X168285714Y-130404761D01*
X168238095Y-130357142D01*
%TO.C,H4*%
X69638095Y-30252380D02*
X69638095Y-29252380D01*
X69638095Y-29728571D02*
X70209523Y-29728571D01*
X70209523Y-30252380D02*
X70209523Y-29252380D01*
X71114285Y-29585714D02*
X71114285Y-30252380D01*
X70876190Y-29204761D02*
X70638095Y-29919047D01*
X71257142Y-29919047D01*
%TO.C,H3*%
X167238095Y-30252380D02*
X167238095Y-29252380D01*
X167238095Y-29728571D02*
X167809523Y-29728571D01*
X167809523Y-30252380D02*
X167809523Y-29252380D01*
X168190476Y-29252380D02*
X168809523Y-29252380D01*
X168476190Y-29633333D01*
X168619047Y-29633333D01*
X168714285Y-29680952D01*
X168761904Y-29728571D01*
X168809523Y-29823809D01*
X168809523Y-30061904D01*
X168761904Y-30157142D01*
X168714285Y-30204761D01*
X168619047Y-30252380D01*
X168333333Y-30252380D01*
X168238095Y-30204761D01*
X168190476Y-30157142D01*
%TO.C,H2*%
X69238095Y-87852380D02*
X69238095Y-86852380D01*
X69238095Y-87328571D02*
X69809523Y-87328571D01*
X69809523Y-87852380D02*
X69809523Y-86852380D01*
X70238095Y-86947619D02*
X70285714Y-86900000D01*
X70380952Y-86852380D01*
X70619047Y-86852380D01*
X70714285Y-86900000D01*
X70761904Y-86947619D01*
X70809523Y-87042857D01*
X70809523Y-87138095D01*
X70761904Y-87280952D01*
X70190476Y-87852380D01*
X70809523Y-87852380D01*
%TO.C,H1*%
X129238095Y-30252380D02*
X129238095Y-29252380D01*
X129238095Y-29728571D02*
X129809523Y-29728571D01*
X129809523Y-30252380D02*
X129809523Y-29252380D01*
X130809523Y-30252380D02*
X130238095Y-30252380D01*
X130523809Y-30252380D02*
X130523809Y-29252380D01*
X130428571Y-29395238D01*
X130333333Y-29490476D01*
X130238095Y-29538095D01*
%TO.C,D21*%
X79754464Y-74102380D02*
X79754464Y-73102380D01*
X79992559Y-73102380D01*
X80135416Y-73150000D01*
X80230654Y-73245238D01*
X80278273Y-73340476D01*
X80325892Y-73530952D01*
X80325892Y-73673809D01*
X80278273Y-73864285D01*
X80230654Y-73959523D01*
X80135416Y-74054761D01*
X79992559Y-74102380D01*
X79754464Y-74102380D01*
X80706845Y-73197619D02*
X80754464Y-73150000D01*
X80849702Y-73102380D01*
X81087797Y-73102380D01*
X81183035Y-73150000D01*
X81230654Y-73197619D01*
X81278273Y-73292857D01*
X81278273Y-73388095D01*
X81230654Y-73530952D01*
X80659226Y-74102380D01*
X81278273Y-74102380D01*
X82230654Y-74102380D02*
X81659226Y-74102380D01*
X81944940Y-74102380D02*
X81944940Y-73102380D01*
X81849702Y-73245238D01*
X81754464Y-73340476D01*
X81659226Y-73388095D01*
%TO.C,MX10*%
X124960119Y-81732738D02*
X125960119Y-81732738D01*
X124960119Y-82304166D02*
X125531547Y-81875595D01*
X125960119Y-82304166D02*
X125388690Y-81732738D01*
X124960119Y-82732738D02*
X125960119Y-82732738D01*
X125483928Y-82732738D02*
X125483928Y-83304166D01*
X124960119Y-83304166D02*
X125960119Y-83304166D01*
X125341071Y-83780357D02*
X125341071Y-84542261D01*
X124960119Y-85542261D02*
X124960119Y-84970833D01*
X124960119Y-85256547D02*
X125960119Y-85256547D01*
X125817261Y-85161309D01*
X125722023Y-85066071D01*
X125674404Y-84970833D01*
X125960119Y-85970833D02*
X125150595Y-85970833D01*
X125055357Y-86018452D01*
X125007738Y-86066071D01*
X124960119Y-86161309D01*
X124960119Y-86351785D01*
X125007738Y-86447023D01*
X125055357Y-86494642D01*
X125150595Y-86542261D01*
X125960119Y-86542261D01*
X116030595Y-79509880D02*
X116030595Y-78509880D01*
X116363928Y-79224166D01*
X116697261Y-78509880D01*
X116697261Y-79509880D01*
X117078214Y-78509880D02*
X117744880Y-79509880D01*
X117744880Y-78509880D02*
X117078214Y-79509880D01*
X118649642Y-79509880D02*
X118078214Y-79509880D01*
X118363928Y-79509880D02*
X118363928Y-78509880D01*
X118268690Y-78652738D01*
X118173452Y-78747976D01*
X118078214Y-78795595D01*
X119268690Y-78509880D02*
X119363928Y-78509880D01*
X119459166Y-78557500D01*
X119506785Y-78605119D01*
X119554404Y-78700357D01*
X119602023Y-78890833D01*
X119602023Y-79128928D01*
X119554404Y-79319404D01*
X119506785Y-79414642D01*
X119459166Y-79462261D01*
X119363928Y-79509880D01*
X119268690Y-79509880D01*
X119173452Y-79462261D01*
X119125833Y-79414642D01*
X119078214Y-79319404D01*
X119030595Y-79128928D01*
X119030595Y-78890833D01*
X119078214Y-78700357D01*
X119125833Y-78605119D01*
X119173452Y-78557500D01*
X119268690Y-78509880D01*
%TO.C,D37*%
X155954464Y-74102380D02*
X155954464Y-73102380D01*
X156192559Y-73102380D01*
X156335416Y-73150000D01*
X156430654Y-73245238D01*
X156478273Y-73340476D01*
X156525892Y-73530952D01*
X156525892Y-73673809D01*
X156478273Y-73864285D01*
X156430654Y-73959523D01*
X156335416Y-74054761D01*
X156192559Y-74102380D01*
X155954464Y-74102380D01*
X156859226Y-73102380D02*
X157478273Y-73102380D01*
X157144940Y-73483333D01*
X157287797Y-73483333D01*
X157383035Y-73530952D01*
X157430654Y-73578571D01*
X157478273Y-73673809D01*
X157478273Y-73911904D01*
X157430654Y-74007142D01*
X157383035Y-74054761D01*
X157287797Y-74102380D01*
X157002083Y-74102380D01*
X156906845Y-74054761D01*
X156859226Y-74007142D01*
X157811607Y-73102380D02*
X158478273Y-73102380D01*
X158049702Y-74102380D01*
%TO.C,SW3*%
X159429166Y-47861011D02*
X159572023Y-47908630D01*
X159810119Y-47908630D01*
X159905357Y-47861011D01*
X159952976Y-47813392D01*
X160000595Y-47718154D01*
X160000595Y-47622916D01*
X159952976Y-47527678D01*
X159905357Y-47480059D01*
X159810119Y-47432440D01*
X159619642Y-47384821D01*
X159524404Y-47337202D01*
X159476785Y-47289583D01*
X159429166Y-47194345D01*
X159429166Y-47099107D01*
X159476785Y-47003869D01*
X159524404Y-46956250D01*
X159619642Y-46908630D01*
X159857738Y-46908630D01*
X160000595Y-46956250D01*
X160333928Y-46908630D02*
X160572023Y-47908630D01*
X160762500Y-47194345D01*
X160952976Y-47908630D01*
X161191071Y-46908630D01*
X161476785Y-46908630D02*
X162095833Y-46908630D01*
X161762500Y-47289583D01*
X161905357Y-47289583D01*
X162000595Y-47337202D01*
X162048214Y-47384821D01*
X162095833Y-47480059D01*
X162095833Y-47718154D01*
X162048214Y-47813392D01*
X162000595Y-47861011D01*
X161905357Y-47908630D01*
X161619642Y-47908630D01*
X161524404Y-47861011D01*
X161476785Y-47813392D01*
%TO.C,MX18*%
X163060119Y-81732738D02*
X164060119Y-81732738D01*
X163060119Y-82304166D02*
X163631547Y-81875595D01*
X164060119Y-82304166D02*
X163488690Y-81732738D01*
X163060119Y-82732738D02*
X164060119Y-82732738D01*
X163583928Y-82732738D02*
X163583928Y-83304166D01*
X163060119Y-83304166D02*
X164060119Y-83304166D01*
X163441071Y-83780357D02*
X163441071Y-84542261D01*
X163060119Y-85542261D02*
X163060119Y-84970833D01*
X163060119Y-85256547D02*
X164060119Y-85256547D01*
X163917261Y-85161309D01*
X163822023Y-85066071D01*
X163774404Y-84970833D01*
X164060119Y-85970833D02*
X163250595Y-85970833D01*
X163155357Y-86018452D01*
X163107738Y-86066071D01*
X163060119Y-86161309D01*
X163060119Y-86351785D01*
X163107738Y-86447023D01*
X163155357Y-86494642D01*
X163250595Y-86542261D01*
X164060119Y-86542261D01*
X154130595Y-79509880D02*
X154130595Y-78509880D01*
X154463928Y-79224166D01*
X154797261Y-78509880D01*
X154797261Y-79509880D01*
X155178214Y-78509880D02*
X155844880Y-79509880D01*
X155844880Y-78509880D02*
X155178214Y-79509880D01*
X156749642Y-79509880D02*
X156178214Y-79509880D01*
X156463928Y-79509880D02*
X156463928Y-78509880D01*
X156368690Y-78652738D01*
X156273452Y-78747976D01*
X156178214Y-78795595D01*
X157321071Y-78938452D02*
X157225833Y-78890833D01*
X157178214Y-78843214D01*
X157130595Y-78747976D01*
X157130595Y-78700357D01*
X157178214Y-78605119D01*
X157225833Y-78557500D01*
X157321071Y-78509880D01*
X157511547Y-78509880D01*
X157606785Y-78557500D01*
X157654404Y-78605119D01*
X157702023Y-78700357D01*
X157702023Y-78747976D01*
X157654404Y-78843214D01*
X157606785Y-78890833D01*
X157511547Y-78938452D01*
X157321071Y-78938452D01*
X157225833Y-78986071D01*
X157178214Y-79033690D01*
X157130595Y-79128928D01*
X157130595Y-79319404D01*
X157178214Y-79414642D01*
X157225833Y-79462261D01*
X157321071Y-79509880D01*
X157511547Y-79509880D01*
X157606785Y-79462261D01*
X157654404Y-79414642D01*
X157702023Y-79319404D01*
X157702023Y-79128928D01*
X157654404Y-79033690D01*
X157606785Y-78986071D01*
X157511547Y-78938452D01*
%TO.C,MX5*%
X105910119Y-62682738D02*
X106910119Y-62682738D01*
X105910119Y-63254166D02*
X106481547Y-62825595D01*
X106910119Y-63254166D02*
X106338690Y-62682738D01*
X105910119Y-63682738D02*
X106910119Y-63682738D01*
X106433928Y-63682738D02*
X106433928Y-64254166D01*
X105910119Y-64254166D02*
X106910119Y-64254166D01*
X106291071Y-64730357D02*
X106291071Y-65492261D01*
X105910119Y-66492261D02*
X105910119Y-65920833D01*
X105910119Y-66206547D02*
X106910119Y-66206547D01*
X106767261Y-66111309D01*
X106672023Y-66016071D01*
X106624404Y-65920833D01*
X106910119Y-66920833D02*
X106100595Y-66920833D01*
X106005357Y-66968452D01*
X105957738Y-67016071D01*
X105910119Y-67111309D01*
X105910119Y-67301785D01*
X105957738Y-67397023D01*
X106005357Y-67444642D01*
X106100595Y-67492261D01*
X106910119Y-67492261D01*
X97456785Y-60459880D02*
X97456785Y-59459880D01*
X97790119Y-60174166D01*
X98123452Y-59459880D01*
X98123452Y-60459880D01*
X98504404Y-59459880D02*
X99171071Y-60459880D01*
X99171071Y-59459880D02*
X98504404Y-60459880D01*
X100028214Y-59459880D02*
X99552023Y-59459880D01*
X99504404Y-59936071D01*
X99552023Y-59888452D01*
X99647261Y-59840833D01*
X99885357Y-59840833D01*
X99980595Y-59888452D01*
X100028214Y-59936071D01*
X100075833Y-60031309D01*
X100075833Y-60269404D01*
X100028214Y-60364642D01*
X99980595Y-60412261D01*
X99885357Y-60459880D01*
X99647261Y-60459880D01*
X99552023Y-60412261D01*
X99504404Y-60364642D01*
%TO.C,D32*%
X117854464Y-131252380D02*
X117854464Y-130252380D01*
X118092559Y-130252380D01*
X118235416Y-130300000D01*
X118330654Y-130395238D01*
X118378273Y-130490476D01*
X118425892Y-130680952D01*
X118425892Y-130823809D01*
X118378273Y-131014285D01*
X118330654Y-131109523D01*
X118235416Y-131204761D01*
X118092559Y-131252380D01*
X117854464Y-131252380D01*
X118759226Y-130252380D02*
X119378273Y-130252380D01*
X119044940Y-130633333D01*
X119187797Y-130633333D01*
X119283035Y-130680952D01*
X119330654Y-130728571D01*
X119378273Y-130823809D01*
X119378273Y-131061904D01*
X119330654Y-131157142D01*
X119283035Y-131204761D01*
X119187797Y-131252380D01*
X118902083Y-131252380D01*
X118806845Y-131204761D01*
X118759226Y-131157142D01*
X119759226Y-130347619D02*
X119806845Y-130300000D01*
X119902083Y-130252380D01*
X120140178Y-130252380D01*
X120235416Y-130300000D01*
X120283035Y-130347619D01*
X120330654Y-130442857D01*
X120330654Y-130538095D01*
X120283035Y-130680952D01*
X119711607Y-131252380D01*
X120330654Y-131252380D01*
%TO.C,D34*%
X136904464Y-93152380D02*
X136904464Y-92152380D01*
X137142559Y-92152380D01*
X137285416Y-92200000D01*
X137380654Y-92295238D01*
X137428273Y-92390476D01*
X137475892Y-92580952D01*
X137475892Y-92723809D01*
X137428273Y-92914285D01*
X137380654Y-93009523D01*
X137285416Y-93104761D01*
X137142559Y-93152380D01*
X136904464Y-93152380D01*
X137809226Y-92152380D02*
X138428273Y-92152380D01*
X138094940Y-92533333D01*
X138237797Y-92533333D01*
X138333035Y-92580952D01*
X138380654Y-92628571D01*
X138428273Y-92723809D01*
X138428273Y-92961904D01*
X138380654Y-93057142D01*
X138333035Y-93104761D01*
X138237797Y-93152380D01*
X137952083Y-93152380D01*
X137856845Y-93104761D01*
X137809226Y-93057142D01*
X139285416Y-92485714D02*
X139285416Y-93152380D01*
X139047321Y-92104761D02*
X138809226Y-92819047D01*
X139428273Y-92819047D01*
%TO.C,D23*%
X79754464Y-112202380D02*
X79754464Y-111202380D01*
X79992559Y-111202380D01*
X80135416Y-111250000D01*
X80230654Y-111345238D01*
X80278273Y-111440476D01*
X80325892Y-111630952D01*
X80325892Y-111773809D01*
X80278273Y-111964285D01*
X80230654Y-112059523D01*
X80135416Y-112154761D01*
X79992559Y-112202380D01*
X79754464Y-112202380D01*
X80706845Y-111297619D02*
X80754464Y-111250000D01*
X80849702Y-111202380D01*
X81087797Y-111202380D01*
X81183035Y-111250000D01*
X81230654Y-111297619D01*
X81278273Y-111392857D01*
X81278273Y-111488095D01*
X81230654Y-111630952D01*
X80659226Y-112202380D01*
X81278273Y-112202380D01*
X81611607Y-111202380D02*
X82230654Y-111202380D01*
X81897321Y-111583333D01*
X82040178Y-111583333D01*
X82135416Y-111630952D01*
X82183035Y-111678571D01*
X82230654Y-111773809D01*
X82230654Y-112011904D01*
X82183035Y-112107142D01*
X82135416Y-112154761D01*
X82040178Y-112202380D01*
X81754464Y-112202380D01*
X81659226Y-112154761D01*
X81611607Y-112107142D01*
%TO.C,D25*%
X98804464Y-74102380D02*
X98804464Y-73102380D01*
X99042559Y-73102380D01*
X99185416Y-73150000D01*
X99280654Y-73245238D01*
X99328273Y-73340476D01*
X99375892Y-73530952D01*
X99375892Y-73673809D01*
X99328273Y-73864285D01*
X99280654Y-73959523D01*
X99185416Y-74054761D01*
X99042559Y-74102380D01*
X98804464Y-74102380D01*
X99756845Y-73197619D02*
X99804464Y-73150000D01*
X99899702Y-73102380D01*
X100137797Y-73102380D01*
X100233035Y-73150000D01*
X100280654Y-73197619D01*
X100328273Y-73292857D01*
X100328273Y-73388095D01*
X100280654Y-73530952D01*
X99709226Y-74102380D01*
X100328273Y-74102380D01*
X101233035Y-73102380D02*
X100756845Y-73102380D01*
X100709226Y-73578571D01*
X100756845Y-73530952D01*
X100852083Y-73483333D01*
X101090178Y-73483333D01*
X101185416Y-73530952D01*
X101233035Y-73578571D01*
X101280654Y-73673809D01*
X101280654Y-73911904D01*
X101233035Y-74007142D01*
X101185416Y-74054761D01*
X101090178Y-74102380D01*
X100852083Y-74102380D01*
X100756845Y-74054761D01*
X100709226Y-74007142D01*
%TO.C,MX20*%
X154130595Y-117609880D02*
X154130595Y-116609880D01*
X154463928Y-117324166D01*
X154797261Y-116609880D01*
X154797261Y-117609880D01*
X155178214Y-116609880D02*
X155844880Y-117609880D01*
X155844880Y-116609880D02*
X155178214Y-117609880D01*
X156178214Y-116705119D02*
X156225833Y-116657500D01*
X156321071Y-116609880D01*
X156559166Y-116609880D01*
X156654404Y-116657500D01*
X156702023Y-116705119D01*
X156749642Y-116800357D01*
X156749642Y-116895595D01*
X156702023Y-117038452D01*
X156130595Y-117609880D01*
X156749642Y-117609880D01*
X157368690Y-116609880D02*
X157463928Y-116609880D01*
X157559166Y-116657500D01*
X157606785Y-116705119D01*
X157654404Y-116800357D01*
X157702023Y-116990833D01*
X157702023Y-117228928D01*
X157654404Y-117419404D01*
X157606785Y-117514642D01*
X157559166Y-117562261D01*
X157463928Y-117609880D01*
X157368690Y-117609880D01*
X157273452Y-117562261D01*
X157225833Y-117514642D01*
X157178214Y-117419404D01*
X157130595Y-117228928D01*
X157130595Y-116990833D01*
X157178214Y-116800357D01*
X157225833Y-116705119D01*
X157273452Y-116657500D01*
X157368690Y-116609880D01*
X163060119Y-119832738D02*
X164060119Y-119832738D01*
X163060119Y-120404166D02*
X163631547Y-119975595D01*
X164060119Y-120404166D02*
X163488690Y-119832738D01*
X163060119Y-120832738D02*
X164060119Y-120832738D01*
X163583928Y-120832738D02*
X163583928Y-121404166D01*
X163060119Y-121404166D02*
X164060119Y-121404166D01*
X163441071Y-121880357D02*
X163441071Y-122642261D01*
X163060119Y-123642261D02*
X163060119Y-123070833D01*
X163060119Y-123356547D02*
X164060119Y-123356547D01*
X163917261Y-123261309D01*
X163822023Y-123166071D01*
X163774404Y-123070833D01*
X164060119Y-124070833D02*
X163250595Y-124070833D01*
X163155357Y-124118452D01*
X163107738Y-124166071D01*
X163060119Y-124261309D01*
X163060119Y-124451785D01*
X163107738Y-124547023D01*
X163155357Y-124594642D01*
X163250595Y-124642261D01*
X164060119Y-124642261D01*
%TO.C,MX2*%
X86860119Y-81732738D02*
X87860119Y-81732738D01*
X86860119Y-82304166D02*
X87431547Y-81875595D01*
X87860119Y-82304166D02*
X87288690Y-81732738D01*
X86860119Y-82732738D02*
X87860119Y-82732738D01*
X87383928Y-82732738D02*
X87383928Y-83304166D01*
X86860119Y-83304166D02*
X87860119Y-83304166D01*
X87241071Y-83780357D02*
X87241071Y-84542261D01*
X86860119Y-85542261D02*
X86860119Y-84970833D01*
X86860119Y-85256547D02*
X87860119Y-85256547D01*
X87717261Y-85161309D01*
X87622023Y-85066071D01*
X87574404Y-84970833D01*
X87860119Y-85970833D02*
X87050595Y-85970833D01*
X86955357Y-86018452D01*
X86907738Y-86066071D01*
X86860119Y-86161309D01*
X86860119Y-86351785D01*
X86907738Y-86447023D01*
X86955357Y-86494642D01*
X87050595Y-86542261D01*
X87860119Y-86542261D01*
X78406785Y-79509880D02*
X78406785Y-78509880D01*
X78740119Y-79224166D01*
X79073452Y-78509880D01*
X79073452Y-79509880D01*
X79454404Y-78509880D02*
X80121071Y-79509880D01*
X80121071Y-78509880D02*
X79454404Y-79509880D01*
X80454404Y-78605119D02*
X80502023Y-78557500D01*
X80597261Y-78509880D01*
X80835357Y-78509880D01*
X80930595Y-78557500D01*
X80978214Y-78605119D01*
X81025833Y-78700357D01*
X81025833Y-78795595D01*
X80978214Y-78938452D01*
X80406785Y-79509880D01*
X81025833Y-79509880D01*
%TO.C,MX7*%
X105910119Y-100782738D02*
X106910119Y-100782738D01*
X105910119Y-101354166D02*
X106481547Y-100925595D01*
X106910119Y-101354166D02*
X106338690Y-100782738D01*
X105910119Y-101782738D02*
X106910119Y-101782738D01*
X106433928Y-101782738D02*
X106433928Y-102354166D01*
X105910119Y-102354166D02*
X106910119Y-102354166D01*
X106291071Y-102830357D02*
X106291071Y-103592261D01*
X105910119Y-104592261D02*
X105910119Y-104020833D01*
X105910119Y-104306547D02*
X106910119Y-104306547D01*
X106767261Y-104211309D01*
X106672023Y-104116071D01*
X106624404Y-104020833D01*
X106910119Y-105020833D02*
X106100595Y-105020833D01*
X106005357Y-105068452D01*
X105957738Y-105116071D01*
X105910119Y-105211309D01*
X105910119Y-105401785D01*
X105957738Y-105497023D01*
X106005357Y-105544642D01*
X106100595Y-105592261D01*
X106910119Y-105592261D01*
X97456785Y-98559880D02*
X97456785Y-97559880D01*
X97790119Y-98274166D01*
X98123452Y-97559880D01*
X98123452Y-98559880D01*
X98504404Y-97559880D02*
X99171071Y-98559880D01*
X99171071Y-97559880D02*
X98504404Y-98559880D01*
X99456785Y-97559880D02*
X100123452Y-97559880D01*
X99694880Y-98559880D01*
%TO.C,MX1*%
X78406785Y-60459880D02*
X78406785Y-59459880D01*
X78740119Y-60174166D01*
X79073452Y-59459880D01*
X79073452Y-60459880D01*
X79454404Y-59459880D02*
X80121071Y-60459880D01*
X80121071Y-59459880D02*
X79454404Y-60459880D01*
X81025833Y-60459880D02*
X80454404Y-60459880D01*
X80740119Y-60459880D02*
X80740119Y-59459880D01*
X80644880Y-59602738D01*
X80549642Y-59697976D01*
X80454404Y-59745595D01*
X86860119Y-62682738D02*
X87860119Y-62682738D01*
X86860119Y-63254166D02*
X87431547Y-62825595D01*
X87860119Y-63254166D02*
X87288690Y-62682738D01*
X86860119Y-63682738D02*
X87860119Y-63682738D01*
X87383928Y-63682738D02*
X87383928Y-64254166D01*
X86860119Y-64254166D02*
X87860119Y-64254166D01*
X87241071Y-64730357D02*
X87241071Y-65492261D01*
X86860119Y-66492261D02*
X86860119Y-65920833D01*
X86860119Y-66206547D02*
X87860119Y-66206547D01*
X87717261Y-66111309D01*
X87622023Y-66016071D01*
X87574404Y-65920833D01*
X87860119Y-66920833D02*
X87050595Y-66920833D01*
X86955357Y-66968452D01*
X86907738Y-67016071D01*
X86860119Y-67111309D01*
X86860119Y-67301785D01*
X86907738Y-67397023D01*
X86955357Y-67444642D01*
X87050595Y-67492261D01*
X87860119Y-67492261D01*
%TO.C,MX3*%
X86860119Y-100782738D02*
X87860119Y-100782738D01*
X86860119Y-101354166D02*
X87431547Y-100925595D01*
X87860119Y-101354166D02*
X87288690Y-100782738D01*
X86860119Y-101782738D02*
X87860119Y-101782738D01*
X87383928Y-101782738D02*
X87383928Y-102354166D01*
X86860119Y-102354166D02*
X87860119Y-102354166D01*
X87241071Y-102830357D02*
X87241071Y-103592261D01*
X86860119Y-104592261D02*
X86860119Y-104020833D01*
X86860119Y-104306547D02*
X87860119Y-104306547D01*
X87717261Y-104211309D01*
X87622023Y-104116071D01*
X87574404Y-104020833D01*
X87860119Y-105020833D02*
X87050595Y-105020833D01*
X86955357Y-105068452D01*
X86907738Y-105116071D01*
X86860119Y-105211309D01*
X86860119Y-105401785D01*
X86907738Y-105497023D01*
X86955357Y-105544642D01*
X87050595Y-105592261D01*
X87860119Y-105592261D01*
X78406785Y-98559880D02*
X78406785Y-97559880D01*
X78740119Y-98274166D01*
X79073452Y-97559880D01*
X79073452Y-98559880D01*
X79454404Y-97559880D02*
X80121071Y-98559880D01*
X80121071Y-97559880D02*
X79454404Y-98559880D01*
X80406785Y-97559880D02*
X81025833Y-97559880D01*
X80692500Y-97940833D01*
X80835357Y-97940833D01*
X80930595Y-97988452D01*
X80978214Y-98036071D01*
X81025833Y-98131309D01*
X81025833Y-98369404D01*
X80978214Y-98464642D01*
X80930595Y-98512261D01*
X80835357Y-98559880D01*
X80549642Y-98559880D01*
X80454404Y-98512261D01*
X80406785Y-98464642D01*
%TO.C,MX6*%
X105910119Y-81732738D02*
X106910119Y-81732738D01*
X105910119Y-82304166D02*
X106481547Y-81875595D01*
X106910119Y-82304166D02*
X106338690Y-81732738D01*
X105910119Y-82732738D02*
X106910119Y-82732738D01*
X106433928Y-82732738D02*
X106433928Y-83304166D01*
X105910119Y-83304166D02*
X106910119Y-83304166D01*
X106291071Y-83780357D02*
X106291071Y-84542261D01*
X105910119Y-85542261D02*
X105910119Y-84970833D01*
X105910119Y-85256547D02*
X106910119Y-85256547D01*
X106767261Y-85161309D01*
X106672023Y-85066071D01*
X106624404Y-84970833D01*
X106910119Y-85970833D02*
X106100595Y-85970833D01*
X106005357Y-86018452D01*
X105957738Y-86066071D01*
X105910119Y-86161309D01*
X105910119Y-86351785D01*
X105957738Y-86447023D01*
X106005357Y-86494642D01*
X106100595Y-86542261D01*
X106910119Y-86542261D01*
X97456785Y-79509880D02*
X97456785Y-78509880D01*
X97790119Y-79224166D01*
X98123452Y-78509880D01*
X98123452Y-79509880D01*
X98504404Y-78509880D02*
X99171071Y-79509880D01*
X99171071Y-78509880D02*
X98504404Y-79509880D01*
X99980595Y-78509880D02*
X99790119Y-78509880D01*
X99694880Y-78557500D01*
X99647261Y-78605119D01*
X99552023Y-78747976D01*
X99504404Y-78938452D01*
X99504404Y-79319404D01*
X99552023Y-79414642D01*
X99599642Y-79462261D01*
X99694880Y-79509880D01*
X99885357Y-79509880D01*
X99980595Y-79462261D01*
X100028214Y-79414642D01*
X100075833Y-79319404D01*
X100075833Y-79081309D01*
X100028214Y-78986071D01*
X99980595Y-78938452D01*
X99885357Y-78890833D01*
X99694880Y-78890833D01*
X99599642Y-78938452D01*
X99552023Y-78986071D01*
X99504404Y-79081309D01*
%TO.C,MX17*%
X163060119Y-62682738D02*
X164060119Y-62682738D01*
X163060119Y-63254166D02*
X163631547Y-62825595D01*
X164060119Y-63254166D02*
X163488690Y-62682738D01*
X163060119Y-63682738D02*
X164060119Y-63682738D01*
X163583928Y-63682738D02*
X163583928Y-64254166D01*
X163060119Y-64254166D02*
X164060119Y-64254166D01*
X163441071Y-64730357D02*
X163441071Y-65492261D01*
X163060119Y-66492261D02*
X163060119Y-65920833D01*
X163060119Y-66206547D02*
X164060119Y-66206547D01*
X163917261Y-66111309D01*
X163822023Y-66016071D01*
X163774404Y-65920833D01*
X164060119Y-66920833D02*
X163250595Y-66920833D01*
X163155357Y-66968452D01*
X163107738Y-67016071D01*
X163060119Y-67111309D01*
X163060119Y-67301785D01*
X163107738Y-67397023D01*
X163155357Y-67444642D01*
X163250595Y-67492261D01*
X164060119Y-67492261D01*
X154130595Y-60459880D02*
X154130595Y-59459880D01*
X154463928Y-60174166D01*
X154797261Y-59459880D01*
X154797261Y-60459880D01*
X155178214Y-59459880D02*
X155844880Y-60459880D01*
X155844880Y-59459880D02*
X155178214Y-60459880D01*
X156749642Y-60459880D02*
X156178214Y-60459880D01*
X156463928Y-60459880D02*
X156463928Y-59459880D01*
X156368690Y-59602738D01*
X156273452Y-59697976D01*
X156178214Y-59745595D01*
X157082976Y-59459880D02*
X157749642Y-59459880D01*
X157321071Y-60459880D01*
%TO.C,MX11*%
X124960119Y-100782738D02*
X125960119Y-100782738D01*
X124960119Y-101354166D02*
X125531547Y-100925595D01*
X125960119Y-101354166D02*
X125388690Y-100782738D01*
X124960119Y-101782738D02*
X125960119Y-101782738D01*
X125483928Y-101782738D02*
X125483928Y-102354166D01*
X124960119Y-102354166D02*
X125960119Y-102354166D01*
X125341071Y-102830357D02*
X125341071Y-103592261D01*
X124960119Y-104592261D02*
X124960119Y-104020833D01*
X124960119Y-104306547D02*
X125960119Y-104306547D01*
X125817261Y-104211309D01*
X125722023Y-104116071D01*
X125674404Y-104020833D01*
X125960119Y-105020833D02*
X125150595Y-105020833D01*
X125055357Y-105068452D01*
X125007738Y-105116071D01*
X124960119Y-105211309D01*
X124960119Y-105401785D01*
X125007738Y-105497023D01*
X125055357Y-105544642D01*
X125150595Y-105592261D01*
X125960119Y-105592261D01*
X116030595Y-98559880D02*
X116030595Y-97559880D01*
X116363928Y-98274166D01*
X116697261Y-97559880D01*
X116697261Y-98559880D01*
X117078214Y-97559880D02*
X117744880Y-98559880D01*
X117744880Y-97559880D02*
X117078214Y-98559880D01*
X118649642Y-98559880D02*
X118078214Y-98559880D01*
X118363928Y-98559880D02*
X118363928Y-97559880D01*
X118268690Y-97702738D01*
X118173452Y-97797976D01*
X118078214Y-97845595D01*
X119602023Y-98559880D02*
X119030595Y-98559880D01*
X119316309Y-98559880D02*
X119316309Y-97559880D01*
X119221071Y-97702738D01*
X119125833Y-97797976D01*
X119030595Y-97845595D01*
%TO.C,MX9*%
X116506785Y-60459880D02*
X116506785Y-59459880D01*
X116840119Y-60174166D01*
X117173452Y-59459880D01*
X117173452Y-60459880D01*
X117554404Y-59459880D02*
X118221071Y-60459880D01*
X118221071Y-59459880D02*
X117554404Y-60459880D01*
X118649642Y-60459880D02*
X118840119Y-60459880D01*
X118935357Y-60412261D01*
X118982976Y-60364642D01*
X119078214Y-60221785D01*
X119125833Y-60031309D01*
X119125833Y-59650357D01*
X119078214Y-59555119D01*
X119030595Y-59507500D01*
X118935357Y-59459880D01*
X118744880Y-59459880D01*
X118649642Y-59507500D01*
X118602023Y-59555119D01*
X118554404Y-59650357D01*
X118554404Y-59888452D01*
X118602023Y-59983690D01*
X118649642Y-60031309D01*
X118744880Y-60078928D01*
X118935357Y-60078928D01*
X119030595Y-60031309D01*
X119078214Y-59983690D01*
X119125833Y-59888452D01*
X124960119Y-62682738D02*
X125960119Y-62682738D01*
X124960119Y-63254166D02*
X125531547Y-62825595D01*
X125960119Y-63254166D02*
X125388690Y-62682738D01*
X124960119Y-63682738D02*
X125960119Y-63682738D01*
X125483928Y-63682738D02*
X125483928Y-64254166D01*
X124960119Y-64254166D02*
X125960119Y-64254166D01*
X125341071Y-64730357D02*
X125341071Y-65492261D01*
X124960119Y-66492261D02*
X124960119Y-65920833D01*
X124960119Y-66206547D02*
X125960119Y-66206547D01*
X125817261Y-66111309D01*
X125722023Y-66016071D01*
X125674404Y-65920833D01*
X125960119Y-66920833D02*
X125150595Y-66920833D01*
X125055357Y-66968452D01*
X125007738Y-67016071D01*
X124960119Y-67111309D01*
X124960119Y-67301785D01*
X125007738Y-67397023D01*
X125055357Y-67444642D01*
X125150595Y-67492261D01*
X125960119Y-67492261D01*
%TO.C,MX16*%
X135080595Y-117609880D02*
X135080595Y-116609880D01*
X135413928Y-117324166D01*
X135747261Y-116609880D01*
X135747261Y-117609880D01*
X136128214Y-116609880D02*
X136794880Y-117609880D01*
X136794880Y-116609880D02*
X136128214Y-117609880D01*
X137699642Y-117609880D02*
X137128214Y-117609880D01*
X137413928Y-117609880D02*
X137413928Y-116609880D01*
X137318690Y-116752738D01*
X137223452Y-116847976D01*
X137128214Y-116895595D01*
X138556785Y-116609880D02*
X138366309Y-116609880D01*
X138271071Y-116657500D01*
X138223452Y-116705119D01*
X138128214Y-116847976D01*
X138080595Y-117038452D01*
X138080595Y-117419404D01*
X138128214Y-117514642D01*
X138175833Y-117562261D01*
X138271071Y-117609880D01*
X138461547Y-117609880D01*
X138556785Y-117562261D01*
X138604404Y-117514642D01*
X138652023Y-117419404D01*
X138652023Y-117181309D01*
X138604404Y-117086071D01*
X138556785Y-117038452D01*
X138461547Y-116990833D01*
X138271071Y-116990833D01*
X138175833Y-117038452D01*
X138128214Y-117086071D01*
X138080595Y-117181309D01*
X144010119Y-119832738D02*
X145010119Y-119832738D01*
X144010119Y-120404166D02*
X144581547Y-119975595D01*
X145010119Y-120404166D02*
X144438690Y-119832738D01*
X144010119Y-120832738D02*
X145010119Y-120832738D01*
X144533928Y-120832738D02*
X144533928Y-121404166D01*
X144010119Y-121404166D02*
X145010119Y-121404166D01*
X144391071Y-121880357D02*
X144391071Y-122642261D01*
X144010119Y-123642261D02*
X144010119Y-123070833D01*
X144010119Y-123356547D02*
X145010119Y-123356547D01*
X144867261Y-123261309D01*
X144772023Y-123166071D01*
X144724404Y-123070833D01*
X145010119Y-124070833D02*
X144200595Y-124070833D01*
X144105357Y-124118452D01*
X144057738Y-124166071D01*
X144010119Y-124261309D01*
X144010119Y-124451785D01*
X144057738Y-124547023D01*
X144105357Y-124594642D01*
X144200595Y-124642261D01*
X145010119Y-124642261D01*
%TO.C,D26*%
X98804464Y-93152380D02*
X98804464Y-92152380D01*
X99042559Y-92152380D01*
X99185416Y-92200000D01*
X99280654Y-92295238D01*
X99328273Y-92390476D01*
X99375892Y-92580952D01*
X99375892Y-92723809D01*
X99328273Y-92914285D01*
X99280654Y-93009523D01*
X99185416Y-93104761D01*
X99042559Y-93152380D01*
X98804464Y-93152380D01*
X99756845Y-92247619D02*
X99804464Y-92200000D01*
X99899702Y-92152380D01*
X100137797Y-92152380D01*
X100233035Y-92200000D01*
X100280654Y-92247619D01*
X100328273Y-92342857D01*
X100328273Y-92438095D01*
X100280654Y-92580952D01*
X99709226Y-93152380D01*
X100328273Y-93152380D01*
X101185416Y-92152380D02*
X100994940Y-92152380D01*
X100899702Y-92200000D01*
X100852083Y-92247619D01*
X100756845Y-92390476D01*
X100709226Y-92580952D01*
X100709226Y-92961904D01*
X100756845Y-93057142D01*
X100804464Y-93104761D01*
X100899702Y-93152380D01*
X101090178Y-93152380D01*
X101185416Y-93104761D01*
X101233035Y-93057142D01*
X101280654Y-92961904D01*
X101280654Y-92723809D01*
X101233035Y-92628571D01*
X101185416Y-92580952D01*
X101090178Y-92533333D01*
X100899702Y-92533333D01*
X100804464Y-92580952D01*
X100756845Y-92628571D01*
X100709226Y-92723809D01*
%TO.C,D38*%
X155954464Y-93152380D02*
X155954464Y-92152380D01*
X156192559Y-92152380D01*
X156335416Y-92200000D01*
X156430654Y-92295238D01*
X156478273Y-92390476D01*
X156525892Y-92580952D01*
X156525892Y-92723809D01*
X156478273Y-92914285D01*
X156430654Y-93009523D01*
X156335416Y-93104761D01*
X156192559Y-93152380D01*
X155954464Y-93152380D01*
X156859226Y-92152380D02*
X157478273Y-92152380D01*
X157144940Y-92533333D01*
X157287797Y-92533333D01*
X157383035Y-92580952D01*
X157430654Y-92628571D01*
X157478273Y-92723809D01*
X157478273Y-92961904D01*
X157430654Y-93057142D01*
X157383035Y-93104761D01*
X157287797Y-93152380D01*
X157002083Y-93152380D01*
X156906845Y-93104761D01*
X156859226Y-93057142D01*
X158049702Y-92580952D02*
X157954464Y-92533333D01*
X157906845Y-92485714D01*
X157859226Y-92390476D01*
X157859226Y-92342857D01*
X157906845Y-92247619D01*
X157954464Y-92200000D01*
X158049702Y-92152380D01*
X158240178Y-92152380D01*
X158335416Y-92200000D01*
X158383035Y-92247619D01*
X158430654Y-92342857D01*
X158430654Y-92390476D01*
X158383035Y-92485714D01*
X158335416Y-92533333D01*
X158240178Y-92580952D01*
X158049702Y-92580952D01*
X157954464Y-92628571D01*
X157906845Y-92676190D01*
X157859226Y-92771428D01*
X157859226Y-92961904D01*
X157906845Y-93057142D01*
X157954464Y-93104761D01*
X158049702Y-93152380D01*
X158240178Y-93152380D01*
X158335416Y-93104761D01*
X158383035Y-93057142D01*
X158430654Y-92961904D01*
X158430654Y-92771428D01*
X158383035Y-92676190D01*
X158335416Y-92628571D01*
X158240178Y-92580952D01*
%TO.C,D24*%
X79754464Y-131252380D02*
X79754464Y-130252380D01*
X79992559Y-130252380D01*
X80135416Y-130300000D01*
X80230654Y-130395238D01*
X80278273Y-130490476D01*
X80325892Y-130680952D01*
X80325892Y-130823809D01*
X80278273Y-131014285D01*
X80230654Y-131109523D01*
X80135416Y-131204761D01*
X79992559Y-131252380D01*
X79754464Y-131252380D01*
X80706845Y-130347619D02*
X80754464Y-130300000D01*
X80849702Y-130252380D01*
X81087797Y-130252380D01*
X81183035Y-130300000D01*
X81230654Y-130347619D01*
X81278273Y-130442857D01*
X81278273Y-130538095D01*
X81230654Y-130680952D01*
X80659226Y-131252380D01*
X81278273Y-131252380D01*
X82135416Y-130585714D02*
X82135416Y-131252380D01*
X81897321Y-130204761D02*
X81659226Y-130919047D01*
X82278273Y-130919047D01*
%TO.C,D22*%
X79754464Y-93152380D02*
X79754464Y-92152380D01*
X79992559Y-92152380D01*
X80135416Y-92200000D01*
X80230654Y-92295238D01*
X80278273Y-92390476D01*
X80325892Y-92580952D01*
X80325892Y-92723809D01*
X80278273Y-92914285D01*
X80230654Y-93009523D01*
X80135416Y-93104761D01*
X79992559Y-93152380D01*
X79754464Y-93152380D01*
X80706845Y-92247619D02*
X80754464Y-92200000D01*
X80849702Y-92152380D01*
X81087797Y-92152380D01*
X81183035Y-92200000D01*
X81230654Y-92247619D01*
X81278273Y-92342857D01*
X81278273Y-92438095D01*
X81230654Y-92580952D01*
X80659226Y-93152380D01*
X81278273Y-93152380D01*
X81659226Y-92247619D02*
X81706845Y-92200000D01*
X81802083Y-92152380D01*
X82040178Y-92152380D01*
X82135416Y-92200000D01*
X82183035Y-92247619D01*
X82230654Y-92342857D01*
X82230654Y-92438095D01*
X82183035Y-92580952D01*
X81611607Y-93152380D01*
X82230654Y-93152380D01*
%TO.C,D36*%
X136904464Y-131252380D02*
X136904464Y-130252380D01*
X137142559Y-130252380D01*
X137285416Y-130300000D01*
X137380654Y-130395238D01*
X137428273Y-130490476D01*
X137475892Y-130680952D01*
X137475892Y-130823809D01*
X137428273Y-131014285D01*
X137380654Y-131109523D01*
X137285416Y-131204761D01*
X137142559Y-131252380D01*
X136904464Y-131252380D01*
X137809226Y-130252380D02*
X138428273Y-130252380D01*
X138094940Y-130633333D01*
X138237797Y-130633333D01*
X138333035Y-130680952D01*
X138380654Y-130728571D01*
X138428273Y-130823809D01*
X138428273Y-131061904D01*
X138380654Y-131157142D01*
X138333035Y-131204761D01*
X138237797Y-131252380D01*
X137952083Y-131252380D01*
X137856845Y-131204761D01*
X137809226Y-131157142D01*
X139285416Y-130252380D02*
X139094940Y-130252380D01*
X138999702Y-130300000D01*
X138952083Y-130347619D01*
X138856845Y-130490476D01*
X138809226Y-130680952D01*
X138809226Y-131061904D01*
X138856845Y-131157142D01*
X138904464Y-131204761D01*
X138999702Y-131252380D01*
X139190178Y-131252380D01*
X139285416Y-131204761D01*
X139333035Y-131157142D01*
X139380654Y-131061904D01*
X139380654Y-130823809D01*
X139333035Y-130728571D01*
X139285416Y-130680952D01*
X139190178Y-130633333D01*
X138999702Y-130633333D01*
X138904464Y-130680952D01*
X138856845Y-130728571D01*
X138809226Y-130823809D01*
%TO.C,MX19*%
X154130595Y-98559880D02*
X154130595Y-97559880D01*
X154463928Y-98274166D01*
X154797261Y-97559880D01*
X154797261Y-98559880D01*
X155178214Y-97559880D02*
X155844880Y-98559880D01*
X155844880Y-97559880D02*
X155178214Y-98559880D01*
X156749642Y-98559880D02*
X156178214Y-98559880D01*
X156463928Y-98559880D02*
X156463928Y-97559880D01*
X156368690Y-97702738D01*
X156273452Y-97797976D01*
X156178214Y-97845595D01*
X157225833Y-98559880D02*
X157416309Y-98559880D01*
X157511547Y-98512261D01*
X157559166Y-98464642D01*
X157654404Y-98321785D01*
X157702023Y-98131309D01*
X157702023Y-97750357D01*
X157654404Y-97655119D01*
X157606785Y-97607500D01*
X157511547Y-97559880D01*
X157321071Y-97559880D01*
X157225833Y-97607500D01*
X157178214Y-97655119D01*
X157130595Y-97750357D01*
X157130595Y-97988452D01*
X157178214Y-98083690D01*
X157225833Y-98131309D01*
X157321071Y-98178928D01*
X157511547Y-98178928D01*
X157606785Y-98131309D01*
X157654404Y-98083690D01*
X157702023Y-97988452D01*
X163060119Y-100782738D02*
X164060119Y-100782738D01*
X163060119Y-101354166D02*
X163631547Y-100925595D01*
X164060119Y-101354166D02*
X163488690Y-100782738D01*
X163060119Y-101782738D02*
X164060119Y-101782738D01*
X163583928Y-101782738D02*
X163583928Y-102354166D01*
X163060119Y-102354166D02*
X164060119Y-102354166D01*
X163441071Y-102830357D02*
X163441071Y-103592261D01*
X163060119Y-104592261D02*
X163060119Y-104020833D01*
X163060119Y-104306547D02*
X164060119Y-104306547D01*
X163917261Y-104211309D01*
X163822023Y-104116071D01*
X163774404Y-104020833D01*
X164060119Y-105020833D02*
X163250595Y-105020833D01*
X163155357Y-105068452D01*
X163107738Y-105116071D01*
X163060119Y-105211309D01*
X163060119Y-105401785D01*
X163107738Y-105497023D01*
X163155357Y-105544642D01*
X163250595Y-105592261D01*
X164060119Y-105592261D01*
%TO.C,MX12*%
X124960119Y-119832738D02*
X125960119Y-119832738D01*
X124960119Y-120404166D02*
X125531547Y-119975595D01*
X125960119Y-120404166D02*
X125388690Y-119832738D01*
X124960119Y-120832738D02*
X125960119Y-120832738D01*
X125483928Y-120832738D02*
X125483928Y-121404166D01*
X124960119Y-121404166D02*
X125960119Y-121404166D01*
X125341071Y-121880357D02*
X125341071Y-122642261D01*
X124960119Y-123642261D02*
X124960119Y-123070833D01*
X124960119Y-123356547D02*
X125960119Y-123356547D01*
X125817261Y-123261309D01*
X125722023Y-123166071D01*
X125674404Y-123070833D01*
X125960119Y-124070833D02*
X125150595Y-124070833D01*
X125055357Y-124118452D01*
X125007738Y-124166071D01*
X124960119Y-124261309D01*
X124960119Y-124451785D01*
X125007738Y-124547023D01*
X125055357Y-124594642D01*
X125150595Y-124642261D01*
X125960119Y-124642261D01*
X116030595Y-117609880D02*
X116030595Y-116609880D01*
X116363928Y-117324166D01*
X116697261Y-116609880D01*
X116697261Y-117609880D01*
X117078214Y-116609880D02*
X117744880Y-117609880D01*
X117744880Y-116609880D02*
X117078214Y-117609880D01*
X118649642Y-117609880D02*
X118078214Y-117609880D01*
X118363928Y-117609880D02*
X118363928Y-116609880D01*
X118268690Y-116752738D01*
X118173452Y-116847976D01*
X118078214Y-116895595D01*
X119030595Y-116705119D02*
X119078214Y-116657500D01*
X119173452Y-116609880D01*
X119411547Y-116609880D01*
X119506785Y-116657500D01*
X119554404Y-116705119D01*
X119602023Y-116800357D01*
X119602023Y-116895595D01*
X119554404Y-117038452D01*
X118982976Y-117609880D01*
X119602023Y-117609880D01*
%TO.C,D33*%
X136904464Y-74102380D02*
X136904464Y-73102380D01*
X137142559Y-73102380D01*
X137285416Y-73150000D01*
X137380654Y-73245238D01*
X137428273Y-73340476D01*
X137475892Y-73530952D01*
X137475892Y-73673809D01*
X137428273Y-73864285D01*
X137380654Y-73959523D01*
X137285416Y-74054761D01*
X137142559Y-74102380D01*
X136904464Y-74102380D01*
X137809226Y-73102380D02*
X138428273Y-73102380D01*
X138094940Y-73483333D01*
X138237797Y-73483333D01*
X138333035Y-73530952D01*
X138380654Y-73578571D01*
X138428273Y-73673809D01*
X138428273Y-73911904D01*
X138380654Y-74007142D01*
X138333035Y-74054761D01*
X138237797Y-74102380D01*
X137952083Y-74102380D01*
X137856845Y-74054761D01*
X137809226Y-74007142D01*
X138761607Y-73102380D02*
X139380654Y-73102380D01*
X139047321Y-73483333D01*
X139190178Y-73483333D01*
X139285416Y-73530952D01*
X139333035Y-73578571D01*
X139380654Y-73673809D01*
X139380654Y-73911904D01*
X139333035Y-74007142D01*
X139285416Y-74054761D01*
X139190178Y-74102380D01*
X138904464Y-74102380D01*
X138809226Y-74054761D01*
X138761607Y-74007142D01*
%TO.C,MX8*%
X97456785Y-117609880D02*
X97456785Y-116609880D01*
X97790119Y-117324166D01*
X98123452Y-116609880D01*
X98123452Y-117609880D01*
X98504404Y-116609880D02*
X99171071Y-117609880D01*
X99171071Y-116609880D02*
X98504404Y-117609880D01*
X99694880Y-117038452D02*
X99599642Y-116990833D01*
X99552023Y-116943214D01*
X99504404Y-116847976D01*
X99504404Y-116800357D01*
X99552023Y-116705119D01*
X99599642Y-116657500D01*
X99694880Y-116609880D01*
X99885357Y-116609880D01*
X99980595Y-116657500D01*
X100028214Y-116705119D01*
X100075833Y-116800357D01*
X100075833Y-116847976D01*
X100028214Y-116943214D01*
X99980595Y-116990833D01*
X99885357Y-117038452D01*
X99694880Y-117038452D01*
X99599642Y-117086071D01*
X99552023Y-117133690D01*
X99504404Y-117228928D01*
X99504404Y-117419404D01*
X99552023Y-117514642D01*
X99599642Y-117562261D01*
X99694880Y-117609880D01*
X99885357Y-117609880D01*
X99980595Y-117562261D01*
X100028214Y-117514642D01*
X100075833Y-117419404D01*
X100075833Y-117228928D01*
X100028214Y-117133690D01*
X99980595Y-117086071D01*
X99885357Y-117038452D01*
X105910119Y-119832738D02*
X106910119Y-119832738D01*
X105910119Y-120404166D02*
X106481547Y-119975595D01*
X106910119Y-120404166D02*
X106338690Y-119832738D01*
X105910119Y-120832738D02*
X106910119Y-120832738D01*
X106433928Y-120832738D02*
X106433928Y-121404166D01*
X105910119Y-121404166D02*
X106910119Y-121404166D01*
X106291071Y-121880357D02*
X106291071Y-122642261D01*
X105910119Y-123642261D02*
X105910119Y-123070833D01*
X105910119Y-123356547D02*
X106910119Y-123356547D01*
X106767261Y-123261309D01*
X106672023Y-123166071D01*
X106624404Y-123070833D01*
X106910119Y-124070833D02*
X106100595Y-124070833D01*
X106005357Y-124118452D01*
X105957738Y-124166071D01*
X105910119Y-124261309D01*
X105910119Y-124451785D01*
X105957738Y-124547023D01*
X106005357Y-124594642D01*
X106100595Y-124642261D01*
X106910119Y-124642261D01*
%TO.C,D39*%
X155954464Y-112202380D02*
X155954464Y-111202380D01*
X156192559Y-111202380D01*
X156335416Y-111250000D01*
X156430654Y-111345238D01*
X156478273Y-111440476D01*
X156525892Y-111630952D01*
X156525892Y-111773809D01*
X156478273Y-111964285D01*
X156430654Y-112059523D01*
X156335416Y-112154761D01*
X156192559Y-112202380D01*
X155954464Y-112202380D01*
X156859226Y-111202380D02*
X157478273Y-111202380D01*
X157144940Y-111583333D01*
X157287797Y-111583333D01*
X157383035Y-111630952D01*
X157430654Y-111678571D01*
X157478273Y-111773809D01*
X157478273Y-112011904D01*
X157430654Y-112107142D01*
X157383035Y-112154761D01*
X157287797Y-112202380D01*
X157002083Y-112202380D01*
X156906845Y-112154761D01*
X156859226Y-112107142D01*
X157954464Y-112202380D02*
X158144940Y-112202380D01*
X158240178Y-112154761D01*
X158287797Y-112107142D01*
X158383035Y-111964285D01*
X158430654Y-111773809D01*
X158430654Y-111392857D01*
X158383035Y-111297619D01*
X158335416Y-111250000D01*
X158240178Y-111202380D01*
X158049702Y-111202380D01*
X157954464Y-111250000D01*
X157906845Y-111297619D01*
X157859226Y-111392857D01*
X157859226Y-111630952D01*
X157906845Y-111726190D01*
X157954464Y-111773809D01*
X158049702Y-111821428D01*
X158240178Y-111821428D01*
X158335416Y-111773809D01*
X158383035Y-111726190D01*
X158430654Y-111630952D01*
%TO.C,D30*%
X117854464Y-93152380D02*
X117854464Y-92152380D01*
X118092559Y-92152380D01*
X118235416Y-92200000D01*
X118330654Y-92295238D01*
X118378273Y-92390476D01*
X118425892Y-92580952D01*
X118425892Y-92723809D01*
X118378273Y-92914285D01*
X118330654Y-93009523D01*
X118235416Y-93104761D01*
X118092559Y-93152380D01*
X117854464Y-93152380D01*
X118759226Y-92152380D02*
X119378273Y-92152380D01*
X119044940Y-92533333D01*
X119187797Y-92533333D01*
X119283035Y-92580952D01*
X119330654Y-92628571D01*
X119378273Y-92723809D01*
X119378273Y-92961904D01*
X119330654Y-93057142D01*
X119283035Y-93104761D01*
X119187797Y-93152380D01*
X118902083Y-93152380D01*
X118806845Y-93104761D01*
X118759226Y-93057142D01*
X119997321Y-92152380D02*
X120092559Y-92152380D01*
X120187797Y-92200000D01*
X120235416Y-92247619D01*
X120283035Y-92342857D01*
X120330654Y-92533333D01*
X120330654Y-92771428D01*
X120283035Y-92961904D01*
X120235416Y-93057142D01*
X120187797Y-93104761D01*
X120092559Y-93152380D01*
X119997321Y-93152380D01*
X119902083Y-93104761D01*
X119854464Y-93057142D01*
X119806845Y-92961904D01*
X119759226Y-92771428D01*
X119759226Y-92533333D01*
X119806845Y-92342857D01*
X119854464Y-92247619D01*
X119902083Y-92200000D01*
X119997321Y-92152380D01*
%TO.C,MX4*%
X86860119Y-119832738D02*
X87860119Y-119832738D01*
X86860119Y-120404166D02*
X87431547Y-119975595D01*
X87860119Y-120404166D02*
X87288690Y-119832738D01*
X86860119Y-120832738D02*
X87860119Y-120832738D01*
X87383928Y-120832738D02*
X87383928Y-121404166D01*
X86860119Y-121404166D02*
X87860119Y-121404166D01*
X87241071Y-121880357D02*
X87241071Y-122642261D01*
X86860119Y-123642261D02*
X86860119Y-123070833D01*
X86860119Y-123356547D02*
X87860119Y-123356547D01*
X87717261Y-123261309D01*
X87622023Y-123166071D01*
X87574404Y-123070833D01*
X87860119Y-124070833D02*
X87050595Y-124070833D01*
X86955357Y-124118452D01*
X86907738Y-124166071D01*
X86860119Y-124261309D01*
X86860119Y-124451785D01*
X86907738Y-124547023D01*
X86955357Y-124594642D01*
X87050595Y-124642261D01*
X87860119Y-124642261D01*
X78406785Y-117609880D02*
X78406785Y-116609880D01*
X78740119Y-117324166D01*
X79073452Y-116609880D01*
X79073452Y-117609880D01*
X79454404Y-116609880D02*
X80121071Y-117609880D01*
X80121071Y-116609880D02*
X79454404Y-117609880D01*
X80930595Y-116943214D02*
X80930595Y-117609880D01*
X80692500Y-116562261D02*
X80454404Y-117276547D01*
X81073452Y-117276547D01*
%TO.C,D27*%
X98804464Y-112202380D02*
X98804464Y-111202380D01*
X99042559Y-111202380D01*
X99185416Y-111250000D01*
X99280654Y-111345238D01*
X99328273Y-111440476D01*
X99375892Y-111630952D01*
X99375892Y-111773809D01*
X99328273Y-111964285D01*
X99280654Y-112059523D01*
X99185416Y-112154761D01*
X99042559Y-112202380D01*
X98804464Y-112202380D01*
X99756845Y-111297619D02*
X99804464Y-111250000D01*
X99899702Y-111202380D01*
X100137797Y-111202380D01*
X100233035Y-111250000D01*
X100280654Y-111297619D01*
X100328273Y-111392857D01*
X100328273Y-111488095D01*
X100280654Y-111630952D01*
X99709226Y-112202380D01*
X100328273Y-112202380D01*
X100661607Y-111202380D02*
X101328273Y-111202380D01*
X100899702Y-112202380D01*
%TO.C,D40*%
X155954464Y-131252380D02*
X155954464Y-130252380D01*
X156192559Y-130252380D01*
X156335416Y-130300000D01*
X156430654Y-130395238D01*
X156478273Y-130490476D01*
X156525892Y-130680952D01*
X156525892Y-130823809D01*
X156478273Y-131014285D01*
X156430654Y-131109523D01*
X156335416Y-131204761D01*
X156192559Y-131252380D01*
X155954464Y-131252380D01*
X157383035Y-130585714D02*
X157383035Y-131252380D01*
X157144940Y-130204761D02*
X156906845Y-130919047D01*
X157525892Y-130919047D01*
X158097321Y-130252380D02*
X158192559Y-130252380D01*
X158287797Y-130300000D01*
X158335416Y-130347619D01*
X158383035Y-130442857D01*
X158430654Y-130633333D01*
X158430654Y-130871428D01*
X158383035Y-131061904D01*
X158335416Y-131157142D01*
X158287797Y-131204761D01*
X158192559Y-131252380D01*
X158097321Y-131252380D01*
X158002083Y-131204761D01*
X157954464Y-131157142D01*
X157906845Y-131061904D01*
X157859226Y-130871428D01*
X157859226Y-130633333D01*
X157906845Y-130442857D01*
X157954464Y-130347619D01*
X158002083Y-130300000D01*
X158097321Y-130252380D01*
%TO.C,MX14*%
X144010119Y-81732738D02*
X145010119Y-81732738D01*
X144010119Y-82304166D02*
X144581547Y-81875595D01*
X145010119Y-82304166D02*
X144438690Y-81732738D01*
X144010119Y-82732738D02*
X145010119Y-82732738D01*
X144533928Y-82732738D02*
X144533928Y-83304166D01*
X144010119Y-83304166D02*
X145010119Y-83304166D01*
X144391071Y-83780357D02*
X144391071Y-84542261D01*
X144010119Y-85542261D02*
X144010119Y-84970833D01*
X144010119Y-85256547D02*
X145010119Y-85256547D01*
X144867261Y-85161309D01*
X144772023Y-85066071D01*
X144724404Y-84970833D01*
X145010119Y-85970833D02*
X144200595Y-85970833D01*
X144105357Y-86018452D01*
X144057738Y-86066071D01*
X144010119Y-86161309D01*
X144010119Y-86351785D01*
X144057738Y-86447023D01*
X144105357Y-86494642D01*
X144200595Y-86542261D01*
X145010119Y-86542261D01*
X135080595Y-79509880D02*
X135080595Y-78509880D01*
X135413928Y-79224166D01*
X135747261Y-78509880D01*
X135747261Y-79509880D01*
X136128214Y-78509880D02*
X136794880Y-79509880D01*
X136794880Y-78509880D02*
X136128214Y-79509880D01*
X137699642Y-79509880D02*
X137128214Y-79509880D01*
X137413928Y-79509880D02*
X137413928Y-78509880D01*
X137318690Y-78652738D01*
X137223452Y-78747976D01*
X137128214Y-78795595D01*
X138556785Y-78843214D02*
X138556785Y-79509880D01*
X138318690Y-78462261D02*
X138080595Y-79176547D01*
X138699642Y-79176547D01*
%TO.C,D29*%
X117854464Y-74102380D02*
X117854464Y-73102380D01*
X118092559Y-73102380D01*
X118235416Y-73150000D01*
X118330654Y-73245238D01*
X118378273Y-73340476D01*
X118425892Y-73530952D01*
X118425892Y-73673809D01*
X118378273Y-73864285D01*
X118330654Y-73959523D01*
X118235416Y-74054761D01*
X118092559Y-74102380D01*
X117854464Y-74102380D01*
X118806845Y-73197619D02*
X118854464Y-73150000D01*
X118949702Y-73102380D01*
X119187797Y-73102380D01*
X119283035Y-73150000D01*
X119330654Y-73197619D01*
X119378273Y-73292857D01*
X119378273Y-73388095D01*
X119330654Y-73530952D01*
X118759226Y-74102380D01*
X119378273Y-74102380D01*
X119854464Y-74102380D02*
X120044940Y-74102380D01*
X120140178Y-74054761D01*
X120187797Y-74007142D01*
X120283035Y-73864285D01*
X120330654Y-73673809D01*
X120330654Y-73292857D01*
X120283035Y-73197619D01*
X120235416Y-73150000D01*
X120140178Y-73102380D01*
X119949702Y-73102380D01*
X119854464Y-73150000D01*
X119806845Y-73197619D01*
X119759226Y-73292857D01*
X119759226Y-73530952D01*
X119806845Y-73626190D01*
X119854464Y-73673809D01*
X119949702Y-73721428D01*
X120140178Y-73721428D01*
X120235416Y-73673809D01*
X120283035Y-73626190D01*
X120330654Y-73530952D01*
%TO.C,SW2*%
X139229166Y-47861011D02*
X139372023Y-47908630D01*
X139610119Y-47908630D01*
X139705357Y-47861011D01*
X139752976Y-47813392D01*
X139800595Y-47718154D01*
X139800595Y-47622916D01*
X139752976Y-47527678D01*
X139705357Y-47480059D01*
X139610119Y-47432440D01*
X139419642Y-47384821D01*
X139324404Y-47337202D01*
X139276785Y-47289583D01*
X139229166Y-47194345D01*
X139229166Y-47099107D01*
X139276785Y-47003869D01*
X139324404Y-46956250D01*
X139419642Y-46908630D01*
X139657738Y-46908630D01*
X139800595Y-46956250D01*
X140133928Y-46908630D02*
X140372023Y-47908630D01*
X140562500Y-47194345D01*
X140752976Y-47908630D01*
X140991071Y-46908630D01*
X141324404Y-47003869D02*
X141372023Y-46956250D01*
X141467261Y-46908630D01*
X141705357Y-46908630D01*
X141800595Y-46956250D01*
X141848214Y-47003869D01*
X141895833Y-47099107D01*
X141895833Y-47194345D01*
X141848214Y-47337202D01*
X141276785Y-47908630D01*
X141895833Y-47908630D01*
%TO.C,MX13*%
X135080595Y-60459880D02*
X135080595Y-59459880D01*
X135413928Y-60174166D01*
X135747261Y-59459880D01*
X135747261Y-60459880D01*
X136128214Y-59459880D02*
X136794880Y-60459880D01*
X136794880Y-59459880D02*
X136128214Y-60459880D01*
X137699642Y-60459880D02*
X137128214Y-60459880D01*
X137413928Y-60459880D02*
X137413928Y-59459880D01*
X137318690Y-59602738D01*
X137223452Y-59697976D01*
X137128214Y-59745595D01*
X138032976Y-59459880D02*
X138652023Y-59459880D01*
X138318690Y-59840833D01*
X138461547Y-59840833D01*
X138556785Y-59888452D01*
X138604404Y-59936071D01*
X138652023Y-60031309D01*
X138652023Y-60269404D01*
X138604404Y-60364642D01*
X138556785Y-60412261D01*
X138461547Y-60459880D01*
X138175833Y-60459880D01*
X138080595Y-60412261D01*
X138032976Y-60364642D01*
X144010119Y-62682738D02*
X145010119Y-62682738D01*
X144010119Y-63254166D02*
X144581547Y-62825595D01*
X145010119Y-63254166D02*
X144438690Y-62682738D01*
X144010119Y-63682738D02*
X145010119Y-63682738D01*
X144533928Y-63682738D02*
X144533928Y-64254166D01*
X144010119Y-64254166D02*
X145010119Y-64254166D01*
X144391071Y-64730357D02*
X144391071Y-65492261D01*
X144010119Y-66492261D02*
X144010119Y-65920833D01*
X144010119Y-66206547D02*
X145010119Y-66206547D01*
X144867261Y-66111309D01*
X144772023Y-66016071D01*
X144724404Y-65920833D01*
X145010119Y-66920833D02*
X144200595Y-66920833D01*
X144105357Y-66968452D01*
X144057738Y-67016071D01*
X144010119Y-67111309D01*
X144010119Y-67301785D01*
X144057738Y-67397023D01*
X144105357Y-67444642D01*
X144200595Y-67492261D01*
X145010119Y-67492261D01*
%TO.C,MX15*%
X144010119Y-100782738D02*
X145010119Y-100782738D01*
X144010119Y-101354166D02*
X144581547Y-100925595D01*
X145010119Y-101354166D02*
X144438690Y-100782738D01*
X144010119Y-101782738D02*
X145010119Y-101782738D01*
X144533928Y-101782738D02*
X144533928Y-102354166D01*
X144010119Y-102354166D02*
X145010119Y-102354166D01*
X144391071Y-102830357D02*
X144391071Y-103592261D01*
X144010119Y-104592261D02*
X144010119Y-104020833D01*
X144010119Y-104306547D02*
X145010119Y-104306547D01*
X144867261Y-104211309D01*
X144772023Y-104116071D01*
X144724404Y-104020833D01*
X145010119Y-105020833D02*
X144200595Y-105020833D01*
X144105357Y-105068452D01*
X144057738Y-105116071D01*
X144010119Y-105211309D01*
X144010119Y-105401785D01*
X144057738Y-105497023D01*
X144105357Y-105544642D01*
X144200595Y-105592261D01*
X145010119Y-105592261D01*
X135080595Y-98559880D02*
X135080595Y-97559880D01*
X135413928Y-98274166D01*
X135747261Y-97559880D01*
X135747261Y-98559880D01*
X136128214Y-97559880D02*
X136794880Y-98559880D01*
X136794880Y-97559880D02*
X136128214Y-98559880D01*
X137699642Y-98559880D02*
X137128214Y-98559880D01*
X137413928Y-98559880D02*
X137413928Y-97559880D01*
X137318690Y-97702738D01*
X137223452Y-97797976D01*
X137128214Y-97845595D01*
X138604404Y-97559880D02*
X138128214Y-97559880D01*
X138080595Y-98036071D01*
X138128214Y-97988452D01*
X138223452Y-97940833D01*
X138461547Y-97940833D01*
X138556785Y-97988452D01*
X138604404Y-98036071D01*
X138652023Y-98131309D01*
X138652023Y-98369404D01*
X138604404Y-98464642D01*
X138556785Y-98512261D01*
X138461547Y-98559880D01*
X138223452Y-98559880D01*
X138128214Y-98512261D01*
X138080595Y-98464642D01*
%TO.C,D35*%
X136904464Y-112202380D02*
X136904464Y-111202380D01*
X137142559Y-111202380D01*
X137285416Y-111250000D01*
X137380654Y-111345238D01*
X137428273Y-111440476D01*
X137475892Y-111630952D01*
X137475892Y-111773809D01*
X137428273Y-111964285D01*
X137380654Y-112059523D01*
X137285416Y-112154761D01*
X137142559Y-112202380D01*
X136904464Y-112202380D01*
X137809226Y-111202380D02*
X138428273Y-111202380D01*
X138094940Y-111583333D01*
X138237797Y-111583333D01*
X138333035Y-111630952D01*
X138380654Y-111678571D01*
X138428273Y-111773809D01*
X138428273Y-112011904D01*
X138380654Y-112107142D01*
X138333035Y-112154761D01*
X138237797Y-112202380D01*
X137952083Y-112202380D01*
X137856845Y-112154761D01*
X137809226Y-112107142D01*
X139333035Y-111202380D02*
X138856845Y-111202380D01*
X138809226Y-111678571D01*
X138856845Y-111630952D01*
X138952083Y-111583333D01*
X139190178Y-111583333D01*
X139285416Y-111630952D01*
X139333035Y-111678571D01*
X139380654Y-111773809D01*
X139380654Y-112011904D01*
X139333035Y-112107142D01*
X139285416Y-112154761D01*
X139190178Y-112202380D01*
X138952083Y-112202380D01*
X138856845Y-112154761D01*
X138809226Y-112107142D01*
%TO.C,D28*%
X98804464Y-131252380D02*
X98804464Y-130252380D01*
X99042559Y-130252380D01*
X99185416Y-130300000D01*
X99280654Y-130395238D01*
X99328273Y-130490476D01*
X99375892Y-130680952D01*
X99375892Y-130823809D01*
X99328273Y-131014285D01*
X99280654Y-131109523D01*
X99185416Y-131204761D01*
X99042559Y-131252380D01*
X98804464Y-131252380D01*
X99756845Y-130347619D02*
X99804464Y-130300000D01*
X99899702Y-130252380D01*
X100137797Y-130252380D01*
X100233035Y-130300000D01*
X100280654Y-130347619D01*
X100328273Y-130442857D01*
X100328273Y-130538095D01*
X100280654Y-130680952D01*
X99709226Y-131252380D01*
X100328273Y-131252380D01*
X100899702Y-130680952D02*
X100804464Y-130633333D01*
X100756845Y-130585714D01*
X100709226Y-130490476D01*
X100709226Y-130442857D01*
X100756845Y-130347619D01*
X100804464Y-130300000D01*
X100899702Y-130252380D01*
X101090178Y-130252380D01*
X101185416Y-130300000D01*
X101233035Y-130347619D01*
X101280654Y-130442857D01*
X101280654Y-130490476D01*
X101233035Y-130585714D01*
X101185416Y-130633333D01*
X101090178Y-130680952D01*
X100899702Y-130680952D01*
X100804464Y-130728571D01*
X100756845Y-130776190D01*
X100709226Y-130871428D01*
X100709226Y-131061904D01*
X100756845Y-131157142D01*
X100804464Y-131204761D01*
X100899702Y-131252380D01*
X101090178Y-131252380D01*
X101185416Y-131204761D01*
X101233035Y-131157142D01*
X101280654Y-131061904D01*
X101280654Y-130871428D01*
X101233035Y-130776190D01*
X101185416Y-130728571D01*
X101090178Y-130680952D01*
%TO.C,D31*%
X117854464Y-112202380D02*
X117854464Y-111202380D01*
X118092559Y-111202380D01*
X118235416Y-111250000D01*
X118330654Y-111345238D01*
X118378273Y-111440476D01*
X118425892Y-111630952D01*
X118425892Y-111773809D01*
X118378273Y-111964285D01*
X118330654Y-112059523D01*
X118235416Y-112154761D01*
X118092559Y-112202380D01*
X117854464Y-112202380D01*
X118759226Y-111202380D02*
X119378273Y-111202380D01*
X119044940Y-111583333D01*
X119187797Y-111583333D01*
X119283035Y-111630952D01*
X119330654Y-111678571D01*
X119378273Y-111773809D01*
X119378273Y-112011904D01*
X119330654Y-112107142D01*
X119283035Y-112154761D01*
X119187797Y-112202380D01*
X118902083Y-112202380D01*
X118806845Y-112154761D01*
X118759226Y-112107142D01*
X120330654Y-112202380D02*
X119759226Y-112202380D01*
X120044940Y-112202380D02*
X120044940Y-111202380D01*
X119949702Y-111345238D01*
X119854464Y-111440476D01*
X119759226Y-111488095D01*
%TO.C,D42*%
X138647619Y-45623809D02*
X139647619Y-45623809D01*
X138647619Y-46195238D02*
X139219047Y-45766666D01*
X139647619Y-46195238D02*
X139076190Y-45623809D01*
X138695238Y-47004761D02*
X138647619Y-46909523D01*
X138647619Y-46719047D01*
X138695238Y-46623809D01*
X138790476Y-46576190D01*
X139171428Y-46576190D01*
X139266666Y-46623809D01*
X139314285Y-46719047D01*
X139314285Y-46909523D01*
X139266666Y-47004761D01*
X139171428Y-47052380D01*
X139076190Y-47052380D01*
X138980952Y-46576190D01*
X139314285Y-47385714D02*
X138647619Y-47623809D01*
X139314285Y-47861904D02*
X138647619Y-47623809D01*
X138409523Y-47528571D01*
X138361904Y-47480952D01*
X138314285Y-47385714D01*
X138552380Y-48004761D02*
X138552380Y-48766666D01*
X139647619Y-48861904D02*
X138647619Y-49195238D01*
X139647619Y-49528571D01*
X138647619Y-50290476D02*
X139171428Y-50290476D01*
X139266666Y-50242857D01*
X139314285Y-50147619D01*
X139314285Y-49957142D01*
X139266666Y-49861904D01*
X138695238Y-50290476D02*
X138647619Y-50195238D01*
X138647619Y-49957142D01*
X138695238Y-49861904D01*
X138790476Y-49814285D01*
X138885714Y-49814285D01*
X138980952Y-49861904D01*
X139028571Y-49957142D01*
X139028571Y-50195238D01*
X139076190Y-50290476D01*
X138647619Y-50909523D02*
X138695238Y-50814285D01*
X138790476Y-50766666D01*
X139647619Y-50766666D01*
X139314285Y-51719047D02*
X138647619Y-51719047D01*
X139314285Y-51290476D02*
X138790476Y-51290476D01*
X138695238Y-51338095D01*
X138647619Y-51433333D01*
X138647619Y-51576190D01*
X138695238Y-51671428D01*
X138742857Y-51719047D01*
X138695238Y-52576190D02*
X138647619Y-52480952D01*
X138647619Y-52290476D01*
X138695238Y-52195238D01*
X138790476Y-52147619D01*
X139171428Y-52147619D01*
X139266666Y-52195238D01*
X139314285Y-52290476D01*
X139314285Y-52480952D01*
X139266666Y-52576190D01*
X139171428Y-52623809D01*
X139076190Y-52623809D01*
X138980952Y-52147619D01*
%TO.C,D43*%
X158847619Y-45723809D02*
X159847619Y-45723809D01*
X158847619Y-46295238D02*
X159419047Y-45866666D01*
X159847619Y-46295238D02*
X159276190Y-45723809D01*
X158895238Y-47104761D02*
X158847619Y-47009523D01*
X158847619Y-46819047D01*
X158895238Y-46723809D01*
X158990476Y-46676190D01*
X159371428Y-46676190D01*
X159466666Y-46723809D01*
X159514285Y-46819047D01*
X159514285Y-47009523D01*
X159466666Y-47104761D01*
X159371428Y-47152380D01*
X159276190Y-47152380D01*
X159180952Y-46676190D01*
X159514285Y-47485714D02*
X158847619Y-47723809D01*
X159514285Y-47961904D02*
X158847619Y-47723809D01*
X158609523Y-47628571D01*
X158561904Y-47580952D01*
X158514285Y-47485714D01*
X158752380Y-48104761D02*
X158752380Y-48866666D01*
X159847619Y-48961904D02*
X158847619Y-49295238D01*
X159847619Y-49628571D01*
X158847619Y-50390476D02*
X159371428Y-50390476D01*
X159466666Y-50342857D01*
X159514285Y-50247619D01*
X159514285Y-50057142D01*
X159466666Y-49961904D01*
X158895238Y-50390476D02*
X158847619Y-50295238D01*
X158847619Y-50057142D01*
X158895238Y-49961904D01*
X158990476Y-49914285D01*
X159085714Y-49914285D01*
X159180952Y-49961904D01*
X159228571Y-50057142D01*
X159228571Y-50295238D01*
X159276190Y-50390476D01*
X158847619Y-51009523D02*
X158895238Y-50914285D01*
X158990476Y-50866666D01*
X159847619Y-50866666D01*
X159514285Y-51819047D02*
X158847619Y-51819047D01*
X159514285Y-51390476D02*
X158990476Y-51390476D01*
X158895238Y-51438095D01*
X158847619Y-51533333D01*
X158847619Y-51676190D01*
X158895238Y-51771428D01*
X158942857Y-51819047D01*
X158895238Y-52676190D02*
X158847619Y-52580952D01*
X158847619Y-52390476D01*
X158895238Y-52295238D01*
X158990476Y-52247619D01*
X159371428Y-52247619D01*
X159466666Y-52295238D01*
X159514285Y-52390476D01*
X159514285Y-52580952D01*
X159466666Y-52676190D01*
X159371428Y-52723809D01*
X159276190Y-52723809D01*
X159180952Y-52247619D01*
%TO.C,D1*%
X69548809Y-71127380D02*
X69548809Y-70127380D01*
X70120238Y-71127380D02*
X69691666Y-70555952D01*
X70120238Y-70127380D02*
X69548809Y-70698809D01*
X70929761Y-71079761D02*
X70834523Y-71127380D01*
X70644047Y-71127380D01*
X70548809Y-71079761D01*
X70501190Y-70984523D01*
X70501190Y-70603571D01*
X70548809Y-70508333D01*
X70644047Y-70460714D01*
X70834523Y-70460714D01*
X70929761Y-70508333D01*
X70977380Y-70603571D01*
X70977380Y-70698809D01*
X70501190Y-70794047D01*
X71310714Y-70460714D02*
X71548809Y-71127380D01*
X71786904Y-70460714D02*
X71548809Y-71127380D01*
X71453571Y-71365476D01*
X71405952Y-71413095D01*
X71310714Y-71460714D01*
X71929761Y-71222619D02*
X72691666Y-71222619D01*
X72786904Y-70127380D02*
X73120238Y-71127380D01*
X73453571Y-70127380D01*
X74215476Y-71127380D02*
X74215476Y-70603571D01*
X74167857Y-70508333D01*
X74072619Y-70460714D01*
X73882142Y-70460714D01*
X73786904Y-70508333D01*
X74215476Y-71079761D02*
X74120238Y-71127380D01*
X73882142Y-71127380D01*
X73786904Y-71079761D01*
X73739285Y-70984523D01*
X73739285Y-70889285D01*
X73786904Y-70794047D01*
X73882142Y-70746428D01*
X74120238Y-70746428D01*
X74215476Y-70698809D01*
X74834523Y-71127380D02*
X74739285Y-71079761D01*
X74691666Y-70984523D01*
X74691666Y-70127380D01*
X75644047Y-70460714D02*
X75644047Y-71127380D01*
X75215476Y-70460714D02*
X75215476Y-70984523D01*
X75263095Y-71079761D01*
X75358333Y-71127380D01*
X75501190Y-71127380D01*
X75596428Y-71079761D01*
X75644047Y-71032142D01*
X76501190Y-71079761D02*
X76405952Y-71127380D01*
X76215476Y-71127380D01*
X76120238Y-71079761D01*
X76072619Y-70984523D01*
X76072619Y-70603571D01*
X76120238Y-70508333D01*
X76215476Y-70460714D01*
X76405952Y-70460714D01*
X76501190Y-70508333D01*
X76548809Y-70603571D01*
X76548809Y-70698809D01*
X76072619Y-70794047D01*
%TO.C,D8*%
X86828869Y-119555059D02*
X87828869Y-119555059D01*
X86828869Y-120126488D02*
X87400297Y-119697916D01*
X87828869Y-120126488D02*
X87257440Y-119555059D01*
X86876488Y-120936011D02*
X86828869Y-120840773D01*
X86828869Y-120650297D01*
X86876488Y-120555059D01*
X86971726Y-120507440D01*
X87352678Y-120507440D01*
X87447916Y-120555059D01*
X87495535Y-120650297D01*
X87495535Y-120840773D01*
X87447916Y-120936011D01*
X87352678Y-120983630D01*
X87257440Y-120983630D01*
X87162202Y-120507440D01*
X87495535Y-121316964D02*
X86828869Y-121555059D01*
X87495535Y-121793154D02*
X86828869Y-121555059D01*
X86590773Y-121459821D01*
X86543154Y-121412202D01*
X86495535Y-121316964D01*
X86733630Y-121936011D02*
X86733630Y-122697916D01*
X87828869Y-122793154D02*
X86828869Y-123126488D01*
X87828869Y-123459821D01*
X86828869Y-124221726D02*
X87352678Y-124221726D01*
X87447916Y-124174107D01*
X87495535Y-124078869D01*
X87495535Y-123888392D01*
X87447916Y-123793154D01*
X86876488Y-124221726D02*
X86828869Y-124126488D01*
X86828869Y-123888392D01*
X86876488Y-123793154D01*
X86971726Y-123745535D01*
X87066964Y-123745535D01*
X87162202Y-123793154D01*
X87209821Y-123888392D01*
X87209821Y-124126488D01*
X87257440Y-124221726D01*
X86828869Y-124840773D02*
X86876488Y-124745535D01*
X86971726Y-124697916D01*
X87828869Y-124697916D01*
X87495535Y-125650297D02*
X86828869Y-125650297D01*
X87495535Y-125221726D02*
X86971726Y-125221726D01*
X86876488Y-125269345D01*
X86828869Y-125364583D01*
X86828869Y-125507440D01*
X86876488Y-125602678D01*
X86924107Y-125650297D01*
X86876488Y-126507440D02*
X86828869Y-126412202D01*
X86828869Y-126221726D01*
X86876488Y-126126488D01*
X86971726Y-126078869D01*
X87352678Y-126078869D01*
X87447916Y-126126488D01*
X87495535Y-126221726D01*
X87495535Y-126412202D01*
X87447916Y-126507440D01*
X87352678Y-126555059D01*
X87257440Y-126555059D01*
X87162202Y-126078869D01*
%TO.C,D17*%
X143978869Y-62405059D02*
X144978869Y-62405059D01*
X143978869Y-62976488D02*
X144550297Y-62547916D01*
X144978869Y-62976488D02*
X144407440Y-62405059D01*
X144026488Y-63786011D02*
X143978869Y-63690773D01*
X143978869Y-63500297D01*
X144026488Y-63405059D01*
X144121726Y-63357440D01*
X144502678Y-63357440D01*
X144597916Y-63405059D01*
X144645535Y-63500297D01*
X144645535Y-63690773D01*
X144597916Y-63786011D01*
X144502678Y-63833630D01*
X144407440Y-63833630D01*
X144312202Y-63357440D01*
X144645535Y-64166964D02*
X143978869Y-64405059D01*
X144645535Y-64643154D02*
X143978869Y-64405059D01*
X143740773Y-64309821D01*
X143693154Y-64262202D01*
X143645535Y-64166964D01*
X143883630Y-64786011D02*
X143883630Y-65547916D01*
X144978869Y-65643154D02*
X143978869Y-65976488D01*
X144978869Y-66309821D01*
X143978869Y-67071726D02*
X144502678Y-67071726D01*
X144597916Y-67024107D01*
X144645535Y-66928869D01*
X144645535Y-66738392D01*
X144597916Y-66643154D01*
X144026488Y-67071726D02*
X143978869Y-66976488D01*
X143978869Y-66738392D01*
X144026488Y-66643154D01*
X144121726Y-66595535D01*
X144216964Y-66595535D01*
X144312202Y-66643154D01*
X144359821Y-66738392D01*
X144359821Y-66976488D01*
X144407440Y-67071726D01*
X143978869Y-67690773D02*
X144026488Y-67595535D01*
X144121726Y-67547916D01*
X144978869Y-67547916D01*
X144645535Y-68500297D02*
X143978869Y-68500297D01*
X144645535Y-68071726D02*
X144121726Y-68071726D01*
X144026488Y-68119345D01*
X143978869Y-68214583D01*
X143978869Y-68357440D01*
X144026488Y-68452678D01*
X144074107Y-68500297D01*
X144026488Y-69357440D02*
X143978869Y-69262202D01*
X143978869Y-69071726D01*
X144026488Y-68976488D01*
X144121726Y-68928869D01*
X144502678Y-68928869D01*
X144597916Y-68976488D01*
X144645535Y-69071726D01*
X144645535Y-69262202D01*
X144597916Y-69357440D01*
X144502678Y-69405059D01*
X144407440Y-69405059D01*
X144312202Y-68928869D01*
%TO.C,D16*%
X124928869Y-119555059D02*
X125928869Y-119555059D01*
X124928869Y-120126488D02*
X125500297Y-119697916D01*
X125928869Y-120126488D02*
X125357440Y-119555059D01*
X124976488Y-120936011D02*
X124928869Y-120840773D01*
X124928869Y-120650297D01*
X124976488Y-120555059D01*
X125071726Y-120507440D01*
X125452678Y-120507440D01*
X125547916Y-120555059D01*
X125595535Y-120650297D01*
X125595535Y-120840773D01*
X125547916Y-120936011D01*
X125452678Y-120983630D01*
X125357440Y-120983630D01*
X125262202Y-120507440D01*
X125595535Y-121316964D02*
X124928869Y-121555059D01*
X125595535Y-121793154D02*
X124928869Y-121555059D01*
X124690773Y-121459821D01*
X124643154Y-121412202D01*
X124595535Y-121316964D01*
X124833630Y-121936011D02*
X124833630Y-122697916D01*
X125928869Y-122793154D02*
X124928869Y-123126488D01*
X125928869Y-123459821D01*
X124928869Y-124221726D02*
X125452678Y-124221726D01*
X125547916Y-124174107D01*
X125595535Y-124078869D01*
X125595535Y-123888392D01*
X125547916Y-123793154D01*
X124976488Y-124221726D02*
X124928869Y-124126488D01*
X124928869Y-123888392D01*
X124976488Y-123793154D01*
X125071726Y-123745535D01*
X125166964Y-123745535D01*
X125262202Y-123793154D01*
X125309821Y-123888392D01*
X125309821Y-124126488D01*
X125357440Y-124221726D01*
X124928869Y-124840773D02*
X124976488Y-124745535D01*
X125071726Y-124697916D01*
X125928869Y-124697916D01*
X125595535Y-125650297D02*
X124928869Y-125650297D01*
X125595535Y-125221726D02*
X125071726Y-125221726D01*
X124976488Y-125269345D01*
X124928869Y-125364583D01*
X124928869Y-125507440D01*
X124976488Y-125602678D01*
X125024107Y-125650297D01*
X124976488Y-126507440D02*
X124928869Y-126412202D01*
X124928869Y-126221726D01*
X124976488Y-126126488D01*
X125071726Y-126078869D01*
X125452678Y-126078869D01*
X125547916Y-126126488D01*
X125595535Y-126221726D01*
X125595535Y-126412202D01*
X125547916Y-126507440D01*
X125452678Y-126555059D01*
X125357440Y-126555059D01*
X125262202Y-126078869D01*
%TO.C,D7*%
X86828869Y-100505059D02*
X87828869Y-100505059D01*
X86828869Y-101076488D02*
X87400297Y-100647916D01*
X87828869Y-101076488D02*
X87257440Y-100505059D01*
X86876488Y-101886011D02*
X86828869Y-101790773D01*
X86828869Y-101600297D01*
X86876488Y-101505059D01*
X86971726Y-101457440D01*
X87352678Y-101457440D01*
X87447916Y-101505059D01*
X87495535Y-101600297D01*
X87495535Y-101790773D01*
X87447916Y-101886011D01*
X87352678Y-101933630D01*
X87257440Y-101933630D01*
X87162202Y-101457440D01*
X87495535Y-102266964D02*
X86828869Y-102505059D01*
X87495535Y-102743154D02*
X86828869Y-102505059D01*
X86590773Y-102409821D01*
X86543154Y-102362202D01*
X86495535Y-102266964D01*
X86733630Y-102886011D02*
X86733630Y-103647916D01*
X87828869Y-103743154D02*
X86828869Y-104076488D01*
X87828869Y-104409821D01*
X86828869Y-105171726D02*
X87352678Y-105171726D01*
X87447916Y-105124107D01*
X87495535Y-105028869D01*
X87495535Y-104838392D01*
X87447916Y-104743154D01*
X86876488Y-105171726D02*
X86828869Y-105076488D01*
X86828869Y-104838392D01*
X86876488Y-104743154D01*
X86971726Y-104695535D01*
X87066964Y-104695535D01*
X87162202Y-104743154D01*
X87209821Y-104838392D01*
X87209821Y-105076488D01*
X87257440Y-105171726D01*
X86828869Y-105790773D02*
X86876488Y-105695535D01*
X86971726Y-105647916D01*
X87828869Y-105647916D01*
X87495535Y-106600297D02*
X86828869Y-106600297D01*
X87495535Y-106171726D02*
X86971726Y-106171726D01*
X86876488Y-106219345D01*
X86828869Y-106314583D01*
X86828869Y-106457440D01*
X86876488Y-106552678D01*
X86924107Y-106600297D01*
X86876488Y-107457440D02*
X86828869Y-107362202D01*
X86828869Y-107171726D01*
X86876488Y-107076488D01*
X86971726Y-107028869D01*
X87352678Y-107028869D01*
X87447916Y-107076488D01*
X87495535Y-107171726D01*
X87495535Y-107362202D01*
X87447916Y-107457440D01*
X87352678Y-107505059D01*
X87257440Y-107505059D01*
X87162202Y-107028869D01*
%TO.C,D3*%
X69548809Y-109227380D02*
X69548809Y-108227380D01*
X70120238Y-109227380D02*
X69691666Y-108655952D01*
X70120238Y-108227380D02*
X69548809Y-108798809D01*
X70929761Y-109179761D02*
X70834523Y-109227380D01*
X70644047Y-109227380D01*
X70548809Y-109179761D01*
X70501190Y-109084523D01*
X70501190Y-108703571D01*
X70548809Y-108608333D01*
X70644047Y-108560714D01*
X70834523Y-108560714D01*
X70929761Y-108608333D01*
X70977380Y-108703571D01*
X70977380Y-108798809D01*
X70501190Y-108894047D01*
X71310714Y-108560714D02*
X71548809Y-109227380D01*
X71786904Y-108560714D02*
X71548809Y-109227380D01*
X71453571Y-109465476D01*
X71405952Y-109513095D01*
X71310714Y-109560714D01*
X71929761Y-109322619D02*
X72691666Y-109322619D01*
X72786904Y-108227380D02*
X73120238Y-109227380D01*
X73453571Y-108227380D01*
X74215476Y-109227380D02*
X74215476Y-108703571D01*
X74167857Y-108608333D01*
X74072619Y-108560714D01*
X73882142Y-108560714D01*
X73786904Y-108608333D01*
X74215476Y-109179761D02*
X74120238Y-109227380D01*
X73882142Y-109227380D01*
X73786904Y-109179761D01*
X73739285Y-109084523D01*
X73739285Y-108989285D01*
X73786904Y-108894047D01*
X73882142Y-108846428D01*
X74120238Y-108846428D01*
X74215476Y-108798809D01*
X74834523Y-109227380D02*
X74739285Y-109179761D01*
X74691666Y-109084523D01*
X74691666Y-108227380D01*
X75644047Y-108560714D02*
X75644047Y-109227380D01*
X75215476Y-108560714D02*
X75215476Y-109084523D01*
X75263095Y-109179761D01*
X75358333Y-109227380D01*
X75501190Y-109227380D01*
X75596428Y-109179761D01*
X75644047Y-109132142D01*
X76501190Y-109179761D02*
X76405952Y-109227380D01*
X76215476Y-109227380D01*
X76120238Y-109179761D01*
X76072619Y-109084523D01*
X76072619Y-108703571D01*
X76120238Y-108608333D01*
X76215476Y-108560714D01*
X76405952Y-108560714D01*
X76501190Y-108608333D01*
X76548809Y-108703571D01*
X76548809Y-108798809D01*
X76072619Y-108894047D01*
%TO.C,D12*%
X105878869Y-119555059D02*
X106878869Y-119555059D01*
X105878869Y-120126488D02*
X106450297Y-119697916D01*
X106878869Y-120126488D02*
X106307440Y-119555059D01*
X105926488Y-120936011D02*
X105878869Y-120840773D01*
X105878869Y-120650297D01*
X105926488Y-120555059D01*
X106021726Y-120507440D01*
X106402678Y-120507440D01*
X106497916Y-120555059D01*
X106545535Y-120650297D01*
X106545535Y-120840773D01*
X106497916Y-120936011D01*
X106402678Y-120983630D01*
X106307440Y-120983630D01*
X106212202Y-120507440D01*
X106545535Y-121316964D02*
X105878869Y-121555059D01*
X106545535Y-121793154D02*
X105878869Y-121555059D01*
X105640773Y-121459821D01*
X105593154Y-121412202D01*
X105545535Y-121316964D01*
X105783630Y-121936011D02*
X105783630Y-122697916D01*
X106878869Y-122793154D02*
X105878869Y-123126488D01*
X106878869Y-123459821D01*
X105878869Y-124221726D02*
X106402678Y-124221726D01*
X106497916Y-124174107D01*
X106545535Y-124078869D01*
X106545535Y-123888392D01*
X106497916Y-123793154D01*
X105926488Y-124221726D02*
X105878869Y-124126488D01*
X105878869Y-123888392D01*
X105926488Y-123793154D01*
X106021726Y-123745535D01*
X106116964Y-123745535D01*
X106212202Y-123793154D01*
X106259821Y-123888392D01*
X106259821Y-124126488D01*
X106307440Y-124221726D01*
X105878869Y-124840773D02*
X105926488Y-124745535D01*
X106021726Y-124697916D01*
X106878869Y-124697916D01*
X106545535Y-125650297D02*
X105878869Y-125650297D01*
X106545535Y-125221726D02*
X106021726Y-125221726D01*
X105926488Y-125269345D01*
X105878869Y-125364583D01*
X105878869Y-125507440D01*
X105926488Y-125602678D01*
X105974107Y-125650297D01*
X105926488Y-126507440D02*
X105878869Y-126412202D01*
X105878869Y-126221726D01*
X105926488Y-126126488D01*
X106021726Y-126078869D01*
X106402678Y-126078869D01*
X106497916Y-126126488D01*
X106545535Y-126221726D01*
X106545535Y-126412202D01*
X106497916Y-126507440D01*
X106402678Y-126555059D01*
X106307440Y-126555059D01*
X106212202Y-126078869D01*
%TO.C,D5*%
X86828869Y-62405059D02*
X87828869Y-62405059D01*
X86828869Y-62976488D02*
X87400297Y-62547916D01*
X87828869Y-62976488D02*
X87257440Y-62405059D01*
X86876488Y-63786011D02*
X86828869Y-63690773D01*
X86828869Y-63500297D01*
X86876488Y-63405059D01*
X86971726Y-63357440D01*
X87352678Y-63357440D01*
X87447916Y-63405059D01*
X87495535Y-63500297D01*
X87495535Y-63690773D01*
X87447916Y-63786011D01*
X87352678Y-63833630D01*
X87257440Y-63833630D01*
X87162202Y-63357440D01*
X87495535Y-64166964D02*
X86828869Y-64405059D01*
X87495535Y-64643154D02*
X86828869Y-64405059D01*
X86590773Y-64309821D01*
X86543154Y-64262202D01*
X86495535Y-64166964D01*
X86733630Y-64786011D02*
X86733630Y-65547916D01*
X87828869Y-65643154D02*
X86828869Y-65976488D01*
X87828869Y-66309821D01*
X86828869Y-67071726D02*
X87352678Y-67071726D01*
X87447916Y-67024107D01*
X87495535Y-66928869D01*
X87495535Y-66738392D01*
X87447916Y-66643154D01*
X86876488Y-67071726D02*
X86828869Y-66976488D01*
X86828869Y-66738392D01*
X86876488Y-66643154D01*
X86971726Y-66595535D01*
X87066964Y-66595535D01*
X87162202Y-66643154D01*
X87209821Y-66738392D01*
X87209821Y-66976488D01*
X87257440Y-67071726D01*
X86828869Y-67690773D02*
X86876488Y-67595535D01*
X86971726Y-67547916D01*
X87828869Y-67547916D01*
X87495535Y-68500297D02*
X86828869Y-68500297D01*
X87495535Y-68071726D02*
X86971726Y-68071726D01*
X86876488Y-68119345D01*
X86828869Y-68214583D01*
X86828869Y-68357440D01*
X86876488Y-68452678D01*
X86924107Y-68500297D01*
X86876488Y-69357440D02*
X86828869Y-69262202D01*
X86828869Y-69071726D01*
X86876488Y-68976488D01*
X86971726Y-68928869D01*
X87352678Y-68928869D01*
X87447916Y-68976488D01*
X87495535Y-69071726D01*
X87495535Y-69262202D01*
X87447916Y-69357440D01*
X87352678Y-69405059D01*
X87257440Y-69405059D01*
X87162202Y-68928869D01*
%TO.C,D18*%
X143978869Y-81455059D02*
X144978869Y-81455059D01*
X143978869Y-82026488D02*
X144550297Y-81597916D01*
X144978869Y-82026488D02*
X144407440Y-81455059D01*
X144026488Y-82836011D02*
X143978869Y-82740773D01*
X143978869Y-82550297D01*
X144026488Y-82455059D01*
X144121726Y-82407440D01*
X144502678Y-82407440D01*
X144597916Y-82455059D01*
X144645535Y-82550297D01*
X144645535Y-82740773D01*
X144597916Y-82836011D01*
X144502678Y-82883630D01*
X144407440Y-82883630D01*
X144312202Y-82407440D01*
X144645535Y-83216964D02*
X143978869Y-83455059D01*
X144645535Y-83693154D02*
X143978869Y-83455059D01*
X143740773Y-83359821D01*
X143693154Y-83312202D01*
X143645535Y-83216964D01*
X143883630Y-83836011D02*
X143883630Y-84597916D01*
X144978869Y-84693154D02*
X143978869Y-85026488D01*
X144978869Y-85359821D01*
X143978869Y-86121726D02*
X144502678Y-86121726D01*
X144597916Y-86074107D01*
X144645535Y-85978869D01*
X144645535Y-85788392D01*
X144597916Y-85693154D01*
X144026488Y-86121726D02*
X143978869Y-86026488D01*
X143978869Y-85788392D01*
X144026488Y-85693154D01*
X144121726Y-85645535D01*
X144216964Y-85645535D01*
X144312202Y-85693154D01*
X144359821Y-85788392D01*
X144359821Y-86026488D01*
X144407440Y-86121726D01*
X143978869Y-86740773D02*
X144026488Y-86645535D01*
X144121726Y-86597916D01*
X144978869Y-86597916D01*
X144645535Y-87550297D02*
X143978869Y-87550297D01*
X144645535Y-87121726D02*
X144121726Y-87121726D01*
X144026488Y-87169345D01*
X143978869Y-87264583D01*
X143978869Y-87407440D01*
X144026488Y-87502678D01*
X144074107Y-87550297D01*
X144026488Y-88407440D02*
X143978869Y-88312202D01*
X143978869Y-88121726D01*
X144026488Y-88026488D01*
X144121726Y-87978869D01*
X144502678Y-87978869D01*
X144597916Y-88026488D01*
X144645535Y-88121726D01*
X144645535Y-88312202D01*
X144597916Y-88407440D01*
X144502678Y-88455059D01*
X144407440Y-88455059D01*
X144312202Y-87978869D01*
%TO.C,D2*%
X69548809Y-90177380D02*
X69548809Y-89177380D01*
X70120238Y-90177380D02*
X69691666Y-89605952D01*
X70120238Y-89177380D02*
X69548809Y-89748809D01*
X70929761Y-90129761D02*
X70834523Y-90177380D01*
X70644047Y-90177380D01*
X70548809Y-90129761D01*
X70501190Y-90034523D01*
X70501190Y-89653571D01*
X70548809Y-89558333D01*
X70644047Y-89510714D01*
X70834523Y-89510714D01*
X70929761Y-89558333D01*
X70977380Y-89653571D01*
X70977380Y-89748809D01*
X70501190Y-89844047D01*
X71310714Y-89510714D02*
X71548809Y-90177380D01*
X71786904Y-89510714D02*
X71548809Y-90177380D01*
X71453571Y-90415476D01*
X71405952Y-90463095D01*
X71310714Y-90510714D01*
X71929761Y-90272619D02*
X72691666Y-90272619D01*
X72786904Y-89177380D02*
X73120238Y-90177380D01*
X73453571Y-89177380D01*
X74215476Y-90177380D02*
X74215476Y-89653571D01*
X74167857Y-89558333D01*
X74072619Y-89510714D01*
X73882142Y-89510714D01*
X73786904Y-89558333D01*
X74215476Y-90129761D02*
X74120238Y-90177380D01*
X73882142Y-90177380D01*
X73786904Y-90129761D01*
X73739285Y-90034523D01*
X73739285Y-89939285D01*
X73786904Y-89844047D01*
X73882142Y-89796428D01*
X74120238Y-89796428D01*
X74215476Y-89748809D01*
X74834523Y-90177380D02*
X74739285Y-90129761D01*
X74691666Y-90034523D01*
X74691666Y-89177380D01*
X75644047Y-89510714D02*
X75644047Y-90177380D01*
X75215476Y-89510714D02*
X75215476Y-90034523D01*
X75263095Y-90129761D01*
X75358333Y-90177380D01*
X75501190Y-90177380D01*
X75596428Y-90129761D01*
X75644047Y-90082142D01*
X76501190Y-90129761D02*
X76405952Y-90177380D01*
X76215476Y-90177380D01*
X76120238Y-90129761D01*
X76072619Y-90034523D01*
X76072619Y-89653571D01*
X76120238Y-89558333D01*
X76215476Y-89510714D01*
X76405952Y-89510714D01*
X76501190Y-89558333D01*
X76548809Y-89653571D01*
X76548809Y-89748809D01*
X76072619Y-89844047D01*
%TO.C,D10*%
X105878869Y-81455059D02*
X106878869Y-81455059D01*
X105878869Y-82026488D02*
X106450297Y-81597916D01*
X106878869Y-82026488D02*
X106307440Y-81455059D01*
X105926488Y-82836011D02*
X105878869Y-82740773D01*
X105878869Y-82550297D01*
X105926488Y-82455059D01*
X106021726Y-82407440D01*
X106402678Y-82407440D01*
X106497916Y-82455059D01*
X106545535Y-82550297D01*
X106545535Y-82740773D01*
X106497916Y-82836011D01*
X106402678Y-82883630D01*
X106307440Y-82883630D01*
X106212202Y-82407440D01*
X106545535Y-83216964D02*
X105878869Y-83455059D01*
X106545535Y-83693154D02*
X105878869Y-83455059D01*
X105640773Y-83359821D01*
X105593154Y-83312202D01*
X105545535Y-83216964D01*
X105783630Y-83836011D02*
X105783630Y-84597916D01*
X106878869Y-84693154D02*
X105878869Y-85026488D01*
X106878869Y-85359821D01*
X105878869Y-86121726D02*
X106402678Y-86121726D01*
X106497916Y-86074107D01*
X106545535Y-85978869D01*
X106545535Y-85788392D01*
X106497916Y-85693154D01*
X105926488Y-86121726D02*
X105878869Y-86026488D01*
X105878869Y-85788392D01*
X105926488Y-85693154D01*
X106021726Y-85645535D01*
X106116964Y-85645535D01*
X106212202Y-85693154D01*
X106259821Y-85788392D01*
X106259821Y-86026488D01*
X106307440Y-86121726D01*
X105878869Y-86740773D02*
X105926488Y-86645535D01*
X106021726Y-86597916D01*
X106878869Y-86597916D01*
X106545535Y-87550297D02*
X105878869Y-87550297D01*
X106545535Y-87121726D02*
X106021726Y-87121726D01*
X105926488Y-87169345D01*
X105878869Y-87264583D01*
X105878869Y-87407440D01*
X105926488Y-87502678D01*
X105974107Y-87550297D01*
X105926488Y-88407440D02*
X105878869Y-88312202D01*
X105878869Y-88121726D01*
X105926488Y-88026488D01*
X106021726Y-87978869D01*
X106402678Y-87978869D01*
X106497916Y-88026488D01*
X106545535Y-88121726D01*
X106545535Y-88312202D01*
X106497916Y-88407440D01*
X106402678Y-88455059D01*
X106307440Y-88455059D01*
X106212202Y-87978869D01*
%TO.C,D11*%
X105878869Y-100505059D02*
X106878869Y-100505059D01*
X105878869Y-101076488D02*
X106450297Y-100647916D01*
X106878869Y-101076488D02*
X106307440Y-100505059D01*
X105926488Y-101886011D02*
X105878869Y-101790773D01*
X105878869Y-101600297D01*
X105926488Y-101505059D01*
X106021726Y-101457440D01*
X106402678Y-101457440D01*
X106497916Y-101505059D01*
X106545535Y-101600297D01*
X106545535Y-101790773D01*
X106497916Y-101886011D01*
X106402678Y-101933630D01*
X106307440Y-101933630D01*
X106212202Y-101457440D01*
X106545535Y-102266964D02*
X105878869Y-102505059D01*
X106545535Y-102743154D02*
X105878869Y-102505059D01*
X105640773Y-102409821D01*
X105593154Y-102362202D01*
X105545535Y-102266964D01*
X105783630Y-102886011D02*
X105783630Y-103647916D01*
X106878869Y-103743154D02*
X105878869Y-104076488D01*
X106878869Y-104409821D01*
X105878869Y-105171726D02*
X106402678Y-105171726D01*
X106497916Y-105124107D01*
X106545535Y-105028869D01*
X106545535Y-104838392D01*
X106497916Y-104743154D01*
X105926488Y-105171726D02*
X105878869Y-105076488D01*
X105878869Y-104838392D01*
X105926488Y-104743154D01*
X106021726Y-104695535D01*
X106116964Y-104695535D01*
X106212202Y-104743154D01*
X106259821Y-104838392D01*
X106259821Y-105076488D01*
X106307440Y-105171726D01*
X105878869Y-105790773D02*
X105926488Y-105695535D01*
X106021726Y-105647916D01*
X106878869Y-105647916D01*
X106545535Y-106600297D02*
X105878869Y-106600297D01*
X106545535Y-106171726D02*
X106021726Y-106171726D01*
X105926488Y-106219345D01*
X105878869Y-106314583D01*
X105878869Y-106457440D01*
X105926488Y-106552678D01*
X105974107Y-106600297D01*
X105926488Y-107457440D02*
X105878869Y-107362202D01*
X105878869Y-107171726D01*
X105926488Y-107076488D01*
X106021726Y-107028869D01*
X106402678Y-107028869D01*
X106497916Y-107076488D01*
X106545535Y-107171726D01*
X106545535Y-107362202D01*
X106497916Y-107457440D01*
X106402678Y-107505059D01*
X106307440Y-107505059D01*
X106212202Y-107028869D01*
%TO.C,D14*%
X124928869Y-81455059D02*
X125928869Y-81455059D01*
X124928869Y-82026488D02*
X125500297Y-81597916D01*
X125928869Y-82026488D02*
X125357440Y-81455059D01*
X124976488Y-82836011D02*
X124928869Y-82740773D01*
X124928869Y-82550297D01*
X124976488Y-82455059D01*
X125071726Y-82407440D01*
X125452678Y-82407440D01*
X125547916Y-82455059D01*
X125595535Y-82550297D01*
X125595535Y-82740773D01*
X125547916Y-82836011D01*
X125452678Y-82883630D01*
X125357440Y-82883630D01*
X125262202Y-82407440D01*
X125595535Y-83216964D02*
X124928869Y-83455059D01*
X125595535Y-83693154D02*
X124928869Y-83455059D01*
X124690773Y-83359821D01*
X124643154Y-83312202D01*
X124595535Y-83216964D01*
X124833630Y-83836011D02*
X124833630Y-84597916D01*
X125928869Y-84693154D02*
X124928869Y-85026488D01*
X125928869Y-85359821D01*
X124928869Y-86121726D02*
X125452678Y-86121726D01*
X125547916Y-86074107D01*
X125595535Y-85978869D01*
X125595535Y-85788392D01*
X125547916Y-85693154D01*
X124976488Y-86121726D02*
X124928869Y-86026488D01*
X124928869Y-85788392D01*
X124976488Y-85693154D01*
X125071726Y-85645535D01*
X125166964Y-85645535D01*
X125262202Y-85693154D01*
X125309821Y-85788392D01*
X125309821Y-86026488D01*
X125357440Y-86121726D01*
X124928869Y-86740773D02*
X124976488Y-86645535D01*
X125071726Y-86597916D01*
X125928869Y-86597916D01*
X125595535Y-87550297D02*
X124928869Y-87550297D01*
X125595535Y-87121726D02*
X125071726Y-87121726D01*
X124976488Y-87169345D01*
X124928869Y-87264583D01*
X124928869Y-87407440D01*
X124976488Y-87502678D01*
X125024107Y-87550297D01*
X124976488Y-88407440D02*
X124928869Y-88312202D01*
X124928869Y-88121726D01*
X124976488Y-88026488D01*
X125071726Y-87978869D01*
X125452678Y-87978869D01*
X125547916Y-88026488D01*
X125595535Y-88121726D01*
X125595535Y-88312202D01*
X125547916Y-88407440D01*
X125452678Y-88455059D01*
X125357440Y-88455059D01*
X125262202Y-87978869D01*
%TO.C,D6*%
X86828869Y-81455059D02*
X87828869Y-81455059D01*
X86828869Y-82026488D02*
X87400297Y-81597916D01*
X87828869Y-82026488D02*
X87257440Y-81455059D01*
X86876488Y-82836011D02*
X86828869Y-82740773D01*
X86828869Y-82550297D01*
X86876488Y-82455059D01*
X86971726Y-82407440D01*
X87352678Y-82407440D01*
X87447916Y-82455059D01*
X87495535Y-82550297D01*
X87495535Y-82740773D01*
X87447916Y-82836011D01*
X87352678Y-82883630D01*
X87257440Y-82883630D01*
X87162202Y-82407440D01*
X87495535Y-83216964D02*
X86828869Y-83455059D01*
X87495535Y-83693154D02*
X86828869Y-83455059D01*
X86590773Y-83359821D01*
X86543154Y-83312202D01*
X86495535Y-83216964D01*
X86733630Y-83836011D02*
X86733630Y-84597916D01*
X87828869Y-84693154D02*
X86828869Y-85026488D01*
X87828869Y-85359821D01*
X86828869Y-86121726D02*
X87352678Y-86121726D01*
X87447916Y-86074107D01*
X87495535Y-85978869D01*
X87495535Y-85788392D01*
X87447916Y-85693154D01*
X86876488Y-86121726D02*
X86828869Y-86026488D01*
X86828869Y-85788392D01*
X86876488Y-85693154D01*
X86971726Y-85645535D01*
X87066964Y-85645535D01*
X87162202Y-85693154D01*
X87209821Y-85788392D01*
X87209821Y-86026488D01*
X87257440Y-86121726D01*
X86828869Y-86740773D02*
X86876488Y-86645535D01*
X86971726Y-86597916D01*
X87828869Y-86597916D01*
X87495535Y-87550297D02*
X86828869Y-87550297D01*
X87495535Y-87121726D02*
X86971726Y-87121726D01*
X86876488Y-87169345D01*
X86828869Y-87264583D01*
X86828869Y-87407440D01*
X86876488Y-87502678D01*
X86924107Y-87550297D01*
X86876488Y-88407440D02*
X86828869Y-88312202D01*
X86828869Y-88121726D01*
X86876488Y-88026488D01*
X86971726Y-87978869D01*
X87352678Y-87978869D01*
X87447916Y-88026488D01*
X87495535Y-88121726D01*
X87495535Y-88312202D01*
X87447916Y-88407440D01*
X87352678Y-88455059D01*
X87257440Y-88455059D01*
X87162202Y-87978869D01*
%TO.C,D4*%
X69548809Y-128277380D02*
X69548809Y-127277380D01*
X70120238Y-128277380D02*
X69691666Y-127705952D01*
X70120238Y-127277380D02*
X69548809Y-127848809D01*
X70929761Y-128229761D02*
X70834523Y-128277380D01*
X70644047Y-128277380D01*
X70548809Y-128229761D01*
X70501190Y-128134523D01*
X70501190Y-127753571D01*
X70548809Y-127658333D01*
X70644047Y-127610714D01*
X70834523Y-127610714D01*
X70929761Y-127658333D01*
X70977380Y-127753571D01*
X70977380Y-127848809D01*
X70501190Y-127944047D01*
X71310714Y-127610714D02*
X71548809Y-128277380D01*
X71786904Y-127610714D02*
X71548809Y-128277380D01*
X71453571Y-128515476D01*
X71405952Y-128563095D01*
X71310714Y-128610714D01*
X71929761Y-128372619D02*
X72691666Y-128372619D01*
X72786904Y-127277380D02*
X73120238Y-128277380D01*
X73453571Y-127277380D01*
X74215476Y-128277380D02*
X74215476Y-127753571D01*
X74167857Y-127658333D01*
X74072619Y-127610714D01*
X73882142Y-127610714D01*
X73786904Y-127658333D01*
X74215476Y-128229761D02*
X74120238Y-128277380D01*
X73882142Y-128277380D01*
X73786904Y-128229761D01*
X73739285Y-128134523D01*
X73739285Y-128039285D01*
X73786904Y-127944047D01*
X73882142Y-127896428D01*
X74120238Y-127896428D01*
X74215476Y-127848809D01*
X74834523Y-128277380D02*
X74739285Y-128229761D01*
X74691666Y-128134523D01*
X74691666Y-127277380D01*
X75644047Y-127610714D02*
X75644047Y-128277380D01*
X75215476Y-127610714D02*
X75215476Y-128134523D01*
X75263095Y-128229761D01*
X75358333Y-128277380D01*
X75501190Y-128277380D01*
X75596428Y-128229761D01*
X75644047Y-128182142D01*
X76501190Y-128229761D02*
X76405952Y-128277380D01*
X76215476Y-128277380D01*
X76120238Y-128229761D01*
X76072619Y-128134523D01*
X76072619Y-127753571D01*
X76120238Y-127658333D01*
X76215476Y-127610714D01*
X76405952Y-127610714D01*
X76501190Y-127658333D01*
X76548809Y-127753571D01*
X76548809Y-127848809D01*
X76072619Y-127944047D01*
%TO.C,D13*%
X124928869Y-62405059D02*
X125928869Y-62405059D01*
X124928869Y-62976488D02*
X125500297Y-62547916D01*
X125928869Y-62976488D02*
X125357440Y-62405059D01*
X124976488Y-63786011D02*
X124928869Y-63690773D01*
X124928869Y-63500297D01*
X124976488Y-63405059D01*
X125071726Y-63357440D01*
X125452678Y-63357440D01*
X125547916Y-63405059D01*
X125595535Y-63500297D01*
X125595535Y-63690773D01*
X125547916Y-63786011D01*
X125452678Y-63833630D01*
X125357440Y-63833630D01*
X125262202Y-63357440D01*
X125595535Y-64166964D02*
X124928869Y-64405059D01*
X125595535Y-64643154D02*
X124928869Y-64405059D01*
X124690773Y-64309821D01*
X124643154Y-64262202D01*
X124595535Y-64166964D01*
X124833630Y-64786011D02*
X124833630Y-65547916D01*
X125928869Y-65643154D02*
X124928869Y-65976488D01*
X125928869Y-66309821D01*
X124928869Y-67071726D02*
X125452678Y-67071726D01*
X125547916Y-67024107D01*
X125595535Y-66928869D01*
X125595535Y-66738392D01*
X125547916Y-66643154D01*
X124976488Y-67071726D02*
X124928869Y-66976488D01*
X124928869Y-66738392D01*
X124976488Y-66643154D01*
X125071726Y-66595535D01*
X125166964Y-66595535D01*
X125262202Y-66643154D01*
X125309821Y-66738392D01*
X125309821Y-66976488D01*
X125357440Y-67071726D01*
X124928869Y-67690773D02*
X124976488Y-67595535D01*
X125071726Y-67547916D01*
X125928869Y-67547916D01*
X125595535Y-68500297D02*
X124928869Y-68500297D01*
X125595535Y-68071726D02*
X125071726Y-68071726D01*
X124976488Y-68119345D01*
X124928869Y-68214583D01*
X124928869Y-68357440D01*
X124976488Y-68452678D01*
X125024107Y-68500297D01*
X124976488Y-69357440D02*
X124928869Y-69262202D01*
X124928869Y-69071726D01*
X124976488Y-68976488D01*
X125071726Y-68928869D01*
X125452678Y-68928869D01*
X125547916Y-68976488D01*
X125595535Y-69071726D01*
X125595535Y-69262202D01*
X125547916Y-69357440D01*
X125452678Y-69405059D01*
X125357440Y-69405059D01*
X125262202Y-68928869D01*
%TO.C,D9*%
X105878869Y-62405059D02*
X106878869Y-62405059D01*
X105878869Y-62976488D02*
X106450297Y-62547916D01*
X106878869Y-62976488D02*
X106307440Y-62405059D01*
X105926488Y-63786011D02*
X105878869Y-63690773D01*
X105878869Y-63500297D01*
X105926488Y-63405059D01*
X106021726Y-63357440D01*
X106402678Y-63357440D01*
X106497916Y-63405059D01*
X106545535Y-63500297D01*
X106545535Y-63690773D01*
X106497916Y-63786011D01*
X106402678Y-63833630D01*
X106307440Y-63833630D01*
X106212202Y-63357440D01*
X106545535Y-64166964D02*
X105878869Y-64405059D01*
X106545535Y-64643154D02*
X105878869Y-64405059D01*
X105640773Y-64309821D01*
X105593154Y-64262202D01*
X105545535Y-64166964D01*
X105783630Y-64786011D02*
X105783630Y-65547916D01*
X106878869Y-65643154D02*
X105878869Y-65976488D01*
X106878869Y-66309821D01*
X105878869Y-67071726D02*
X106402678Y-67071726D01*
X106497916Y-67024107D01*
X106545535Y-66928869D01*
X106545535Y-66738392D01*
X106497916Y-66643154D01*
X105926488Y-67071726D02*
X105878869Y-66976488D01*
X105878869Y-66738392D01*
X105926488Y-66643154D01*
X106021726Y-66595535D01*
X106116964Y-66595535D01*
X106212202Y-66643154D01*
X106259821Y-66738392D01*
X106259821Y-66976488D01*
X106307440Y-67071726D01*
X105878869Y-67690773D02*
X105926488Y-67595535D01*
X106021726Y-67547916D01*
X106878869Y-67547916D01*
X106545535Y-68500297D02*
X105878869Y-68500297D01*
X106545535Y-68071726D02*
X106021726Y-68071726D01*
X105926488Y-68119345D01*
X105878869Y-68214583D01*
X105878869Y-68357440D01*
X105926488Y-68452678D01*
X105974107Y-68500297D01*
X105926488Y-69357440D02*
X105878869Y-69262202D01*
X105878869Y-69071726D01*
X105926488Y-68976488D01*
X106021726Y-68928869D01*
X106402678Y-68928869D01*
X106497916Y-68976488D01*
X106545535Y-69071726D01*
X106545535Y-69262202D01*
X106497916Y-69357440D01*
X106402678Y-69405059D01*
X106307440Y-69405059D01*
X106212202Y-68928869D01*
%TO.C,D19*%
X143978869Y-100505059D02*
X144978869Y-100505059D01*
X143978869Y-101076488D02*
X144550297Y-100647916D01*
X144978869Y-101076488D02*
X144407440Y-100505059D01*
X144026488Y-101886011D02*
X143978869Y-101790773D01*
X143978869Y-101600297D01*
X144026488Y-101505059D01*
X144121726Y-101457440D01*
X144502678Y-101457440D01*
X144597916Y-101505059D01*
X144645535Y-101600297D01*
X144645535Y-101790773D01*
X144597916Y-101886011D01*
X144502678Y-101933630D01*
X144407440Y-101933630D01*
X144312202Y-101457440D01*
X144645535Y-102266964D02*
X143978869Y-102505059D01*
X144645535Y-102743154D02*
X143978869Y-102505059D01*
X143740773Y-102409821D01*
X143693154Y-102362202D01*
X143645535Y-102266964D01*
X143883630Y-102886011D02*
X143883630Y-103647916D01*
X144978869Y-103743154D02*
X143978869Y-104076488D01*
X144978869Y-104409821D01*
X143978869Y-105171726D02*
X144502678Y-105171726D01*
X144597916Y-105124107D01*
X144645535Y-105028869D01*
X144645535Y-104838392D01*
X144597916Y-104743154D01*
X144026488Y-105171726D02*
X143978869Y-105076488D01*
X143978869Y-104838392D01*
X144026488Y-104743154D01*
X144121726Y-104695535D01*
X144216964Y-104695535D01*
X144312202Y-104743154D01*
X144359821Y-104838392D01*
X144359821Y-105076488D01*
X144407440Y-105171726D01*
X143978869Y-105790773D02*
X144026488Y-105695535D01*
X144121726Y-105647916D01*
X144978869Y-105647916D01*
X144645535Y-106600297D02*
X143978869Y-106600297D01*
X144645535Y-106171726D02*
X144121726Y-106171726D01*
X144026488Y-106219345D01*
X143978869Y-106314583D01*
X143978869Y-106457440D01*
X144026488Y-106552678D01*
X144074107Y-106600297D01*
X144026488Y-107457440D02*
X143978869Y-107362202D01*
X143978869Y-107171726D01*
X144026488Y-107076488D01*
X144121726Y-107028869D01*
X144502678Y-107028869D01*
X144597916Y-107076488D01*
X144645535Y-107171726D01*
X144645535Y-107362202D01*
X144597916Y-107457440D01*
X144502678Y-107505059D01*
X144407440Y-107505059D01*
X144312202Y-107028869D01*
%TO.C,D20*%
X143978869Y-119555059D02*
X144978869Y-119555059D01*
X143978869Y-120126488D02*
X144550297Y-119697916D01*
X144978869Y-120126488D02*
X144407440Y-119555059D01*
X144026488Y-120936011D02*
X143978869Y-120840773D01*
X143978869Y-120650297D01*
X144026488Y-120555059D01*
X144121726Y-120507440D01*
X144502678Y-120507440D01*
X144597916Y-120555059D01*
X144645535Y-120650297D01*
X144645535Y-120840773D01*
X144597916Y-120936011D01*
X144502678Y-120983630D01*
X144407440Y-120983630D01*
X144312202Y-120507440D01*
X144645535Y-121316964D02*
X143978869Y-121555059D01*
X144645535Y-121793154D02*
X143978869Y-121555059D01*
X143740773Y-121459821D01*
X143693154Y-121412202D01*
X143645535Y-121316964D01*
X143883630Y-121936011D02*
X143883630Y-122697916D01*
X144978869Y-122793154D02*
X143978869Y-123126488D01*
X144978869Y-123459821D01*
X143978869Y-124221726D02*
X144502678Y-124221726D01*
X144597916Y-124174107D01*
X144645535Y-124078869D01*
X144645535Y-123888392D01*
X144597916Y-123793154D01*
X144026488Y-124221726D02*
X143978869Y-124126488D01*
X143978869Y-123888392D01*
X144026488Y-123793154D01*
X144121726Y-123745535D01*
X144216964Y-123745535D01*
X144312202Y-123793154D01*
X144359821Y-123888392D01*
X144359821Y-124126488D01*
X144407440Y-124221726D01*
X143978869Y-124840773D02*
X144026488Y-124745535D01*
X144121726Y-124697916D01*
X144978869Y-124697916D01*
X144645535Y-125650297D02*
X143978869Y-125650297D01*
X144645535Y-125221726D02*
X144121726Y-125221726D01*
X144026488Y-125269345D01*
X143978869Y-125364583D01*
X143978869Y-125507440D01*
X144026488Y-125602678D01*
X144074107Y-125650297D01*
X144026488Y-126507440D02*
X143978869Y-126412202D01*
X143978869Y-126221726D01*
X144026488Y-126126488D01*
X144121726Y-126078869D01*
X144502678Y-126078869D01*
X144597916Y-126126488D01*
X144645535Y-126221726D01*
X144645535Y-126412202D01*
X144597916Y-126507440D01*
X144502678Y-126555059D01*
X144407440Y-126555059D01*
X144312202Y-126078869D01*
%TO.C,D15*%
X124928869Y-100505059D02*
X125928869Y-100505059D01*
X124928869Y-101076488D02*
X125500297Y-100647916D01*
X125928869Y-101076488D02*
X125357440Y-100505059D01*
X124976488Y-101886011D02*
X124928869Y-101790773D01*
X124928869Y-101600297D01*
X124976488Y-101505059D01*
X125071726Y-101457440D01*
X125452678Y-101457440D01*
X125547916Y-101505059D01*
X125595535Y-101600297D01*
X125595535Y-101790773D01*
X125547916Y-101886011D01*
X125452678Y-101933630D01*
X125357440Y-101933630D01*
X125262202Y-101457440D01*
X125595535Y-102266964D02*
X124928869Y-102505059D01*
X125595535Y-102743154D02*
X124928869Y-102505059D01*
X124690773Y-102409821D01*
X124643154Y-102362202D01*
X124595535Y-102266964D01*
X124833630Y-102886011D02*
X124833630Y-103647916D01*
X125928869Y-103743154D02*
X124928869Y-104076488D01*
X125928869Y-104409821D01*
X124928869Y-105171726D02*
X125452678Y-105171726D01*
X125547916Y-105124107D01*
X125595535Y-105028869D01*
X125595535Y-104838392D01*
X125547916Y-104743154D01*
X124976488Y-105171726D02*
X124928869Y-105076488D01*
X124928869Y-104838392D01*
X124976488Y-104743154D01*
X125071726Y-104695535D01*
X125166964Y-104695535D01*
X125262202Y-104743154D01*
X125309821Y-104838392D01*
X125309821Y-105076488D01*
X125357440Y-105171726D01*
X124928869Y-105790773D02*
X124976488Y-105695535D01*
X125071726Y-105647916D01*
X125928869Y-105647916D01*
X125595535Y-106600297D02*
X124928869Y-106600297D01*
X125595535Y-106171726D02*
X125071726Y-106171726D01*
X124976488Y-106219345D01*
X124928869Y-106314583D01*
X124928869Y-106457440D01*
X124976488Y-106552678D01*
X125024107Y-106600297D01*
X124976488Y-107457440D02*
X124928869Y-107362202D01*
X124928869Y-107171726D01*
X124976488Y-107076488D01*
X125071726Y-107028869D01*
X125452678Y-107028869D01*
X125547916Y-107076488D01*
X125595535Y-107171726D01*
X125595535Y-107362202D01*
X125547916Y-107457440D01*
X125452678Y-107505059D01*
X125357440Y-107505059D01*
X125262202Y-107028869D01*
%TO.C,MX10*%
X124062500Y-91137500D02*
X126062500Y-91137500D01*
X128587500Y-93662500D02*
X126587500Y-93662500D01*
X112062500Y-79137500D02*
X112062500Y-77137500D01*
X109537500Y-93662500D02*
X109537500Y-91662500D01*
X111537500Y-93662500D02*
X109537500Y-93662500D01*
X112062500Y-77137500D02*
X114062500Y-77137500D01*
X128587500Y-74612500D02*
X128587500Y-76612500D01*
X124062500Y-77137500D02*
X126062500Y-77137500D01*
X112062500Y-91137500D02*
X112062500Y-89137500D01*
X109537500Y-74612500D02*
X111537500Y-74612500D01*
X114062500Y-91137500D02*
X112062500Y-91137500D01*
X126062500Y-91137500D02*
X126062500Y-89137500D01*
X126587500Y-74612500D02*
X128587500Y-74612500D01*
X109537500Y-76612500D02*
X109537500Y-74612500D01*
X128587500Y-91662500D02*
X128587500Y-93662500D01*
X126062500Y-77137500D02*
X126062500Y-77637500D01*
D11*
%TO.C,SW3*%
X163262500Y-42356250D02*
X163262500Y-44956250D01*
X155162500Y-37756250D02*
X151062500Y-37756250D01*
D10*
X147637500Y-34131250D02*
X149637500Y-34131250D01*
D11*
X149962500Y-39556250D02*
X149662500Y-39856250D01*
X155162500Y-49556250D02*
X151062500Y-49556250D01*
X157162500Y-43156250D02*
X157162500Y-44156250D01*
D10*
X147637500Y-36131250D02*
X147637500Y-34131250D01*
D11*
X149362500Y-39556250D02*
X149962500Y-39556250D01*
X163262500Y-37756250D02*
X163262500Y-40156250D01*
D10*
X166687500Y-34131250D02*
X166687500Y-36131250D01*
X166687500Y-53181250D02*
X164687500Y-53181250D01*
X164687500Y-34131250D02*
X166687500Y-34131250D01*
X149637500Y-53181250D02*
X147637500Y-53181250D01*
D11*
X159162500Y-37756250D02*
X163262500Y-37756250D01*
D10*
X147637500Y-53181250D02*
X147637500Y-51181250D01*
D11*
X149662500Y-39856250D02*
X149362500Y-39556250D01*
X163262500Y-47156250D02*
X163262500Y-49556250D01*
D10*
X166687500Y-51181250D02*
X166687500Y-53181250D01*
D11*
X163262500Y-49556250D02*
X159162500Y-49556250D01*
X151062500Y-37756250D02*
X151062500Y-49556250D01*
X156662500Y-43656250D02*
X157662500Y-43656250D01*
X160162500Y-43656250D02*
G75*
G03*
X160162500Y-43656250I-3000000J0D01*
G01*
D10*
%TO.C,MX18*%
X166687500Y-74612500D02*
X166687500Y-76612500D01*
X150162500Y-91137500D02*
X150162500Y-89137500D01*
X147637500Y-93662500D02*
X147637500Y-91662500D01*
X164687500Y-74612500D02*
X166687500Y-74612500D01*
X166687500Y-91662500D02*
X166687500Y-93662500D01*
X149637500Y-93662500D02*
X147637500Y-93662500D01*
X152162500Y-91137500D02*
X150162500Y-91137500D01*
X162162500Y-91137500D02*
X164162500Y-91137500D01*
X162162500Y-77137500D02*
X164162500Y-77137500D01*
X164162500Y-77137500D02*
X164162500Y-77637500D01*
X150162500Y-79137500D02*
X150162500Y-77137500D01*
X166687500Y-93662500D02*
X164687500Y-93662500D01*
X147637500Y-74612500D02*
X149637500Y-74612500D01*
X147637500Y-76612500D02*
X147637500Y-74612500D01*
X164162500Y-91137500D02*
X164162500Y-89137500D01*
X150162500Y-77137500D02*
X152162500Y-77137500D01*
%TO.C,MX5*%
X105012500Y-72087500D02*
X107012500Y-72087500D01*
X105012500Y-58087500D02*
X107012500Y-58087500D01*
X90487500Y-74612500D02*
X90487500Y-72612500D01*
X109537500Y-55562500D02*
X109537500Y-57562500D01*
X92487500Y-74612500D02*
X90487500Y-74612500D01*
X90487500Y-55562500D02*
X92487500Y-55562500D01*
X95012500Y-72087500D02*
X93012500Y-72087500D01*
X90487500Y-57562500D02*
X90487500Y-55562500D01*
X107012500Y-58087500D02*
X107012500Y-58587500D01*
X107012500Y-72087500D02*
X107012500Y-70087500D01*
X93012500Y-58087500D02*
X95012500Y-58087500D01*
X109537500Y-74612500D02*
X107537500Y-74612500D01*
X93012500Y-60087500D02*
X93012500Y-58087500D01*
X109537500Y-72612500D02*
X109537500Y-74612500D01*
X107537500Y-55562500D02*
X109537500Y-55562500D01*
X93012500Y-72087500D02*
X93012500Y-70087500D01*
%TO.C,MX20*%
X162162500Y-115237500D02*
X164162500Y-115237500D01*
X150162500Y-117237500D02*
X150162500Y-115237500D01*
X164162500Y-129237500D02*
X164162500Y-127237500D01*
X150162500Y-115237500D02*
X152162500Y-115237500D01*
X147637500Y-114712500D02*
X147637500Y-112712500D01*
X147637500Y-112712500D02*
X149637500Y-112712500D01*
X166687500Y-112712500D02*
X166687500Y-114712500D01*
X152162500Y-129237500D02*
X150162500Y-129237500D01*
X166687500Y-131762500D02*
X164687500Y-131762500D01*
X164162500Y-115237500D02*
X164162500Y-115737500D01*
X147637500Y-131762500D02*
X147637500Y-129762500D01*
X164687500Y-112712500D02*
X166687500Y-112712500D01*
X150162500Y-129237500D02*
X150162500Y-127237500D01*
X166687500Y-129762500D02*
X166687500Y-131762500D01*
X162162500Y-129237500D02*
X164162500Y-129237500D01*
X149637500Y-131762500D02*
X147637500Y-131762500D01*
%TO.C,MX2*%
X88487500Y-74612500D02*
X90487500Y-74612500D01*
X90487500Y-74612500D02*
X90487500Y-76612500D01*
X73962500Y-77137500D02*
X75962500Y-77137500D01*
X71437500Y-93662500D02*
X71437500Y-91662500D01*
X85962500Y-91137500D02*
X87962500Y-91137500D01*
X90487500Y-91662500D02*
X90487500Y-93662500D01*
X75962500Y-91137500D02*
X73962500Y-91137500D01*
X73437500Y-93662500D02*
X71437500Y-93662500D01*
X71437500Y-76612500D02*
X71437500Y-74612500D01*
X73962500Y-91137500D02*
X73962500Y-89137500D01*
X73962500Y-79137500D02*
X73962500Y-77137500D01*
X87962500Y-91137500D02*
X87962500Y-89137500D01*
X87962500Y-77137500D02*
X87962500Y-77637500D01*
X85962500Y-77137500D02*
X87962500Y-77137500D01*
X71437500Y-74612500D02*
X73437500Y-74612500D01*
X90487500Y-93662500D02*
X88487500Y-93662500D01*
%TO.C,MX7*%
X109537500Y-93662500D02*
X109537500Y-95662500D01*
X90487500Y-93662500D02*
X92487500Y-93662500D01*
X109537500Y-110712500D02*
X109537500Y-112712500D01*
X107537500Y-93662500D02*
X109537500Y-93662500D01*
X107012500Y-96187500D02*
X107012500Y-96687500D01*
X92487500Y-112712500D02*
X90487500Y-112712500D01*
X105012500Y-96187500D02*
X107012500Y-96187500D01*
X90487500Y-95662500D02*
X90487500Y-93662500D01*
X93012500Y-110187500D02*
X93012500Y-108187500D01*
X109537500Y-112712500D02*
X107537500Y-112712500D01*
X93012500Y-98187500D02*
X93012500Y-96187500D01*
X107012500Y-110187500D02*
X107012500Y-108187500D01*
X95012500Y-110187500D02*
X93012500Y-110187500D01*
X93012500Y-96187500D02*
X95012500Y-96187500D01*
X105012500Y-110187500D02*
X107012500Y-110187500D01*
X90487500Y-112712500D02*
X90487500Y-110712500D01*
%TO.C,MX1*%
X85962500Y-58087500D02*
X87962500Y-58087500D01*
X90487500Y-72612500D02*
X90487500Y-74612500D01*
X85962500Y-72087500D02*
X87962500Y-72087500D01*
X90487500Y-55562500D02*
X90487500Y-57562500D01*
X73962500Y-72087500D02*
X73962500Y-70087500D01*
X73437500Y-74612500D02*
X71437500Y-74612500D01*
X88487500Y-55562500D02*
X90487500Y-55562500D01*
X71437500Y-55562500D02*
X73437500Y-55562500D01*
X73962500Y-58087500D02*
X75962500Y-58087500D01*
X90487500Y-74612500D02*
X88487500Y-74612500D01*
X87962500Y-72087500D02*
X87962500Y-70087500D01*
X71437500Y-74612500D02*
X71437500Y-72612500D01*
X75962500Y-72087500D02*
X73962500Y-72087500D01*
X87962500Y-58087500D02*
X87962500Y-58587500D01*
X71437500Y-57562500D02*
X71437500Y-55562500D01*
X73962500Y-60087500D02*
X73962500Y-58087500D01*
%TO.C,MX3*%
X71437500Y-95662500D02*
X71437500Y-93662500D01*
X71437500Y-93662500D02*
X73437500Y-93662500D01*
X85962500Y-110187500D02*
X87962500Y-110187500D01*
X71437500Y-112712500D02*
X71437500Y-110712500D01*
X90487500Y-110712500D02*
X90487500Y-112712500D01*
X73437500Y-112712500D02*
X71437500Y-112712500D01*
X75962500Y-110187500D02*
X73962500Y-110187500D01*
X73962500Y-96187500D02*
X75962500Y-96187500D01*
X73962500Y-98187500D02*
X73962500Y-96187500D01*
X87962500Y-96187500D02*
X87962500Y-96687500D01*
X90487500Y-112712500D02*
X88487500Y-112712500D01*
X85962500Y-96187500D02*
X87962500Y-96187500D01*
X87962500Y-110187500D02*
X87962500Y-108187500D01*
X90487500Y-93662500D02*
X90487500Y-95662500D01*
X73962500Y-110187500D02*
X73962500Y-108187500D01*
X88487500Y-93662500D02*
X90487500Y-93662500D01*
%TO.C,MX6*%
X107537500Y-74612500D02*
X109537500Y-74612500D01*
X93012500Y-77137500D02*
X95012500Y-77137500D01*
X90487500Y-93662500D02*
X90487500Y-91662500D01*
X93012500Y-79137500D02*
X93012500Y-77137500D01*
X109537500Y-74612500D02*
X109537500Y-76612500D01*
X92487500Y-93662500D02*
X90487500Y-93662500D01*
X90487500Y-76612500D02*
X90487500Y-74612500D01*
X95012500Y-91137500D02*
X93012500Y-91137500D01*
X109537500Y-91662500D02*
X109537500Y-93662500D01*
X109537500Y-93662500D02*
X107537500Y-93662500D01*
X107012500Y-77137500D02*
X107012500Y-77637500D01*
X105012500Y-77137500D02*
X107012500Y-77137500D01*
X93012500Y-91137500D02*
X93012500Y-89137500D01*
X105012500Y-91137500D02*
X107012500Y-91137500D01*
X107012500Y-91137500D02*
X107012500Y-89137500D01*
X90487500Y-74612500D02*
X92487500Y-74612500D01*
%TO.C,MX17*%
X166687500Y-74612500D02*
X164687500Y-74612500D01*
X152162500Y-72087500D02*
X150162500Y-72087500D01*
X162162500Y-58087500D02*
X164162500Y-58087500D01*
X147637500Y-55562500D02*
X149637500Y-55562500D01*
X166687500Y-55562500D02*
X166687500Y-57562500D01*
X166687500Y-72612500D02*
X166687500Y-74612500D01*
X162162500Y-72087500D02*
X164162500Y-72087500D01*
X164162500Y-72087500D02*
X164162500Y-70087500D01*
X164162500Y-58087500D02*
X164162500Y-58587500D01*
X147637500Y-57562500D02*
X147637500Y-55562500D01*
X150162500Y-60087500D02*
X150162500Y-58087500D01*
X150162500Y-58087500D02*
X152162500Y-58087500D01*
X149637500Y-74612500D02*
X147637500Y-74612500D01*
X147637500Y-74612500D02*
X147637500Y-72612500D01*
X164687500Y-55562500D02*
X166687500Y-55562500D01*
X150162500Y-72087500D02*
X150162500Y-70087500D01*
%TO.C,MX11*%
X124062500Y-96187500D02*
X126062500Y-96187500D01*
X109537500Y-95662500D02*
X109537500Y-93662500D01*
X124062500Y-110187500D02*
X126062500Y-110187500D01*
X126062500Y-96187500D02*
X126062500Y-96687500D01*
X114062500Y-110187500D02*
X112062500Y-110187500D01*
X109537500Y-112712500D02*
X109537500Y-110712500D01*
X128587500Y-112712500D02*
X126587500Y-112712500D01*
X126062500Y-110187500D02*
X126062500Y-108187500D01*
X111537500Y-112712500D02*
X109537500Y-112712500D01*
X128587500Y-93662500D02*
X128587500Y-95662500D01*
X112062500Y-110187500D02*
X112062500Y-108187500D01*
X128587500Y-110712500D02*
X128587500Y-112712500D01*
X109537500Y-93662500D02*
X111537500Y-93662500D01*
X112062500Y-98187500D02*
X112062500Y-96187500D01*
X112062500Y-96187500D02*
X114062500Y-96187500D01*
X126587500Y-93662500D02*
X128587500Y-93662500D01*
%TO.C,MX9*%
X126062500Y-58087500D02*
X126062500Y-58587500D01*
X109537500Y-57562500D02*
X109537500Y-55562500D01*
X128587500Y-74612500D02*
X126587500Y-74612500D01*
X124062500Y-72087500D02*
X126062500Y-72087500D01*
X112062500Y-58087500D02*
X114062500Y-58087500D01*
X126062500Y-72087500D02*
X126062500Y-70087500D01*
X128587500Y-72612500D02*
X128587500Y-74612500D01*
X109537500Y-55562500D02*
X111537500Y-55562500D01*
X126587500Y-55562500D02*
X128587500Y-55562500D01*
X112062500Y-72087500D02*
X112062500Y-70087500D01*
X128587500Y-55562500D02*
X128587500Y-57562500D01*
X112062500Y-60087500D02*
X112062500Y-58087500D01*
X124062500Y-58087500D02*
X126062500Y-58087500D01*
X109537500Y-74612500D02*
X109537500Y-72612500D01*
X111537500Y-74612500D02*
X109537500Y-74612500D01*
X114062500Y-72087500D02*
X112062500Y-72087500D01*
%TO.C,MX16*%
X147637500Y-131762500D02*
X145637500Y-131762500D01*
X131112500Y-129237500D02*
X131112500Y-127237500D01*
X145637500Y-112712500D02*
X147637500Y-112712500D01*
X130587500Y-131762500D02*
X128587500Y-131762500D01*
X143112500Y-129237500D02*
X145112500Y-129237500D01*
X128587500Y-112712500D02*
X130587500Y-112712500D01*
X143112500Y-115237500D02*
X145112500Y-115237500D01*
X128587500Y-114712500D02*
X128587500Y-112712500D01*
X133112500Y-129237500D02*
X131112500Y-129237500D01*
X147637500Y-129762500D02*
X147637500Y-131762500D01*
X131112500Y-115237500D02*
X133112500Y-115237500D01*
X128587500Y-131762500D02*
X128587500Y-129762500D01*
X145112500Y-129237500D02*
X145112500Y-127237500D01*
X145112500Y-115237500D02*
X145112500Y-115737500D01*
X147637500Y-112712500D02*
X147637500Y-114712500D01*
X131112500Y-117237500D02*
X131112500Y-115237500D01*
%TO.C,MX19*%
X149637500Y-112712500D02*
X147637500Y-112712500D01*
X152162500Y-110187500D02*
X150162500Y-110187500D01*
X164162500Y-96187500D02*
X164162500Y-96687500D01*
X150162500Y-98187500D02*
X150162500Y-96187500D01*
X166687500Y-112712500D02*
X164687500Y-112712500D01*
X150162500Y-110187500D02*
X150162500Y-108187500D01*
X162162500Y-110187500D02*
X164162500Y-110187500D01*
X147637500Y-93662500D02*
X149637500Y-93662500D01*
X147637500Y-95662500D02*
X147637500Y-93662500D01*
X150162500Y-96187500D02*
X152162500Y-96187500D01*
X164162500Y-110187500D02*
X164162500Y-108187500D01*
X166687500Y-110712500D02*
X166687500Y-112712500D01*
X147637500Y-112712500D02*
X147637500Y-110712500D01*
X166687500Y-93662500D02*
X166687500Y-95662500D01*
X164687500Y-93662500D02*
X166687500Y-93662500D01*
X162162500Y-96187500D02*
X164162500Y-96187500D01*
%TO.C,MX12*%
X109537500Y-112712500D02*
X111537500Y-112712500D01*
X126062500Y-115237500D02*
X126062500Y-115737500D01*
X109537500Y-131762500D02*
X109537500Y-129762500D01*
X112062500Y-117237500D02*
X112062500Y-115237500D01*
X114062500Y-129237500D02*
X112062500Y-129237500D01*
X128587500Y-112712500D02*
X128587500Y-114712500D01*
X126587500Y-112712500D02*
X128587500Y-112712500D01*
X124062500Y-115237500D02*
X126062500Y-115237500D01*
X111537500Y-131762500D02*
X109537500Y-131762500D01*
X109537500Y-114712500D02*
X109537500Y-112712500D01*
X128587500Y-131762500D02*
X126587500Y-131762500D01*
X112062500Y-129237500D02*
X112062500Y-127237500D01*
X128587500Y-129762500D02*
X128587500Y-131762500D01*
X124062500Y-129237500D02*
X126062500Y-129237500D01*
X126062500Y-129237500D02*
X126062500Y-127237500D01*
X112062500Y-115237500D02*
X114062500Y-115237500D01*
%TO.C,MX8*%
X92487500Y-131762500D02*
X90487500Y-131762500D01*
X109537500Y-129762500D02*
X109537500Y-131762500D01*
X90487500Y-114712500D02*
X90487500Y-112712500D01*
X95012500Y-129237500D02*
X93012500Y-129237500D01*
X93012500Y-117237500D02*
X93012500Y-115237500D01*
X109537500Y-112712500D02*
X109537500Y-114712500D01*
X109537500Y-131762500D02*
X107537500Y-131762500D01*
X105012500Y-129237500D02*
X107012500Y-129237500D01*
X93012500Y-115237500D02*
X95012500Y-115237500D01*
X105012500Y-115237500D02*
X107012500Y-115237500D01*
X90487500Y-131762500D02*
X90487500Y-129762500D01*
X107012500Y-115237500D02*
X107012500Y-115737500D01*
X107012500Y-129237500D02*
X107012500Y-127237500D01*
X107537500Y-112712500D02*
X109537500Y-112712500D01*
X93012500Y-129237500D02*
X93012500Y-127237500D01*
X90487500Y-112712500D02*
X92487500Y-112712500D01*
%TO.C,MX4*%
X71437500Y-112712500D02*
X73437500Y-112712500D01*
X88487500Y-112712500D02*
X90487500Y-112712500D01*
X85962500Y-129237500D02*
X87962500Y-129237500D01*
X71437500Y-114712500D02*
X71437500Y-112712500D01*
X85962500Y-115237500D02*
X87962500Y-115237500D01*
X90487500Y-129762500D02*
X90487500Y-131762500D01*
X73962500Y-115237500D02*
X75962500Y-115237500D01*
X75962500Y-129237500D02*
X73962500Y-129237500D01*
X87962500Y-129237500D02*
X87962500Y-127237500D01*
X73962500Y-117237500D02*
X73962500Y-115237500D01*
X90487500Y-112712500D02*
X90487500Y-114712500D01*
X87962500Y-115237500D02*
X87962500Y-115737500D01*
X73437500Y-131762500D02*
X71437500Y-131762500D01*
X73962500Y-129237500D02*
X73962500Y-127237500D01*
X90487500Y-131762500D02*
X88487500Y-131762500D01*
X71437500Y-131762500D02*
X71437500Y-129762500D01*
%TO.C,MX14*%
X145637500Y-74612500D02*
X147637500Y-74612500D01*
X145112500Y-91137500D02*
X145112500Y-89137500D01*
X128587500Y-93662500D02*
X128587500Y-91662500D01*
X147637500Y-91662500D02*
X147637500Y-93662500D01*
X147637500Y-74612500D02*
X147637500Y-76612500D01*
X128587500Y-74612500D02*
X130587500Y-74612500D01*
X133112500Y-91137500D02*
X131112500Y-91137500D01*
X147637500Y-93662500D02*
X145637500Y-93662500D01*
X130587500Y-93662500D02*
X128587500Y-93662500D01*
X128587500Y-76612500D02*
X128587500Y-74612500D01*
X131112500Y-91137500D02*
X131112500Y-89137500D01*
X131112500Y-79137500D02*
X131112500Y-77137500D01*
X145112500Y-77137500D02*
X145112500Y-77637500D01*
X143112500Y-91137500D02*
X145112500Y-91137500D01*
X143112500Y-77137500D02*
X145112500Y-77137500D01*
X131112500Y-77137500D02*
X133112500Y-77137500D01*
D11*
%TO.C,SW2*%
X143062500Y-37756250D02*
X143062500Y-40156250D01*
X143062500Y-42356250D02*
X143062500Y-44956250D01*
X136462500Y-43656250D02*
X137462500Y-43656250D01*
X129462500Y-39856250D02*
X129162500Y-39556250D01*
D10*
X127437500Y-36131250D02*
X127437500Y-34131250D01*
X146487500Y-53181250D02*
X144487500Y-53181250D01*
X129437500Y-53181250D02*
X127437500Y-53181250D01*
X144487500Y-34131250D02*
X146487500Y-34131250D01*
D11*
X129162500Y-39556250D02*
X129762500Y-39556250D01*
X134962500Y-49556250D02*
X130862500Y-49556250D01*
X129762500Y-39556250D02*
X129462500Y-39856250D01*
X138962500Y-37756250D02*
X143062500Y-37756250D01*
X134962500Y-37756250D02*
X130862500Y-37756250D01*
X143062500Y-49556250D02*
X138962500Y-49556250D01*
X143062500Y-47156250D02*
X143062500Y-49556250D01*
X130862500Y-37756250D02*
X130862500Y-49556250D01*
D10*
X127437500Y-53181250D02*
X127437500Y-51181250D01*
X127437500Y-34131250D02*
X129437500Y-34131250D01*
D11*
X136962500Y-43156250D02*
X136962500Y-44156250D01*
D10*
X146487500Y-34131250D02*
X146487500Y-36131250D01*
X146487500Y-51181250D02*
X146487500Y-53181250D01*
D11*
X139962500Y-43656250D02*
G75*
G03*
X139962500Y-43656250I-3000000J0D01*
G01*
D10*
%TO.C,MX13*%
X145637500Y-55562500D02*
X147637500Y-55562500D01*
X143112500Y-58087500D02*
X145112500Y-58087500D01*
X130587500Y-74612500D02*
X128587500Y-74612500D01*
X133112500Y-72087500D02*
X131112500Y-72087500D01*
X131112500Y-60087500D02*
X131112500Y-58087500D01*
X145112500Y-72087500D02*
X145112500Y-70087500D01*
X145112500Y-58087500D02*
X145112500Y-58587500D01*
X131112500Y-58087500D02*
X133112500Y-58087500D01*
X147637500Y-55562500D02*
X147637500Y-57562500D01*
X128587500Y-74612500D02*
X128587500Y-72612500D01*
X147637500Y-74612500D02*
X145637500Y-74612500D01*
X128587500Y-57562500D02*
X128587500Y-55562500D01*
X131112500Y-72087500D02*
X131112500Y-70087500D01*
X143112500Y-72087500D02*
X145112500Y-72087500D01*
X147637500Y-72612500D02*
X147637500Y-74612500D01*
X128587500Y-55562500D02*
X130587500Y-55562500D01*
%TO.C,MX15*%
X131112500Y-110187500D02*
X131112500Y-108187500D01*
X147637500Y-112712500D02*
X145637500Y-112712500D01*
X128587500Y-112712500D02*
X128587500Y-110712500D01*
X131112500Y-96187500D02*
X133112500Y-96187500D01*
X145637500Y-93662500D02*
X147637500Y-93662500D01*
X143112500Y-96187500D02*
X145112500Y-96187500D01*
X145112500Y-110187500D02*
X145112500Y-108187500D01*
X147637500Y-110712500D02*
X147637500Y-112712500D01*
X133112500Y-110187500D02*
X131112500Y-110187500D01*
X128587500Y-95662500D02*
X128587500Y-93662500D01*
X131112500Y-98187500D02*
X131112500Y-96187500D01*
X128587500Y-93662500D02*
X130587500Y-93662500D01*
X143112500Y-110187500D02*
X145112500Y-110187500D01*
X145112500Y-96187500D02*
X145112500Y-96687500D01*
X147637500Y-93662500D02*
X147637500Y-95662500D01*
X130587500Y-112712500D02*
X128587500Y-112712500D01*
%TD*%
M02*
